URWPalladioL-Roma.ufo
<glyph name="exclam" format="1">
  <advance width="278"/>
  <unicode hex="0021"/>
  <outline>
    <contour>
      <point x="138" y="111" type="curve" smooth="yes"/>
      <point x="108" y="111"/>
      <point x="81" y="83"/>
      <point x="81" y="53" type="curve" smooth="yes"/>
      <point x="81" y="23"/>
      <point x="108" y="-5"/>
      <point x="137" y="-5" type="curve" smooth="yes"/>
      <point x="169" y="-5"/>
      <point x="197" y="22"/>
      <point x="197" y="53" type="curve" smooth="yes"/>
      <point x="197" y="83"/>
      <point x="169" y="111"/>
    </contour>
    <contour>
      <point x="160" y="694" type="line"/>
      <point x="85" y="656" type="line"/>
      <point x="88" y="603"/>
      <point x="90" y="579"/>
      <point x="92" y="550" type="curve" smooth="yes"/>
      <point x="118" y="245" type="line"/>
      <point x="120" y="222" type="line"/>
      <point x="120" y="215" type="line"/>
      <point x="120" y="205" type="line"/>
      <point x="130" y="200" type="line"/>
      <point x="158" y="223" type="line"/>
      <point x="158" y="248" type="line"/>
      <point x="182" y="526" type="line" smooth="yes"/>
      <point x="183" y="542"/>
      <point x="184" y="547"/>
      <point x="187" y="574" type="curve" smooth="yes"/>
      <point x="192" y="615"/>
      <point x="194" y="647"/>
      <point x="194" y="669" type="curve" smooth="yes"/>
      <point x="194" y="694" type="line"/>
    </contour>
  </outline>
</glyph>
<glyph name="quotedbl" format="1">
  <advance width="371"/>
  <unicode hex="0022"/>
  <outline>
    <contour>
      <point x="105" y="469" type="line"/>
      <point x="137" y="665" type="line"/>
      <point x="138" y="667"/>
      <point x="138" y="669"/>
      <point x="138" y="671" type="curve" smooth="yes"/>
      <point x="138" y="689"/>
      <point x="116" y="709"/>
      <point x="95" y="709" type="curve" smooth="yes"/>
      <point x="74" y="709"/>
      <point x="52" y="689"/>
      <point x="52" y="670" type="curve" smooth="yes"/>
      <point x="52" y="665" type="line"/>
      <point x="85" y="469" type="line"/>
    </contour>
    <contour>
      <point x="286" y="469" type="line"/>
      <point x="318" y="665" type="line"/>
      <point x="319" y="667"/>
      <point x="319" y="669"/>
      <point x="319" y="670" type="curve" smooth="yes"/>
      <point x="319" y="689"/>
      <point x="297" y="709"/>
      <point x="276" y="709" type="curve" smooth="yes"/>
      <point x="254" y="709"/>
      <point x="233" y="690"/>
      <point x="233" y="670" type="curve" smooth="yes"/>
      <point x="233" y="665" type="line"/>
      <point x="266" y="469" type="line"/>
    </contour>
  </outline>
</glyph>
<glyph name="numbersign" format="1">
  <advance width="500"/>
  <unicode hex="0023"/>
  <outline>
    <contour>
      <point x="470" y="280" type="line"/>
      <point x="370" y="280" type="line"/>
      <point x="390" y="419" type="line"/>
      <point x="495" y="419" type="line"/>
      <point x="495" y="475" type="line"/>
      <point x="398" y="475" type="line"/>
      <point x="428" y="684" type="line"/>
      <point x="370" y="684" type="line"/>
      <point x="340" y="475" type="line"/>
      <point x="207" y="475" type="line"/>
      <point x="238" y="684" type="line"/>
      <point x="180" y="684" type="line"/>
      <point x="149" y="475" type="line"/>
      <point x="31" y="475" type="line"/>
      <point x="31" y="419" type="line"/>
      <point x="141" y="419" type="line"/>
      <point x="120" y="280" type="line"/>
      <point x="4" y="280" type="line"/>
      <point x="4" y="224" type="line"/>
      <point x="111" y="224" type="line"/>
      <point x="78" y="0" type="line"/>
      <point x="136" y="0" type="line"/>
      <point x="169" y="224" type="line"/>
      <point x="303" y="224" type="line"/>
      <point x="272" y="0" type="line"/>
      <point x="330" y="0" type="line"/>
      <point x="361" y="224" type="line"/>
      <point x="470" y="224" type="line"/>
    </contour>
    <contour>
      <point x="332" y="419" type="line"/>
      <point x="312" y="280" type="line"/>
      <point x="178" y="280" type="line"/>
      <point x="199" y="419" type="line"/>
    </contour>
  </outline>
</glyph>
<glyph name="dollar" format="1">
  <advance width="500"/>
  <unicode hex="0024"/>
  <outline>
    <contour>
      <point x="223" y="18" type="line"/>
      <point x="158" y="25"/>
      <point x="116" y="40"/>
      <point x="88" y="67" type="curve" smooth="yes"/>
      <point x="76" y="79"/>
      <point x="74" y="84"/>
      <point x="74" y="108" type="curve" smooth="yes"/>
      <point x="74" y="172" type="line"/>
      <point x="42" y="172" type="line"/>
      <point x="39" y="93"/>
      <point x="36" y="63"/>
      <point x="30" y="24" type="curve"/>
      <point x="95" y="-2"/>
      <point x="161" y="-17"/>
      <point x="223" y="-18" type="curve"/>
      <point x="221" y="-82"/>
      <point x="221" y="-95"/>
      <point x="219" y="-116" type="curve"/>
      <point x="264" y="-116" type="line"/>
      <point x="260" y="-16" type="line"/>
      <point x="315" y="-5"/>
      <point x="341" y="5"/>
      <point x="374" y="27" type="curve" smooth="yes"/>
      <point x="437" y="68"/>
      <point x="471" y="132"/>
      <point x="471" y="207" type="curve" smooth="yes"/>
      <point x="471" y="264"/>
      <point x="453" y="304"/>
      <point x="417" y="330" type="curve" smooth="yes"/>
      <point x="385" y="353"/>
      <point x="347" y="364"/>
      <point x="260" y="373" type="curve"/>
      <point x="260" y="633" type="line"/>
      <point x="306" y="629"/>
      <point x="333" y="620"/>
      <point x="358" y="604" type="curve" smooth="yes"/>
      <point x="377" y="591"/>
      <point x="381" y="579"/>
      <point x="381" y="542" type="curve" smooth="yes"/>
      <point x="381" y="500" type="line"/>
      <point x="413" y="500" type="line"/>
      <point x="413" y="554"/>
      <point x="417" y="593"/>
      <point x="426" y="626" type="curve"/>
      <point x="379" y="653"/>
      <point x="340" y="663"/>
      <point x="260" y="669" type="curve"/>
      <point x="261" y="700"/>
      <point x="262" y="712"/>
      <point x="264" y="731" type="curve"/>
      <point x="219" y="731" type="line"/>
      <point x="223" y="666" type="line"/>
      <point x="172" y="657"/>
      <point x="148" y="649"/>
      <point x="118" y="629" type="curve" smooth="yes"/>
      <point x="61" y="592"/>
      <point x="30" y="532"/>
      <point x="30" y="458" type="curve" smooth="yes"/>
      <point x="30" y="402"/>
      <point x="46" y="363"/>
      <point x="80" y="338" type="curve" smooth="yes"/>
      <point x="109" y="316"/>
      <point x="144" y="306"/>
      <point x="223" y="297" type="curve"/>
    </contour>
    <contour>
      <point x="260" y="292" type="line"/>
      <point x="358" y="277"/>
      <point x="392" y="246"/>
      <point x="392" y="173" type="curve" smooth="yes"/>
      <point x="392" y="92"/>
      <point x="340" y="32"/>
      <point x="260" y="18" type="curve"/>
    </contour>
    <contour>
      <point x="223" y="379" type="line"/>
      <point x="137" y="390"/>
      <point x="105" y="421"/>
      <point x="105" y="494" type="curve" smooth="yes"/>
      <point x="105" y="541"/>
      <point x="121" y="580"/>
      <point x="151" y="604" type="curve" smooth="yes"/>
      <point x="171" y="620"/>
      <point x="187" y="626"/>
      <point x="223" y="630" type="curve"/>
    </contour>
  </outline>
</glyph>
<glyph name="percent" format="1">
  <advance width="840"/>
  <unicode hex="0025"/>
  <outline>
    <contour>
      <point x="203" y="689" type="curve" smooth="yes"/>
      <point x="108" y="689"/>
      <point x="39" y="619"/>
      <point x="39" y="522" type="curve" smooth="yes"/>
      <point x="39" y="433"/>
      <point x="104" y="368"/>
      <point x="193" y="368" type="curve" smooth="yes"/>
      <point x="286" y="368"/>
      <point x="355" y="439"/>
      <point x="355" y="535" type="curve" smooth="yes"/>
      <point x="355" y="623"/>
      <point x="290" y="689"/>
    </contour>
    <contour>
      <point x="200" y="666" type="curve" smooth="yes"/>
      <point x="251" y="666"/>
      <point x="283" y="615"/>
      <point x="283" y="533" type="curve" smooth="yes"/>
      <point x="283" y="447"/>
      <point x="248" y="391"/>
      <point x="194" y="391" type="curve" smooth="yes"/>
      <point x="141" y="391"/>
      <point x="111" y="440"/>
      <point x="111" y="526" type="curve" smooth="yes"/>
      <point x="111" y="612"/>
      <point x="145" y="666"/>
    </contour>
    <contour>
      <point x="650" y="321" type="curve" smooth="yes"/>
      <point x="555" y="321"/>
      <point x="486" y="251"/>
      <point x="486" y="154" type="curve" smooth="yes"/>
      <point x="486" y="65"/>
      <point x="551" y="0"/>
      <point x="640" y="0" type="curve" smooth="yes"/>
      <point x="733" y="0"/>
      <point x="802" y="71"/>
      <point x="802" y="167" type="curve" smooth="yes"/>
      <point x="802" y="255"/>
      <point x="737" y="321"/>
    </contour>
    <contour>
      <point x="647" y="298" type="curve" smooth="yes"/>
      <point x="698" y="298"/>
      <point x="730" y="247"/>
      <point x="730" y="165" type="curve" smooth="yes"/>
      <point x="730" y="79"/>
      <point x="695" y="23"/>
      <point x="641" y="23" type="curve" smooth="yes"/>
      <point x="588" y="23"/>
      <point x="558" y="72"/>
      <point x="558" y="158" type="curve" smooth="yes"/>
      <point x="558" y="244"/>
      <point x="592" y="298"/>
    </contour>
    <contour>
      <point x="250" y="-20" type="line"/>
      <point x="616" y="709" type="line"/>
      <point x="576" y="709" type="line"/>
      <point x="210" y="-20" type="line"/>
    </contour>
  </outline>
</glyph>
<glyph name="ampersand" format="1">
  <advance width="778"/>
  <unicode hex="0026"/>
  <outline>
    <contour>
      <point x="418" y="344" type="line"/>
      <point x="477" y="339"/>
      <point x="493" y="337"/>
      <point x="505" y="334" type="curve" smooth="yes"/>
      <point x="520" y="330"/>
      <point x="532" y="295"/>
      <point x="532" y="254" type="curve" smooth="yes"/>
      <point x="532" y="218"/>
      <point x="520" y="189"/>
      <point x="484" y="141" type="curve"/>
      <point x="395" y="232"/>
      <point x="336" y="306"/>
      <point x="280" y="397" type="curve"/>
      <point x="322" y="428"/>
      <point x="340" y="443"/>
      <point x="360" y="463" type="curve" smooth="yes"/>
      <point x="404" y="510"/>
      <point x="424" y="553"/>
      <point x="424" y="599" type="curve" smooth="yes"/>
      <point x="424" y="656"/>
      <point x="388" y="689"/>
      <point x="326" y="689" type="curve" smooth="yes"/>
      <point x="299" y="689"/>
      <point x="278" y="682"/>
      <point x="260" y="666" type="curve" smooth="yes"/>
      <point x="192" y="606" type="line" smooth="yes"/>
      <point x="177" y="593"/>
      <point x="168" y="561"/>
      <point x="168" y="520" type="curve" smooth="yes"/>
      <point x="168" y="479"/>
      <point x="177" y="440"/>
      <point x="198" y="387" type="curve"/>
      <point x="144" y="356"/>
      <point x="122" y="338"/>
      <point x="96" y="309" type="curve" smooth="yes"/>
      <point x="61" y="268"/>
      <point x="43" y="222"/>
      <point x="43" y="172" type="curve" smooth="yes"/>
      <point x="43" y="60"/>
      <point x="130" y="-20"/>
      <point x="249" y="-20" type="curve" smooth="yes"/>
      <point x="322" y="-20"/>
      <point x="380" y="2"/>
      <point x="451" y="57" type="curve"/>
      <point x="509" y="12"/>
      <point x="584" y="-20"/>
      <point x="632" y="-20" type="curve" smooth="yes"/>
      <point x="650" y="-20"/>
      <point x="660" y="-18"/>
      <point x="666" y="-14" type="curve" smooth="yes"/>
      <point x="753" y="49" type="line"/>
      <point x="747" y="74" type="line"/>
      <point x="717" y="60"/>
      <point x="703" y="55"/>
      <point x="686" y="55" type="curve" smooth="yes"/>
      <point x="637" y="55"/>
      <point x="599" y="69"/>
      <point x="514" y="118" type="curve"/>
      <point x="573" y="184"/>
      <point x="595" y="232"/>
      <point x="595" y="295" type="curve" smooth="yes"/>
      <point x="595" y="310"/>
      <point x="594" y="319"/>
      <point x="590" y="334" type="curve"/>
      <point x="661" y="331"/>
      <point x="691" y="328"/>
      <point x="730" y="322" type="curve"/>
      <point x="730" y="347"/>
      <point x="733" y="365"/>
      <point x="742" y="394" type="curve"/>
      <point x="548" y="387" type="line" smooth="yes"/>
      <point x="522" y="387"/>
      <point x="501" y="387"/>
      <point x="451" y="389" type="curve"/>
    </contour>
    <contour>
      <point x="213" y="352" type="curve"/>
      <point x="258" y="271"/>
      <point x="307" y="208"/>
      <point x="420" y="82" type="curve"/>
      <point x="373" y="50"/>
      <point x="336" y="36"/>
      <point x="296" y="36" type="curve" smooth="yes"/>
      <point x="207" y="36"/>
      <point x="130" y="116"/>
      <point x="130" y="209" type="curve" smooth="yes"/>
      <point x="130" y="267"/>
      <point x="152" y="304"/>
    </contour>
    <contour>
      <point x="264" y="431" type="curve"/>
      <point x="245" y="487"/>
      <point x="238" y="522"/>
      <point x="238" y="557" type="curve" smooth="yes"/>
      <point x="238" y="608"/>
      <point x="259" y="636"/>
      <point x="299" y="636" type="curve" smooth="yes"/>
      <point x="332" y="636"/>
      <point x="357" y="607"/>
      <point x="357" y="569" type="curve" smooth="yes"/>
      <point x="357" y="528"/>
      <point x="325" y="478"/>
      <point x="275" y="439" type="curve"/>
      <point x="269" y="435"/>
      <point x="269" y="435"/>
    </contour>
  </outline>
</glyph>
<glyph name="quotesingle" format="1">
  <advance width="208"/>
  <unicode hex="0027"/>
  <outline>
    <contour>
      <point x="114" y="469" type="line"/>
      <point x="146" y="665" type="line"/>
      <point x="147" y="667"/>
      <point x="147" y="669"/>
      <point x="147" y="671" type="curve" smooth="yes"/>
      <point x="147" y="689"/>
      <point x="125" y="709"/>
      <point x="104" y="709" type="curve" smooth="yes"/>
      <point x="83" y="709"/>
      <point x="61" y="689"/>
      <point x="61" y="670" type="curve" smooth="yes"/>
      <point x="61" y="665" type="line"/>
      <point x="94" y="469" type="line"/>
    </contour>
  </outline>
</glyph>
<glyph name="parenleft" format="1">
  <advance width="333"/>
  <unicode hex="0028"/>
  <outline>
    <contour>
      <point x="301" y="-194" type="line"/>
      <point x="229" y="-105"/>
      <point x="203" y="-57"/>
      <point x="177" y="33" type="curve" smooth="yes"/>
      <point x="156" y="105"/>
      <point x="146" y="181"/>
      <point x="146" y="266" type="curve" smooth="yes"/>
      <point x="146" y="349"/>
      <point x="156" y="420"/>
      <point x="175" y="485" type="curve" smooth="yes"/>
      <point x="201" y="568"/>
      <point x="228" y="615"/>
      <point x="301" y="700" type="curve"/>
      <point x="282" y="726" type="line"/>
      <point x="178" y="633"/>
      <point x="137" y="578"/>
      <point x="99" y="480" type="curve" smooth="yes"/>
      <point x="73" y="413"/>
      <point x="60" y="342"/>
      <point x="60" y="266" type="curve" smooth="yes"/>
      <point x="60" y="159"/>
      <point x="85" y="58"/>
      <point x="133" y="-32" type="curve" smooth="yes"/>
      <point x="168" y="-99"/>
      <point x="200" y="-138"/>
      <point x="282" y="-215" type="curve"/>
    </contour>
  </outline>
</glyph>
<glyph name="parenright" format="1">
  <advance width="333"/>
  <unicode hex="0029"/>
  <outline>
    <contour>
      <point x="51" y="-215" type="line"/>
      <point x="120" y="-150"/>
      <point x="149" y="-117"/>
      <point x="180" y="-68" type="curve" smooth="yes"/>
      <point x="241" y="29"/>
      <point x="273" y="145"/>
      <point x="273" y="265" type="curve" smooth="yes"/>
      <point x="273" y="342"/>
      <point x="260" y="413"/>
      <point x="234" y="480" type="curve" smooth="yes"/>
      <point x="196" y="577"/>
      <point x="155" y="632"/>
      <point x="51" y="726" type="curve"/>
      <point x="32" y="700" type="line"/>
      <point x="105" y="614"/>
      <point x="132" y="567"/>
      <point x="157" y="485" type="curve" smooth="yes"/>
      <point x="177" y="420"/>
      <point x="187" y="349"/>
      <point x="187" y="266" type="curve" smooth="yes"/>
      <point x="187" y="181"/>
      <point x="177" y="105"/>
      <point x="156" y="33" type="curve" smooth="yes"/>
      <point x="130" y="-57"/>
      <point x="104" y="-105"/>
      <point x="32" y="-194" type="curve"/>
    </contour>
  </outline>
</glyph>
<glyph name="asterisk" format="1">
  <advance width="389"/>
  <unicode hex="002A"/>
  <outline>
    <contour>
      <point x="168" y="514" type="line"/>
      <point x="37" y="460" type="line"/>
      <point x="32" y="451" type="line"/>
      <point x="68" y="400" type="line"/>
      <point x="78" y="400" type="line"/>
      <point x="184" y="488" type="line"/>
      <point x="202" y="346" type="line"/>
      <point x="212" y="342" type="line"/>
      <point x="280" y="368" type="line"/>
      <point x="280" y="378" type="line"/>
      <point x="212" y="500" type="line"/>
      <point x="350" y="480" type="line"/>
      <point x="359" y="488" type="line"/>
      <point x="359" y="550" type="line"/>
      <point x="353" y="554" type="line"/>
      <point x="214" y="530" type="line"/>
      <point x="283" y="655" type="line"/>
      <point x="280" y="670" type="line"/>
      <point x="218" y="689" type="line"/>
      <point x="209" y="685" type="line"/>
      <point x="183" y="542" type="line"/>
      <point x="88" y="640" type="line"/>
      <point x="78" y="640" type="line"/>
      <point x="34" y="588" type="line"/>
      <point x="37" y="578" type="line"/>
    </contour>
  </outline>
</glyph>
<glyph name="plus" format="1">
  <advance width="606"/>
  <unicode hex="002B"/>
  <outline>
    <contour>
      <point x="275" y="289" type="line"/>
      <point x="51" y="289" type="line"/>
      <point x="51" y="233" type="line"/>
      <point x="275" y="233" type="line"/>
      <point x="275" y="7" type="line"/>
      <point x="331" y="7" type="line"/>
      <point x="331" y="233" type="line"/>
      <point x="555" y="233" type="line"/>
      <point x="555" y="289" type="line"/>
      <point x="331" y="289" type="line"/>
      <point x="331" y="512" type="line"/>
      <point x="275" y="512" type="line"/>
    </contour>
  </outline>
</glyph>
<glyph name="comma" format="1">
  <advance width="250"/>
  <unicode hex="002C"/>
  <outline>
    <contour>
      <point x="204" y="123" type="line"/>
      <point x="177" y="114"/>
      <point x="159" y="108"/>
      <point x="106" y="93" type="curve"/>
      <point x="99" y="17"/>
      <point x="74" y="-48"/>
      <point x="16" y="-144" type="curve"/>
      <point x="30" y="-155" type="line"/>
      <point x="71" y="-136" type="line"/>
      <point x="152" y="-31"/>
      <point x="190" y="32"/>
      <point x="218" y="109" type="curve"/>
    </contour>
  </outline>
</glyph>
<glyph name="hyphen" format="1">
  <advance width="333"/>
  <unicode hex="002D"/>
  <outline>
    <contour>
      <point x="282" y="215" type="line"/>
      <point x="312" y="282" type="line"/>
      <point x="307" y="287" type="line"/>
      <point x="44" y="287" type="line"/>
      <point x="17" y="220" type="line"/>
      <point x="22" y="215" type="line"/>
    </contour>
  </outline>
</glyph>
<glyph name="period" format="1">
  <advance width="250"/>
  <unicode hex="002E"/>
  <outline>
    <contour>
      <point x="124" y="111" type="curve" smooth="yes"/>
      <point x="94" y="111"/>
      <point x="67" y="83"/>
      <point x="67" y="53" type="curve" smooth="yes"/>
      <point x="67" y="23"/>
      <point x="94" y="-5"/>
      <point x="123" y="-5" type="curve" smooth="yes"/>
      <point x="155" y="-5"/>
      <point x="183" y="22"/>
      <point x="183" y="53" type="curve" smooth="yes"/>
      <point x="183" y="83"/>
      <point x="155" y="111"/>
    </contour>
  </outline>
</glyph>
<glyph name="slash" format="1">
  <advance width="606"/>
  <unicode hex="002F"/>
  <outline>
    <contour>
      <point x="519" y="726" type="line"/>
      <point x="459" y="726" type="line"/>
      <point x="87" y="-119" type="line"/>
      <point x="147" y="-119" type="line"/>
    </contour>
  </outline>
</glyph>
<glyph name="zero" format="1">
  <advance width="500"/>
  <unicode hex="0030"/>
  <outline>
    <contour>
      <point x="263" y="689" type="curve" smooth="yes"/>
      <point x="108" y="689"/>
      <point x="29" y="566"/>
      <point x="29" y="324" type="curve" smooth="yes"/>
      <point x="29" y="207"/>
      <point x="50" y="106"/>
      <point x="85" y="57" type="curve" smooth="yes"/>
      <point x="120" y="8"/>
      <point x="176" y="-20"/>
      <point x="238" y="-20" type="curve" smooth="yes"/>
      <point x="389" y="-20"/>
      <point x="465" y="110"/>
      <point x="465" y="366" type="curve" smooth="yes"/>
      <point x="465" y="585"/>
      <point x="400" y="689"/>
    </contour>
    <contour>
      <point x="245" y="654" type="curve" smooth="yes"/>
      <point x="342" y="654"/>
      <point x="381" y="556"/>
      <point x="381" y="316" type="curve" smooth="yes"/>
      <point x="381" y="103"/>
      <point x="343" y="15"/>
      <point x="251" y="15" type="curve" smooth="yes"/>
      <point x="154" y="15"/>
      <point x="113" y="116"/>
      <point x="113" y="360" type="curve" smooth="yes"/>
      <point x="113" y="571"/>
      <point x="150" y="654"/>
    </contour>
  </outline>
</glyph>
<glyph name="one" format="1">
  <advance width="500"/>
  <unicode hex="0031"/>
  <outline>
    <contour>
      <point x="67" y="555" type="line"/>
      <point x="77" y="555" type="line"/>
      <point x="206" y="613" type="line"/>
      <point x="207" y="614"/>
      <point x="208" y="614"/>
      <point x="209" y="614" type="curve" smooth="yes"/>
      <point x="215" y="614"/>
      <point x="217" y="605"/>
      <point x="217" y="581" type="curve" smooth="yes"/>
      <point x="217" y="96" type="line" smooth="yes"/>
      <point x="217" y="44"/>
      <point x="206" y="33"/>
      <point x="152" y="30" type="curve" smooth="yes"/>
      <point x="96" y="27" type="line"/>
      <point x="96" y="-3" type="line"/>
      <point x="250" y="0"/>
      <point x="250" y="0"/>
      <point x="261" y="0" type="curve" smooth="yes"/>
      <point x="274" y="0"/>
      <point x="296" y="0"/>
      <point x="330" y="-1" type="curve"/>
      <point x="342" y="-2"/>
      <point x="377" y="-2"/>
      <point x="418" y="-3" type="curve"/>
      <point x="418" y="27" type="line"/>
      <point x="366" y="30" type="line" smooth="yes"/>
      <point x="311" y="33"/>
      <point x="301" y="44"/>
      <point x="301" y="96" type="curve" smooth="yes"/>
      <point x="301" y="689" type="line"/>
      <point x="287" y="694" type="line"/>
      <point x="222" y="660"/>
      <point x="151" y="630"/>
      <point x="60" y="598" type="curve"/>
    </contour>
  </outline>
</glyph>
<glyph name="two" format="1">
  <advance width="500"/>
  <unicode hex="0032"/>
  <outline>
    <contour>
      <point x="16" y="23" type="line"/>
      <point x="16" y="-3" type="line"/>
      <point x="203" y="0"/>
      <point x="203" y="0"/>
      <point x="239" y="0" type="curve" smooth="yes"/>
      <point x="275" y="0"/>
      <point x="275" y="0"/>
      <point x="468" y="-3" type="curve"/>
      <point x="466" y="18"/>
      <point x="466" y="28"/>
      <point x="466" y="42" type="curve" smooth="yes"/>
      <point x="466" y="55"/>
      <point x="466" y="65"/>
      <point x="468" y="87" type="curve"/>
      <point x="353" y="82"/>
      <point x="307" y="81"/>
      <point x="122" y="77" type="curve"/>
      <point x="304" y="270" type="line" smooth="yes"/>
      <point x="401" y="373"/>
      <point x="431" y="428"/>
      <point x="431" y="503" type="curve" smooth="yes"/>
      <point x="431" y="618"/>
      <point x="353" y="689"/>
      <point x="226" y="689" type="curve" smooth="yes"/>
      <point x="154" y="689"/>
      <point x="105" y="669"/>
      <point x="56" y="619" type="curve"/>
      <point x="39" y="483" type="line"/>
      <point x="68" y="483" type="line"/>
      <point x="81" y="529" type="line" smooth="yes"/>
      <point x="97" y="587"/>
      <point x="133" y="612"/>
      <point x="200" y="612" type="curve" smooth="yes"/>
      <point x="286" y="612"/>
      <point x="341" y="558"/>
      <point x="341" y="473" type="curve" smooth="yes"/>
      <point x="341" y="398"/>
      <point x="299" y="324"/>
      <point x="186" y="204" type="curve" smooth="yes"/>
    </contour>
  </outline>
</glyph>
<glyph name="three" format="1">
  <advance width="500"/>
  <unicode hex="0033"/>
  <outline>
    <contour>
      <point x="43" y="498" type="line"/>
      <point x="74" y="498" type="line"/>
      <point x="92" y="554" type="line" smooth="yes"/>
      <point x="103" y="588"/>
      <point x="166" y="622"/>
      <point x="218" y="622" type="curve" smooth="yes"/>
      <point x="283" y="622"/>
      <point x="336" y="569"/>
      <point x="336" y="506" type="curve" smooth="yes"/>
      <point x="336" y="431"/>
      <point x="277" y="368"/>
      <point x="206" y="368" type="curve" smooth="yes"/>
      <point x="198" y="368"/>
      <point x="187" y="369"/>
      <point x="174" y="370" type="curve" smooth="yes"/>
      <point x="159" y="371" type="line"/>
      <point x="147" y="318" type="line"/>
      <point x="154" y="312" type="line"/>
      <point x="192" y="329"/>
      <point x="211" y="334"/>
      <point x="238" y="334" type="curve" smooth="yes"/>
      <point x="321" y="334"/>
      <point x="369" y="281"/>
      <point x="369" y="190" type="curve" smooth="yes"/>
      <point x="369" y="88"/>
      <point x="308" y="21"/>
      <point x="215" y="21" type="curve" smooth="yes"/>
      <point x="169" y="21"/>
      <point x="128" y="36"/>
      <point x="98" y="64" type="curve" smooth="yes"/>
      <point x="74" y="86"/>
      <point x="61" y="109"/>
      <point x="42" y="163" type="curve"/>
      <point x="15" y="153" type="line"/>
      <point x="36" y="92"/>
      <point x="44" y="56"/>
      <point x="50" y="6" type="curve"/>
      <point x="103" y="-12"/>
      <point x="147" y="-20"/>
      <point x="184" y="-20" type="curve" smooth="yes"/>
      <point x="264" y="-20"/>
      <point x="356" y="25"/>
      <point x="411" y="92" type="curve" smooth="yes"/>
      <point x="445" y="133"/>
      <point x="462" y="177"/>
      <point x="462" y="224" type="curve" smooth="yes"/>
      <point x="462" y="272"/>
      <point x="442" y="314"/>
      <point x="406" y="339" type="curve" smooth="yes"/>
      <point x="381" y="357"/>
      <point x="358" y="365"/>
      <point x="308" y="374" type="curve"/>
      <point x="388" y="436"/>
      <point x="418" y="482"/>
      <point x="418" y="541" type="curve" smooth="yes"/>
      <point x="418" y="630"/>
      <point x="344" y="689"/>
      <point x="233" y="689" type="curve" smooth="yes"/>
      <point x="165" y="689"/>
      <point x="120" y="670"/>
      <point x="72" y="622" type="curve"/>
    </contour>
  </outline>
</glyph>
<glyph name="four" format="1">
  <advance width="500"/>
  <unicode hex="0034"/>
  <outline>
    <contour>
      <point x="280" y="181" type="line"/>
      <point x="280" y="106" type="line" smooth="yes"/>
      <point x="280" y="46"/>
      <point x="269" y="32"/>
      <point x="220" y="30" type="curve" smooth="yes"/>
      <point x="158" y="27" type="line"/>
      <point x="158" y="-3" type="line"/>
      <point x="291" y="0"/>
      <point x="291" y="0"/>
      <point x="315" y="0" type="curve" smooth="yes"/>
      <point x="339" y="0"/>
      <point x="339" y="0"/>
      <point x="472" y="-3" type="curve"/>
      <point x="472" y="27" type="line"/>
      <point x="424" y="30" type="line" smooth="yes"/>
      <point x="375" y="33"/>
      <point x="364" y="46"/>
      <point x="364" y="106" type="curve" smooth="yes"/>
      <point x="364" y="181" type="line"/>
      <point x="423" y="181"/>
      <point x="444" y="180"/>
      <point x="472" y="177" type="curve"/>
      <point x="472" y="248" type="line"/>
      <point x="425" y="244"/>
      <point x="406" y="244"/>
      <point x="391" y="245" type="curve"/>
      <point x="388" y="245" type="line"/>
      <point x="364" y="245" type="line"/>
      <point x="364" y="384" type="line" smooth="yes"/>
      <point x="364" y="562"/>
      <point x="366" y="648"/>
      <point x="371" y="689" type="curve"/>
      <point x="359" y="694" type="line"/>
      <point x="285" y="667" type="line"/>
      <point x="2" y="204" type="line"/>
      <point x="13" y="181" type="line"/>
    </contour>
    <contour>
      <point x="280" y="245" type="line"/>
      <point x="65" y="245" type="line"/>
      <point x="280" y="597" type="line"/>
    </contour>
  </outline>
</glyph>
<glyph name="five" format="1">
  <advance width="500"/>
  <unicode hex="0035"/>
  <outline>
    <contour>
      <point x="127" y="605" type="line"/>
      <point x="256" y="601"/>
      <point x="312" y="600"/>
      <point x="432" y="600" type="curve"/>
      <point x="432" y="600"/>
      <point x="437" y="605"/>
      <point x="437" y="605" type="curve"/>
      <point x="435" y="623"/>
      <point x="435" y="631"/>
      <point x="435" y="644" type="curve" smooth="yes"/>
      <point x="435" y="658"/>
      <point x="435" y="666"/>
      <point x="437" y="684" type="curve"/>
      <point x="432" y="689" type="line"/>
      <point x="357" y="685"/>
      <point x="312" y="684"/>
      <point x="258" y="684" type="curve" smooth="yes"/>
      <point x="203" y="684"/>
      <point x="159" y="685"/>
      <point x="84" y="689" type="curve"/>
      <point x="79" y="684" type="line"/>
      <point x="80" y="623"/>
      <point x="81" y="579"/>
      <point x="81" y="547" type="curve" smooth="yes"/>
      <point x="81" y="462"/>
      <point x="78" y="366"/>
      <point x="75" y="322" type="curve"/>
      <point x="95" y="316" type="line"/>
      <point x="142" y="363"/>
      <point x="169" y="377"/>
      <point x="218" y="377" type="curve" smooth="yes"/>
      <point x="314" y="377"/>
      <point x="374" y="309"/>
      <point x="374" y="201" type="curve" smooth="yes"/>
      <point x="374" y="90"/>
      <point x="310" y="25"/>
      <point x="201" y="25" type="curve" smooth="yes"/>
      <point x="147" y="25"/>
      <point x="97" y="43"/>
      <point x="83" y="69" type="curve" smooth="yes"/>
      <point x="37" y="151" type="line"/>
      <point x="13" y="137" type="line"/>
      <point x="36" y="80"/>
      <point x="48" y="48"/>
      <point x="62" y="4" type="curve"/>
      <point x="90" y="-11"/>
      <point x="130" y="-20"/>
      <point x="173" y="-20" type="curve" smooth="yes"/>
      <point x="240" y="-20"/>
      <point x="311" y="9"/>
      <point x="366" y="57" type="curve" smooth="yes"/>
      <point x="427" y="111"/>
      <point x="459" y="179"/>
      <point x="459" y="253" type="curve" smooth="yes"/>
      <point x="459" y="366"/>
      <point x="378" y="446"/>
      <point x="264" y="446" type="curve" smooth="yes"/>
      <point x="216" y="446"/>
      <point x="180" y="433"/>
      <point x="118" y="396" type="curve"/>
    </contour>
  </outline>
</glyph>
<glyph name="six" format="1">
  <advance width="500"/>
  <unicode hex="0036"/>
  <outline>
    <contour>
      <point x="416" y="672" type="line"/>
      <point x="379" y="689" type="line"/>
      <point x="283" y="657"/>
      <point x="242" y="637"/>
      <point x="191" y="593" type="curve" smooth="yes"/>
      <point x="88" y="506"/>
      <point x="32" y="384"/>
      <point x="32" y="247" type="curve" smooth="yes"/>
      <point x="32" y="82"/>
      <point x="112" y="-20"/>
      <point x="241" y="-20" type="curve" smooth="yes"/>
      <point x="371" y="-20"/>
      <point x="468" y="83"/>
      <point x="468" y="219" type="curve" smooth="yes"/>
      <point x="468" y="334"/>
      <point x="399" y="409"/>
      <point x="293" y="409" type="curve" smooth="yes"/>
      <point x="243" y="409"/>
      <point x="213" y="396"/>
      <point x="154" y="349" type="curve" smooth="yes"/>
      <point x="143" y="340"/>
      <point x="142" y="339"/>
      <point x="131" y="331" type="curve"/>
      <point x="152" y="512"/>
      <point x="236" y="610"/>
      <point x="416" y="664" type="curve"/>
    </contour>
    <contour>
      <point x="255" y="349" type="curve" smooth="yes"/>
      <point x="331" y="349"/>
      <point x="382" y="283"/>
      <point x="382" y="184" type="curve" smooth="yes"/>
      <point x="382" y="80"/>
      <point x="331" y="13"/>
      <point x="254" y="13" type="curve" smooth="yes"/>
      <point x="169" y="13"/>
      <point x="123" y="86"/>
      <point x="123" y="220" type="curve" smooth="yes"/>
      <point x="123" y="255"/>
      <point x="127" y="274"/>
      <point x="138" y="291" type="curve" smooth="yes"/>
      <point x="160" y="325"/>
      <point x="207" y="349"/>
    </contour>
  </outline>
</glyph>
<glyph name="seven" format="1">
  <advance width="500"/>
  <unicode hex="0037"/>
  <outline>
    <contour>
      <point x="56" y="10" type="line"/>
      <point x="65" y="-3" type="line"/>
      <point x="104" y="0"/>
      <point x="104" y="0"/>
      <point x="111" y="0" type="curve" smooth="yes"/>
      <point x="118" y="0"/>
      <point x="118" y="0"/>
      <point x="157" y="-3" type="curve"/>
      <point x="199" y="106"/>
      <point x="248" y="210"/>
      <point x="314" y="330" type="curve" smooth="yes"/>
      <point x="497" y="659" type="line"/>
      <point x="497" y="689" type="line"/>
      <point x="389" y="685"/>
      <point x="354" y="684"/>
      <point x="273" y="684" type="curve" smooth="yes"/>
      <point x="200" y="684"/>
      <point x="151" y="685"/>
      <point x="54" y="689" type="curve"/>
      <point x="44" y="684" type="line"/>
      <point x="47" y="589"/>
      <point x="47" y="589"/>
      <point x="47" y="579" type="curve" smooth="yes"/>
      <point x="47" y="568"/>
      <point x="47" y="568"/>
      <point x="44" y="477" type="curve"/>
      <point x="74" y="477" type="line"/>
      <point x="81" y="533" type="line" smooth="yes"/>
      <point x="89" y="595"/>
      <point x="96" y="603"/>
      <point x="142" y="603" type="curve" smooth="yes"/>
      <point x="409" y="603" type="line"/>
      <point x="369" y="521"/>
      <point x="338" y="463"/>
      <point x="300" y="402" type="curve" smooth="yes"/>
    </contour>
  </outline>
</glyph>
<glyph name="eight" format="1">
  <advance width="500"/>
  <unicode hex="0038"/>
  <outline>
    <contour>
      <point x="168" y="345" type="curve"/>
      <point x="127" y="326"/>
      <point x="110" y="315"/>
      <point x="88" y="294" type="curve" smooth="yes"/>
      <point x="50" y="256"/>
      <point x="30" y="211"/>
      <point x="30" y="159" type="curve" smooth="yes"/>
      <point x="30" y="56"/>
      <point x="113" y="-20"/>
      <point x="226" y="-20" type="curve" smooth="yes"/>
      <point x="356" y="-20"/>
      <point x="464" y="82"/>
      <point x="464" y="206" type="curve" smooth="yes"/>
      <point x="464" y="286"/>
      <point x="427" y="329"/>
      <point x="313" y="381" type="curve"/>
      <point x="404" y="443"/>
      <point x="436" y="485"/>
      <point x="436" y="545" type="curve" smooth="yes"/>
      <point x="436" y="631"/>
      <point x="365" y="689"/>
      <point x="259" y="689" type="curve" smooth="yes"/>
      <point x="140" y="689"/>
      <point x="53" y="613"/>
      <point x="53" y="508" type="curve" smooth="yes"/>
      <point x="53" y="440"/>
      <point x="80" y="402"/>
    </contour>
    <contour>
      <point x="284" y="295" type="line" smooth="yes"/>
      <point x="347" y="267"/>
      <point x="385" y="218"/>
      <point x="385" y="164" type="curve" smooth="yes"/>
      <point x="385" y="80"/>
      <point x="322" y="14"/>
      <point x="241" y="14" type="curve" smooth="yes"/>
      <point x="156" y="14"/>
      <point x="101" y="74"/>
      <point x="101" y="167" type="curve" smooth="yes"/>
      <point x="101" y="240"/>
      <point x="130" y="286"/>
      <point x="204" y="331" type="curve"/>
    </contour>
    <contour>
      <point x="223" y="423" type="line" smooth="yes"/>
      <point x="160" y="454"/>
      <point x="128" y="494"/>
      <point x="128" y="544" type="curve" smooth="yes"/>
      <point x="128" y="610"/>
      <point x="176" y="655"/>
      <point x="247" y="655" type="curve" smooth="yes"/>
      <point x="320" y="655"/>
      <point x="368" y="607"/>
      <point x="368" y="534" type="curve" smooth="yes"/>
      <point x="368" y="477"/>
      <point x="343" y="438"/>
      <point x="278" y="396" type="curve"/>
    </contour>
  </outline>
</glyph>
<glyph name="nine" format="1">
  <advance width="500"/>
  <unicode hex="0039"/>
  <outline>
    <contour>
      <point x="96" y="-20" type="line"/>
      <point x="207" y="16"/>
      <point x="255" y="39"/>
      <point x="309" y="85" type="curve" smooth="yes"/>
      <point x="406" y="168"/>
      <point x="457" y="283"/>
      <point x="457" y="417" type="curve" smooth="yes"/>
      <point x="457" y="586"/>
      <point x="376" y="689"/>
      <point x="244" y="689" type="curve" smooth="yes"/>
      <point x="116" y="689"/>
      <point x="20" y="589"/>
      <point x="20" y="455" type="curve" smooth="yes"/>
      <point x="20" y="340"/>
      <point x="95" y="256"/>
      <point x="199" y="256" type="curve" smooth="yes"/>
      <point x="233" y="256"/>
      <point x="272" y="267"/>
      <point x="290" y="282" type="curve" smooth="yes"/>
      <point x="360" y="340" type="line"/>
      <point x="352" y="172"/>
      <point x="243" y="49"/>
      <point x="62" y="5" type="curve"/>
      <point x="62" y="-3" type="line"/>
    </contour>
    <contour>
      <point x="240" y="656" type="curve" smooth="yes"/>
      <point x="285" y="656"/>
      <point x="318" y="637"/>
      <point x="340" y="597" type="curve" smooth="yes"/>
      <point x="358" y="565"/>
      <point x="370" y="516"/>
      <point x="370" y="471" type="curve" smooth="yes"/>
      <point x="370" y="379"/>
      <point x="317" y="317"/>
      <point x="240" y="317" type="curve" smooth="yes"/>
      <point x="160" y="317"/>
      <point x="106" y="388"/>
      <point x="106" y="492" type="curve" smooth="yes"/>
      <point x="106" y="593"/>
      <point x="158" y="656"/>
    </contour>
  </outline>
</glyph>
<glyph name="colon" format="1">
  <advance width="250"/>
  <unicode hex="003A"/>
  <outline>
    <contour>
      <point x="123" y="111" type="curve" smooth="yes"/>
      <point x="93" y="111"/>
      <point x="66" y="83"/>
      <point x="66" y="53" type="curve" smooth="yes"/>
      <point x="66" y="23"/>
      <point x="93" y="-5"/>
      <point x="122" y="-5" type="curve" smooth="yes"/>
      <point x="154" y="-5"/>
      <point x="182" y="22"/>
      <point x="182" y="53" type="curve" smooth="yes"/>
      <point x="182" y="83"/>
      <point x="154" y="111"/>
    </contour>
    <contour>
      <point x="123" y="456" type="curve" smooth="yes"/>
      <point x="93" y="456"/>
      <point x="66" y="428"/>
      <point x="66" y="398" type="curve" smooth="yes"/>
      <point x="66" y="368"/>
      <point x="93" y="340"/>
      <point x="122" y="340" type="curve" smooth="yes"/>
      <point x="154" y="340"/>
      <point x="182" y="367"/>
      <point x="182" y="397" type="curve" smooth="yes"/>
      <point x="182" y="428"/>
      <point x="154" y="456"/>
    </contour>
  </outline>
</glyph>
<glyph name="semicolon" format="1">
  <advance width="250"/>
  <unicode hex="003B"/>
  <outline>
    <contour>
      <point x="204" y="125" type="line"/>
      <point x="177" y="116"/>
      <point x="159" y="110"/>
      <point x="106" y="95" type="curve"/>
      <point x="99" y="19"/>
      <point x="74" y="-46"/>
      <point x="16" y="-142" type="curve"/>
      <point x="30" y="-153" type="line"/>
      <point x="71" y="-134" type="line"/>
      <point x="152" y="-29"/>
      <point x="190" y="34"/>
      <point x="218" y="111" type="curve"/>
    </contour>
    <contour>
      <point x="150" y="456" type="curve" smooth="yes"/>
      <point x="120" y="456"/>
      <point x="93" y="428"/>
      <point x="93" y="398" type="curve" smooth="yes"/>
      <point x="93" y="368"/>
      <point x="120" y="340"/>
      <point x="149" y="340" type="curve" smooth="yes"/>
      <point x="181" y="340"/>
      <point x="209" y="367"/>
      <point x="209" y="397" type="curve" smooth="yes"/>
      <point x="209" y="428"/>
      <point x="181" y="456"/>
    </contour>
  </outline>
</glyph>
<glyph name="less" format="1">
  <advance width="606"/>
  <unicode hex="003C"/>
  <outline>
    <contour>
      <point x="558" y="-2" type="line"/>
      <point x="558" y="62" type="line"/>
      <point x="129" y="259" type="line"/>
      <point x="558" y="460" type="line"/>
      <point x="558" y="524" type="line"/>
      <point x="57" y="290" type="line"/>
      <point x="57" y="232" type="line"/>
    </contour>
  </outline>
</glyph>
<glyph name="equal" format="1">
  <advance width="606"/>
  <unicode hex="003D"/>
  <outline>
    <contour>
      <point x="555" y="386" type="line"/>
      <point x="51" y="386" type="line"/>
      <point x="51" y="330" type="line"/>
      <point x="555" y="330" type="line"/>
    </contour>
    <contour>
      <point x="555" y="192" type="line"/>
      <point x="51" y="192" type="line"/>
      <point x="51" y="136" type="line"/>
      <point x="555" y="136" type="line"/>
    </contour>
  </outline>
</glyph>
<glyph name="greater" format="1">
  <advance width="606"/>
  <unicode hex="003E"/>
  <outline>
    <contour>
      <point x="48" y="-2" type="line"/>
      <point x="549" y="232" type="line"/>
      <point x="549" y="290" type="line"/>
      <point x="48" y="524" type="line"/>
      <point x="48" y="460" type="line"/>
      <point x="477" y="259" type="line"/>
      <point x="48" y="62" type="line"/>
    </contour>
  </outline>
</glyph>
<glyph name="question" format="1">
  <advance width="444"/>
  <unicode hex="003F"/>
  <outline>
    <contour>
      <point x="43" y="546" type="line"/>
      <point x="72" y="538" type="line"/>
      <point x="92" y="586" type="line" smooth="yes"/>
      <point x="103" y="613"/>
      <point x="134" y="628"/>
      <point x="179" y="628" type="curve" smooth="yes"/>
      <point x="251" y="628"/>
      <point x="302" y="583"/>
      <point x="302" y="519" type="curve" smooth="yes"/>
      <point x="302" y="479"/>
      <point x="284" y="447"/>
      <point x="225" y="382" type="curve" smooth="yes"/>
      <point x="164" y="315"/>
      <point x="148" y="288"/>
      <point x="148" y="254" type="curve" smooth="yes"/>
      <point x="148" y="224"/>
      <point x="162" y="200"/>
      <point x="192" y="181" type="curve"/>
      <point x="213" y="195" type="line"/>
      <point x="197" y="214"/>
      <point x="191" y="227"/>
      <point x="191" y="243" type="curve" smooth="yes"/>
      <point x="191" y="276"/>
      <point x="204" y="293"/>
      <point x="285" y="366" type="curve" smooth="yes"/>
      <point x="370" y="444"/>
      <point x="395" y="483"/>
      <point x="395" y="540" type="curve" smooth="yes"/>
      <point x="395" y="627"/>
      <point x="316" y="694"/>
      <point x="213" y="694" type="curve" smooth="yes"/>
      <point x="169" y="694"/>
      <point x="134" y="685"/>
      <point x="81" y="659" type="curve"/>
    </contour>
    <contour>
      <point x="198" y="111" type="curve" smooth="yes"/>
      <point x="168" y="111"/>
      <point x="141" y="83"/>
      <point x="141" y="53" type="curve" smooth="yes"/>
      <point x="141" y="23"/>
      <point x="168" y="-5"/>
      <point x="197" y="-5" type="curve" smooth="yes"/>
      <point x="229" y="-5"/>
      <point x="257" y="22"/>
      <point x="257" y="53" type="curve" smooth="yes"/>
      <point x="257" y="83"/>
      <point x="229" y="111"/>
    </contour>
  </outline>
</glyph>
<glyph name="at" format="1">
  <advance width="747"/>
  <unicode hex="0040"/>
  <outline>
    <contour>
      <point x="658" y="171" type="line"/>
      <point x="610" y="106"/>
      <point x="579" y="80"/>
      <point x="523" y="55" type="curve" smooth="yes"/>
      <point x="485" y="38"/>
      <point x="446" y="30"/>
      <point x="401" y="30" type="curve" smooth="yes"/>
      <point x="216" y="30"/>
      <point x="79" y="161"/>
      <point x="79" y="337" type="curve" smooth="yes"/>
      <point x="79" y="513"/>
      <point x="215" y="644"/>
      <point x="397" y="644" type="curve" smooth="yes"/>
      <point x="554" y="644"/>
      <point x="671" y="542"/>
      <point x="671" y="405" type="curve" smooth="yes"/>
      <point x="671" y="290"/>
      <point x="589" y="163"/>
      <point x="514" y="163" type="curve" smooth="yes"/>
      <point x="499" y="163"/>
      <point x="489" y="175"/>
      <point x="489" y="192" type="curve" smooth="yes"/>
      <point x="489" y="201"/>
      <point x="490" y="210"/>
      <point x="493" y="220" type="curve" smooth="yes"/>
      <point x="570" y="499" type="line"/>
      <point x="482" y="499" type="line"/>
      <point x="464" y="429" type="line"/>
      <point x="452" y="484"/>
      <point x="424" y="509"/>
      <point x="376" y="509" type="curve" smooth="yes"/>
      <point x="263" y="509"/>
      <point x="159" y="399"/>
      <point x="159" y="280" type="curve" smooth="yes"/>
      <point x="159" y="201"/>
      <point x="218" y="139"/>
      <point x="292" y="139" type="curve" smooth="yes"/>
      <point x="339" y="139"/>
      <point x="365" y="155"/>
      <point x="415" y="218" type="curve"/>
      <point x="420" y="164"/>
      <point x="447" y="134"/>
      <point x="491" y="134" type="curve" smooth="yes"/>
      <point x="607" y="134"/>
      <point x="724" y="272"/>
      <point x="724" y="409" type="curve" smooth="yes"/>
      <point x="724" y="569"/>
      <point x="579" y="694"/>
      <point x="393" y="694" type="curve" smooth="yes"/>
      <point x="185" y="694"/>
      <point x="24" y="535"/>
      <point x="24" y="331" type="curve" smooth="yes"/>
      <point x="24" y="134"/>
      <point x="186" y="-20"/>
      <point x="394" y="-20" type="curve" smooth="yes"/>
      <point x="487" y="-20"/>
      <point x="571" y="11"/>
      <point x="640" y="72" type="curve" smooth="yes"/>
      <point x="672" y="99"/>
      <point x="688" y="120"/>
      <point x="719" y="171" type="curve"/>
    </contour>
    <contour>
      <point x="393" y="482" type="curve" smooth="yes"/>
      <point x="424" y="480"/>
      <point x="445" y="451"/>
      <point x="445" y="410" type="curve" smooth="yes"/>
      <point x="445" y="359"/>
      <point x="424" y="283"/>
      <point x="396" y="234" type="curve" smooth="yes"/>
      <point x="371" y="189"/>
      <point x="341" y="166"/>
      <point x="308" y="166" type="curve" smooth="yes"/>
      <point x="272" y="166"/>
      <point x="248" y="201"/>
      <point x="248" y="254" type="curve" smooth="yes"/>
      <point x="248" y="303"/>
      <point x="273" y="377"/>
      <point x="305" y="424" type="curve" smooth="yes"/>
      <point x="332" y="463"/>
      <point x="364" y="484"/>
    </contour>
  </outline>
</glyph>
<glyph name="F" format="1">
  <advance width="556"/>
  <unicode hex="0046"/>
  <outline>
    <contour>
      <point x="216" y="327" type="line"/>
      <point x="244" y="329"/>
      <point x="274" y="330"/>
      <point x="319" y="330" type="curve" smooth="yes"/>
      <point x="393" y="330"/>
      <point x="420" y="327"/>
      <point x="438" y="318" type="curve"/>
      <point x="446" y="293" type="line"/>
      <point x="451" y="234" type="line"/>
      <point x="481" y="234" type="line"/>
      <point x="478" y="327"/>
      <point x="478" y="327"/>
      <point x="478" y="345" type="curve" smooth="yes"/>
      <point x="478" y="361"/>
      <point x="478" y="361"/>
      <point x="481" y="461" type="curve"/>
      <point x="451" y="461" type="line"/>
      <point x="446" y="409" type="line" smooth="yes"/>
      <point x="445" y="400"/>
      <point x="442" y="391"/>
      <point x="438" y="383" type="curve"/>
      <point x="420" y="375"/>
      <point x="392" y="372"/>
      <point x="326" y="372" type="curve" smooth="yes"/>
      <point x="284" y="372"/>
      <point x="250" y="373"/>
      <point x="216" y="375" type="curve"/>
      <point x="216" y="642" type="line"/>
      <point x="246" y="649"/>
      <point x="264" y="650"/>
      <point x="323" y="650" type="curve" smooth="yes"/>
      <point x="371" y="650"/>
      <point x="427" y="644"/>
      <point x="458" y="636" type="curve" smooth="yes"/>
      <point x="482" y="630"/>
      <point x="485" y="625"/>
      <point x="485" y="602" type="curve" smooth="yes"/>
      <point x="485" y="537" type="line"/>
      <point x="520" y="537" type="line"/>
      <point x="520" y="597"/>
      <point x="525" y="645"/>
      <point x="536" y="689" type="curve"/>
      <point x="487" y="691"/>
      <point x="457" y="692"/>
      <point x="414" y="692" type="curve" smooth="yes"/>
      <point x="307" y="691" type="line" smooth="yes"/>
      <point x="258" y="689"/>
      <point x="223" y="689"/>
      <point x="198" y="689" type="curve" smooth="yes"/>
      <point x="169" y="689"/>
      <point x="169" y="689"/>
      <point x="22" y="692" type="curve"/>
      <point x="22" y="662" type="line"/>
      <point x="70" y="659" type="line" smooth="yes"/>
      <point x="116" y="656"/>
      <point x="121" y="648"/>
      <point x="121" y="569" type="curve" smooth="yes"/>
      <point x="121" y="120" type="line" smooth="yes"/>
      <point x="121" y="41"/>
      <point x="116" y="33"/>
      <point x="70" y="30" type="curve" smooth="yes"/>
      <point x="22" y="27" type="line"/>
      <point x="22" y="-3" type="line"/>
      <point x="81" y="-1"/>
      <point x="116" y="0"/>
      <point x="168" y="0" type="curve" smooth="yes"/>
      <point x="220" y="0"/>
      <point x="256" y="-1"/>
      <point x="315" y="-3" type="curve"/>
      <point x="315" y="27" type="line"/>
      <point x="267" y="30" type="line" smooth="yes"/>
      <point x="221" y="33"/>
      <point x="216" y="41"/>
      <point x="216" y="120" type="curve" smooth="yes"/>
    </contour>
  </outline>
</glyph>
<glyph name="P" format="1">
  <advance width="604"/>
  <unicode hex="0050"/>
  <outline>
    <contour>
      <point x="216" y="642" type="line"/>
      <point x="251" y="650"/>
      <point x="280" y="654"/>
      <point x="314" y="654" type="curve" smooth="yes"/>
      <point x="422" y="654"/>
      <point x="480" y="604"/>
      <point x="480" y="509" type="curve" smooth="yes"/>
      <point x="480" y="419"/>
      <point x="419" y="356"/>
      <point x="332" y="356" type="curve" smooth="yes"/>
      <point x="311" y="356"/>
      <point x="296" y="358"/>
      <point x="270" y="366" type="curve"/>
      <point x="280" y="330" type="line"/>
      <point x="304" y="325"/>
      <point x="318" y="324"/>
      <point x="338" y="324" type="curve" smooth="yes"/>
      <point x="475" y="324"/>
      <point x="580" y="417"/>
      <point x="580" y="537" type="curve" smooth="yes"/>
      <point x="580" y="633"/>
      <point x="502" y="692"/>
      <point x="375" y="692" type="curve" smooth="yes"/>
      <point x="370" y="692"/>
      <point x="360" y="692"/>
      <point x="347" y="691" type="curve" smooth="yes"/>
      <point x="310" y="690"/>
      <point x="234" y="689"/>
      <point x="205" y="689" type="curve" smooth="yes"/>
      <point x="183" y="689"/>
      <point x="183" y="689"/>
      <point x="23" y="692" type="curve"/>
      <point x="23" y="662" type="line"/>
      <point x="68" y="659" type="line" smooth="yes"/>
      <point x="113" y="656"/>
      <point x="121" y="643"/>
      <point x="121" y="569" type="curve" smooth="yes"/>
      <point x="121" y="120" type="line" smooth="yes"/>
      <point x="121" y="41"/>
      <point x="116" y="33"/>
      <point x="70" y="30" type="curve" smooth="yes"/>
      <point x="22" y="27" type="line"/>
      <point x="22" y="-3" type="line"/>
      <point x="81" y="-1"/>
      <point x="116" y="0"/>
      <point x="168" y="0" type="curve" smooth="yes"/>
      <point x="220" y="0"/>
      <point x="256" y="-1"/>
      <point x="315" y="-3" type="curve"/>
      <point x="315" y="27" type="line"/>
      <point x="267" y="30" type="line" smooth="yes"/>
      <point x="221" y="33"/>
      <point x="216" y="41"/>
      <point x="216" y="120" type="curve" smooth="yes"/>
    </contour>
  </outline>
</glyph>
<glyph name="Q" format="1">
  <advance width="786"/>
  <unicode hex="0051"/>
  <outline>
    <contour>
      <point x="388" y="-19" type="line"/>
      <point x="372" y="-25" type="line"/>
      <point x="353" y="-31"/>
      <point x="319" y="-54"/>
      <point x="263" y="-97" type="curve"/>
      <point x="261" y="-129" type="line"/>
      <point x="320" y="-97" type="line" smooth="yes"/>
      <point x="332" y="-91"/>
      <point x="338" y="-89"/>
      <point x="348" y="-89" type="curve" smooth="yes"/>
      <point x="367" y="-89"/>
      <point x="395" y="-94"/>
      <point x="426" y="-104" type="curve" smooth="yes"/>
      <point x="574" y="-150" type="line" smooth="yes"/>
      <point x="609" y="-161"/>
      <point x="640" y="-168"/>
      <point x="680" y="-176" type="curve"/>
      <point x="764" y="-120" type="line"/>
      <point x="764" y="-99" type="line"/>
      <point x="725" y="-104"/>
      <point x="714" y="-105"/>
      <point x="705" y="-105" type="curve" smooth="yes"/>
      <point x="657" y="-105"/>
      <point x="602" y="-90"/>
      <point x="522" y="-56" type="curve" smooth="yes"/>
      <point x="460" y="-29"/>
      <point x="443" y="-24"/>
      <point x="401" y="-19" type="curve"/>
      <point x="480" y="-12"/>
      <point x="517" y="-1"/>
      <point x="569" y="28" type="curve" smooth="yes"/>
      <point x="690" y="98"/>
      <point x="764" y="227"/>
      <point x="764" y="371" type="curve" smooth="yes"/>
      <point x="764" y="578"/>
      <point x="622" y="709"/>
      <point x="398" y="709" type="curve" smooth="yes"/>
      <point x="174" y="709"/>
      <point x="22" y="561"/>
      <point x="22" y="343" type="curve" smooth="yes"/>
      <point x="22" y="124"/>
      <point x="162" y="-19"/>
      <point x="377" y="-19" type="curve" smooth="yes"/>
    </contour>
    <contour>
      <point x="385" y="667" type="curve" smooth="yes"/>
      <point x="557" y="667"/>
      <point x="657" y="545"/>
      <point x="657" y="335" type="curve" smooth="yes"/>
      <point x="657" y="135"/>
      <point x="569" y="23"/>
      <point x="412" y="23" type="curve" smooth="yes"/>
      <point x="327" y="23"/>
      <point x="259" y="55"/>
      <point x="209" y="117" type="curve" smooth="yes"/>
      <point x="159" y="180"/>
      <point x="129" y="276"/>
      <point x="129" y="375" type="curve" smooth="yes"/>
      <point x="129" y="563"/>
      <point x="220" y="667"/>
    </contour>
  </outline>
</glyph>
<glyph name="R" format="1">
  <advance width="668"/>
  <unicode hex="0052"/>
  <outline>
    <contour>
      <point x="216" y="642" type="line"/>
      <point x="250" y="650"/>
      <point x="280" y="654"/>
      <point x="314" y="654" type="curve" smooth="yes"/>
      <point x="418" y="654"/>
      <point x="476" y="606"/>
      <point x="476" y="521" type="curve" smooth="yes"/>
      <point x="476" y="429"/>
      <point x="403" y="371"/>
      <point x="287" y="371" type="curve" smooth="yes"/>
      <point x="280" y="371"/>
      <point x="271" y="371"/>
      <point x="258" y="372" type="curve"/>
      <point x="252" y="360" type="line"/>
      <point x="263" y="347"/>
      <point x="266" y="343"/>
      <point x="278" y="330" type="curve" smooth="yes"/>
      <point x="292" y="314"/>
      <point x="295" y="310"/>
      <point x="304" y="298" type="curve" smooth="yes"/>
      <point x="488" y="51" type="line" smooth="yes"/>
      <point x="494" y="43"/>
      <point x="500" y="35"/>
      <point x="506" y="28" type="curve"/>
      <point x="529" y="-3" type="line"/>
      <point x="576" y="0"/>
      <point x="586" y="0"/>
      <point x="597" y="0" type="curve" smooth="yes"/>
      <point x="606" y="0"/>
      <point x="606" y="0"/>
      <point x="669" y="-3" type="curve"/>
      <point x="669" y="27" type="line"/>
      <point x="637" y="30"/>
      <point x="621" y="36"/>
      <point x="608" y="53" type="curve" smooth="yes"/>
      <point x="381" y="349" type="line"/>
      <point x="437" y="363"/>
      <point x="463" y="374"/>
      <point x="496" y="397" type="curve" smooth="yes"/>
      <point x="548" y="434"/>
      <point x="576" y="484"/>
      <point x="576" y="542" type="curve" smooth="yes"/>
      <point x="576" y="638"/>
      <point x="506" y="692"/>
      <point x="382" y="692" type="curve" smooth="yes"/>
      <point x="366" y="692" type="line" smooth="yes"/>
      <point x="236" y="689"/>
      <point x="236" y="689"/>
      <point x="202" y="689" type="curve" smooth="yes"/>
      <point x="169" y="689"/>
      <point x="169" y="689"/>
      <point x="29" y="692" type="curve"/>
      <point x="29" y="662" type="line"/>
      <point x="70" y="659" type="line" smooth="yes"/>
      <point x="116" y="656"/>
      <point x="121" y="647"/>
      <point x="121" y="569" type="curve" smooth="yes"/>
      <point x="121" y="120" type="line" smooth="yes"/>
      <point x="121" y="41"/>
      <point x="116" y="33"/>
      <point x="70" y="30" type="curve" smooth="yes"/>
      <point x="22" y="27" type="line"/>
      <point x="22" y="-3" type="line"/>
      <point x="81" y="-1"/>
      <point x="116" y="0"/>
      <point x="168" y="0" type="curve" smooth="yes"/>
      <point x="220" y="0"/>
      <point x="256" y="-1"/>
      <point x="315" y="-3" type="curve"/>
      <point x="315" y="27" type="line"/>
      <point x="267" y="30" type="line" smooth="yes"/>
      <point x="221" y="33"/>
      <point x="216" y="41"/>
      <point x="216" y="120" type="curve" smooth="yes"/>
    </contour>
  </outline>
</glyph>
<glyph name="V" format="1">
  <advance width="722"/>
  <unicode hex="0056"/>
  <outline>
    <contour>
      <point x="274" y="662" type="line"/>
      <point x="274" y="692" type="line"/>
      <point x="164" y="689"/>
      <point x="164" y="689"/>
      <point x="141" y="689" type="curve" smooth="yes"/>
      <point x="118" y="689"/>
      <point x="118" y="689"/>
      <point x="8" y="692" type="curve"/>
      <point x="8" y="662" type="line"/>
      <point x="44" y="659" type="line" smooth="yes"/>
      <point x="65" y="657"/>
      <point x="75" y="648"/>
      <point x="88" y="618" type="curve" smooth="yes"/>
      <point x="276" y="156" type="line" smooth="yes"/>
      <point x="307" y="80"/>
      <point x="319" y="45"/>
      <point x="334" y="-9" type="curve"/>
      <point x="384" y="-9" type="line"/>
      <point x="403" y="53"/>
      <point x="415" y="86"/>
      <point x="448" y="166" type="curve" smooth="yes"/>
      <point x="622" y="587" type="line" smooth="yes"/>
      <point x="645" y="641"/>
      <point x="656" y="656"/>
      <point x="676" y="659" type="curve" smooth="yes"/>
      <point x="706" y="662" type="line"/>
      <point x="706" y="692" type="line"/>
      <point x="598" y="689" type="line" smooth="yes"/>
      <point x="580" y="689"/>
      <point x="557" y="690"/>
      <point x="528" y="691" type="curve" smooth="yes"/>
      <point x="523" y="691"/>
      <point x="506" y="691"/>
      <point x="490" y="692" type="curve"/>
      <point x="490" y="662" type="line"/>
      <point x="542" y="659" type="line" smooth="yes"/>
      <point x="564" y="658"/>
      <point x="577" y="648"/>
      <point x="577" y="633" type="curve" smooth="yes"/>
      <point x="577" y="623"/>
      <point x="574" y="609"/>
      <point x="568" y="594" type="curve" smooth="yes"/>
      <point x="385" y="121" type="line"/>
      <point x="188" y="628" type="line"/>
      <point x="187" y="632"/>
      <point x="186" y="635"/>
      <point x="186" y="639" type="curve" smooth="yes"/>
      <point x="186" y="651"/>
      <point x="198" y="658"/>
      <point x="218" y="659" type="curve" smooth="yes"/>
    </contour>
  </outline>
</glyph>
<glyph name="W" format="1">
  <advance width="1000"/>
  <unicode hex="0057"/>
  <outline>
    <contour>
      <point x="734" y="-9" type="line"/>
      <point x="738" y="6"/>
      <point x="741" y="20"/>
      <point x="742" y="25" type="curve"/>
      <point x="745" y="35"/>
      <point x="753" y="65"/>
      <point x="761" y="92" type="curve" smooth="yes"/>
      <point x="914" y="630" type="line" smooth="yes"/>
      <point x="920" y="648"/>
      <point x="930" y="657"/>
      <point x="952" y="659" type="curve" smooth="yes"/>
      <point x="984" y="662" type="line"/>
      <point x="984" y="692" type="line"/>
      <point x="984" y="692"/>
      <point x="879" y="689"/>
      <point x="879" y="689" type="curve"/>
      <point x="869" y="689"/>
      <point x="869" y="689"/>
      <point x="774" y="692" type="curve"/>
      <point x="774" y="662" type="line"/>
      <point x="814" y="659" type="line" smooth="yes"/>
      <point x="849" y="656"/>
      <point x="860" y="651"/>
      <point x="861" y="635" type="curve"/>
      <point x="861" y="632"/>
      <point x="861" y="629"/>
      <point x="860" y="626" type="curve"/>
      <point x="728" y="137" type="line"/>
      <point x="564" y="598" type="line" smooth="yes"/>
      <point x="542" y="658"/>
      <point x="539" y="666"/>
      <point x="531" y="700" type="curve"/>
      <point x="499" y="700" type="line"/>
      <point x="478" y="638"/>
      <point x="461" y="593"/>
      <point x="409" y="459" type="curve" smooth="yes"/>
      <point x="285" y="144" type="line"/>
      <point x="185" y="593" type="line" smooth="yes"/>
      <point x="182" y="605"/>
      <point x="181" y="616"/>
      <point x="181" y="626" type="curve" smooth="yes"/>
      <point x="181" y="648"/>
      <point x="191" y="657"/>
      <point x="218" y="659" type="curve" smooth="yes"/>
      <point x="260" y="662" type="line"/>
      <point x="260" y="692" type="line"/>
      <point x="260" y="692"/>
      <point x="134" y="689"/>
      <point x="134" y="689" type="curve"/>
      <point x="127" y="689"/>
      <point x="85" y="690"/>
      <point x="8" y="692" type="curve"/>
      <point x="8" y="662" type="line"/>
      <point x="36" y="659" type="line" smooth="yes"/>
      <point x="65" y="656"/>
      <point x="77" y="645"/>
      <point x="86" y="609" type="curve" smooth="yes"/>
      <point x="205" y="94" type="line"/>
      <point x="228" y="-9" type="line"/>
      <point x="278" y="-9" type="line"/>
      <point x="287" y="23"/>
      <point x="295" y="47"/>
      <point x="314" y="94" type="curve" smooth="yes"/>
      <point x="488" y="536" type="line"/>
      <point x="613" y="197" type="line" smooth="yes"/>
      <point x="646" y="108"/>
      <point x="649" y="100"/>
      <point x="684" y="-9" type="curve"/>
    </contour>
  </outline>
</glyph>
<glyph name="bracketleft" format="1">
  <advance width="333"/>
  <unicode hex="005B"/>
  <outline>
    <contour>
      <point x="88" y="-184" type="line"/>
      <point x="159" y="-182"/>
      <point x="161" y="-182"/>
      <point x="185" y="-182" type="curve" smooth="yes"/>
      <point x="209" y="-182"/>
      <point x="214" y="-182"/>
      <point x="282" y="-184" type="curve"/>
      <point x="288" y="-178" type="line"/>
      <point x="288" y="-152" type="line"/>
      <point x="284" y="-147" type="line"/>
      <point x="246" y="-147" type="line" smooth="yes"/>
      <point x="219" y="-147"/>
      <point x="197" y="-141"/>
      <point x="185" y="-131" type="curve"/>
      <point x="176" y="-122"/>
      <point x="173" y="-108"/>
      <point x="173" y="-75" type="curve" smooth="yes"/>
      <point x="173" y="-74"/>
      <point x="173" y="-53"/>
      <point x="172" y="-23" type="curve" smooth="yes"/>
      <point x="172" y="14" type="line"/>
      <point x="172" y="528" type="line"/>
      <point x="172" y="565" type="line" smooth="yes"/>
      <point x="173" y="593"/>
      <point x="173" y="615"/>
      <point x="173" y="616" type="curve" smooth="yes"/>
      <point x="173" y="649"/>
      <point x="176" y="664"/>
      <point x="185" y="673" type="curve"/>
      <point x="197" y="683"/>
      <point x="219" y="689"/>
      <point x="246" y="689" type="curve" smooth="yes"/>
      <point x="284" y="689" type="line"/>
      <point x="288" y="694" type="line"/>
      <point x="288" y="720" type="line"/>
      <point x="282" y="726" type="line"/>
      <point x="212" y="724"/>
      <point x="209" y="724"/>
      <point x="185" y="724" type="curve" smooth="yes"/>
      <point x="162" y="724"/>
      <point x="157" y="724"/>
      <point x="88" y="726" type="curve"/>
      <point x="79" y="713" type="line"/>
      <point x="85" y="688"/>
      <point x="87" y="655"/>
      <point x="87" y="578" type="curve" smooth="yes"/>
      <point x="87" y="563"/>
      <point x="87" y="551"/>
      <point x="88" y="541" type="curve"/>
      <point x="88" y="528" type="line"/>
      <point x="88" y="14" type="line"/>
      <point x="88" y="1" type="line"/>
      <point x="87" y="-15"/>
      <point x="87" y="-16"/>
      <point x="87" y="-33" type="curve" smooth="yes"/>
      <point x="87" y="-44" type="line" smooth="yes"/>
      <point x="87" y="-112"/>
      <point x="85" y="-140"/>
      <point x="79" y="-171" type="curve"/>
    </contour>
  </outline>
</glyph>
<glyph name="backslash" format="1">
  <advance width="606"/>
  <unicode hex="005C"/>
  <outline>
    <contour>
      <point x="81" y="726" type="line"/>
      <point x="453" y="0" type="line"/>
      <point x="512" y="0" type="line"/>
      <point x="140" y="726" type="line"/>
    </contour>
  </outline>
</glyph>
<glyph name="bracketright" format="1">
  <advance width="333"/>
  <unicode hex="005D"/>
  <outline>
    <contour>
      <point x="245" y="726" type="line"/>
      <point x="174" y="724"/>
      <point x="171" y="724"/>
      <point x="148" y="724" type="curve" smooth="yes"/>
      <point x="124" y="724"/>
      <point x="119" y="724"/>
      <point x="51" y="726" type="curve"/>
      <point x="45" y="720" type="line"/>
      <point x="45" y="694" type="line"/>
      <point x="49" y="689" type="line"/>
      <point x="87" y="689" type="line" smooth="yes"/>
      <point x="114" y="689"/>
      <point x="135" y="683"/>
      <point x="147" y="673" type="curve" smooth="yes"/>
      <point x="157" y="664"/>
      <point x="160" y="650"/>
      <point x="160" y="616" type="curve" smooth="yes"/>
      <point x="160" y="613"/>
      <point x="160" y="593"/>
      <point x="161" y="565" type="curve" smooth="yes"/>
      <point x="161" y="528" type="line"/>
      <point x="161" y="14" type="line"/>
      <point x="161" y="-23" type="line"/>
      <point x="160" y="-52"/>
      <point x="160" y="-70"/>
      <point x="160" y="-73" type="curve" smooth="yes"/>
      <point x="160" y="-107"/>
      <point x="157" y="-122"/>
      <point x="147" y="-131" type="curve" smooth="yes"/>
      <point x="135" y="-141"/>
      <point x="114" y="-147"/>
      <point x="87" y="-147" type="curve" smooth="yes"/>
      <point x="49" y="-147" type="line"/>
      <point x="45" y="-152" type="line"/>
      <point x="45" y="-178" type="line"/>
      <point x="51" y="-184" type="line"/>
      <point x="121" y="-182"/>
      <point x="123" y="-182"/>
      <point x="148" y="-182" type="curve" smooth="yes"/>
      <point x="171" y="-182"/>
      <point x="176" y="-182"/>
      <point x="245" y="-184" type="curve"/>
      <point x="254" y="-171" type="line"/>
      <point x="248" y="-147"/>
      <point x="247" y="-116"/>
      <point x="246" y="-39" type="curve" smooth="yes"/>
      <point x="246" y="-25"/>
      <point x="246" y="-12"/>
      <point x="245" y="1" type="curve"/>
      <point x="245" y="14" type="line"/>
      <point x="245" y="528" type="line"/>
      <point x="245" y="541" type="line"/>
      <point x="246" y="552"/>
      <point x="246" y="565"/>
      <point x="246" y="579" type="curve" smooth="yes"/>
      <point x="246" y="656"/>
      <point x="248" y="689"/>
      <point x="254" y="713" type="curve"/>
    </contour>
  </outline>
</glyph>
<glyph name="asciicircum" format="1">
  <advance width="606"/>
  <unicode hex="005E"/>
  <outline>
    <contour>
      <point x="119" y="283" type="line"/>
      <point x="303" y="621" type="line"/>
      <point x="486" y="283" type="line"/>
      <point x="554" y="283" type="line"/>
      <point x="336" y="689" type="line"/>
      <point x="270" y="689" type="line"/>
      <point x="51" y="283" type="line"/>
    </contour>
  </outline>
</glyph>
<glyph name="grave" format="1">
  <advance width="333"/>
  <unicode hex="0060"/>
  <outline>
    <contour>
      <point x="215" y="506" type="line"/>
      <point x="255" y="506" type="line"/>
      <point x="117" y="644" type="line" smooth="yes"/>
      <point x="96" y="665"/>
      <point x="76" y="677"/>
      <point x="62" y="677" type="curve" smooth="yes"/>
      <point x="45" y="677"/>
      <point x="31" y="662"/>
      <point x="31" y="643" type="curve" smooth="yes"/>
      <point x="31" y="625"/>
      <point x="38" y="617"/>
      <point x="71" y="596" type="curve" smooth="yes"/>
    </contour>
  </outline>
</glyph>
<glyph name="a" format="1">
  <advance width="500"/>
  <unicode hex="0061"/>
  <outline>
    <contour>
      <point x="324" y="82" type="line"/>
      <point x="319" y="-3" type="line"/>
      <point x="384" y="0"/>
      <point x="384" y="0"/>
      <point x="397" y="0" type="curve" smooth="yes"/>
      <point x="402" y="0"/>
      <point x="427" y="-1"/>
      <point x="471" y="-3" type="curve"/>
      <point x="471" y="27" type="line"/>
      <point x="432" y="29" type="line" smooth="yes"/>
      <point x="408" y="30"/>
      <point x="404" y="38"/>
      <point x="404" y="87" type="curve" smooth="yes"/>
      <point x="404" y="270" type="line" smooth="yes"/>
      <point x="404" y="416"/>
      <point x="362" y="469"/>
      <point x="246" y="469" type="curve" smooth="yes"/>
      <point x="203" y="469"/>
      <point x="163" y="458"/>
      <point x="125" y="435" type="curve" smooth="yes"/>
      <point x="72" y="403" type="line"/>
      <point x="72" y="338" type="line"/>
      <point x="98" y="331" type="line"/>
      <point x="111" y="362" type="line" smooth="yes"/>
      <point x="132" y="409"/>
      <point x="142" y="416"/>
      <point x="188" y="416" type="curve" smooth="yes"/>
      <point x="282" y="416"/>
      <point x="321" y="379"/>
      <point x="324" y="288" type="curve"/>
      <point x="225" y="270" type="line" smooth="yes"/>
      <point x="89" y="245"/>
      <point x="32" y="198"/>
      <point x="32" y="111" type="curve" smooth="yes"/>
      <point x="32" y="33"/>
      <point x="79" y="-12"/>
      <point x="158" y="-12" type="curve" smooth="yes"/>
      <point x="176" y="-12"/>
      <point x="193" y="-9"/>
      <point x="200" y="-4" type="curve" smooth="yes"/>
    </contour>
    <contour>
      <point x="324" y="124" type="line"/>
      <point x="295" y="83"/>
      <point x="232" y="45"/>
      <point x="193" y="45" type="curve" smooth="yes"/>
      <point x="153" y="45"/>
      <point x="118" y="82"/>
      <point x="118" y="125" type="curve" smooth="yes"/>
      <point x="118" y="162"/>
      <point x="138" y="197"/>
      <point x="168" y="216" type="curve" smooth="yes"/>
      <point x="193" y="231"/>
      <point x="248" y="245"/>
      <point x="324" y="256" type="curve"/>
    </contour>
  </outline>
</glyph>
<glyph name="b" format="1">
  <advance width="553"/>
  <unicode hex="0062"/>
  <outline>
    <contour>
      <point x="150" y="718" type="line"/>
      <point x="141" y="726" type="line"/>
      <point x="97" y="709"/>
      <point x="64" y="701"/>
      <point x="-15" y="689" type="curve"/>
      <point x="-15" y="661" type="line"/>
      <point x="41" y="661" type="line" smooth="yes"/>
      <point x="59" y="661"/>
      <point x="66" y="650"/>
      <point x="66" y="620" type="curve" smooth="yes"/>
      <point x="66" y="153" type="line" smooth="yes"/>
      <point x="66" y="91"/>
      <point x="65" y="64"/>
      <point x="58" y="-6" type="curve"/>
      <point x="74" y="-12" type="line"/>
      <point x="114" y="24" type="line"/>
      <point x="154" y="-2"/>
      <point x="190" y="-12"/>
      <point x="243" y="-12" type="curve" smooth="yes"/>
      <point x="282" y="-12"/>
      <point x="308" y="-5"/>
      <point x="329" y="10" type="curve" smooth="yes"/>
      <point x="429" y="82" type="line" smooth="yes"/>
      <point x="473" y="114"/>
      <point x="508" y="197"/>
      <point x="508" y="270" type="curve" smooth="yes"/>
      <point x="508" y="386"/>
      <point x="433" y="469"/>
      <point x="327" y="469" type="curve" smooth="yes"/>
      <point x="280" y="469"/>
      <point x="231" y="451"/>
      <point x="205" y="425" type="curve" smooth="yes"/>
      <point x="150" y="369" type="line"/>
    </contour>
    <contour>
      <point x="150" y="308" type="line" smooth="yes"/>
      <point x="150" y="322"/>
      <point x="160" y="340"/>
      <point x="176" y="358" type="curve" smooth="yes"/>
      <point x="204" y="387"/>
      <point x="243" y="404"/>
      <point x="284" y="404" type="curve" smooth="yes"/>
      <point x="368" y="404"/>
      <point x="421" y="336"/>
      <point x="421" y="229" type="curve" smooth="yes"/>
      <point x="421" y="117"/>
      <point x="361" y="39"/>
      <point x="276" y="39" type="curve" smooth="yes"/>
      <point x="224" y="39"/>
      <point x="150" y="71"/>
      <point x="150" y="93" type="curve" smooth="yes"/>
    </contour>
  </outline>
</glyph>
<glyph name="c" format="1">
  <advance width="444"/>
  <unicode hex="0063"/>
  <outline>
    <contour>
      <point x="399" y="311" type="line"/>
      <point x="399" y="357"/>
      <point x="404" y="398"/>
      <point x="413" y="434" type="curve"/>
      <point x="373" y="458"/>
      <point x="338" y="469"/>
      <point x="297" y="469" type="curve" smooth="yes"/>
      <point x="249" y="469"/>
      <point x="193" y="450"/>
      <point x="133" y="412" type="curve" smooth="yes"/>
      <point x="63" y="368"/>
      <point x="26" y="298"/>
      <point x="26" y="210" type="curve" smooth="yes"/>
      <point x="26" y="75"/>
      <point x="121" y="-20"/>
      <point x="255" y="-20" type="curve" smooth="yes"/>
      <point x="307" y="-20"/>
      <point x="382" y="-1"/>
      <point x="392" y="14" type="curve" smooth="yes"/>
      <point x="413" y="46" type="line"/>
      <point x="403" y="61" type="line"/>
      <point x="366" y="41"/>
      <point x="334" y="32"/>
      <point x="298" y="32" type="curve" smooth="yes"/>
      <point x="187" y="32"/>
      <point x="114" y="118"/>
      <point x="114" y="250" type="curve" smooth="yes"/>
      <point x="114" y="357"/>
      <point x="164" y="417"/>
      <point x="254" y="417" type="curve" smooth="yes"/>
      <point x="298" y="417"/>
      <point x="346" y="397"/>
      <point x="364" y="372" type="curve"/>
      <point x="371" y="311" type="line"/>
    </contour>
  </outline>
</glyph>
<glyph name="f" format="1">
  <advance width="333"/>
  <unicode hex="0066"/>
  <outline>
    <contour>
      <point x="341" y="717" type="line"/>
      <point x="320" y="725"/>
      <point x="308" y="728"/>
      <point x="295" y="728" type="curve" smooth="yes"/>
      <point x="263" y="728"/>
      <point x="228" y="711"/>
      <point x="206" y="686" type="curve" smooth="yes"/>
      <point x="148" y="620" type="line" smooth="yes"/>
      <point x="119" y="587"/>
      <point x="106" y="542"/>
      <point x="106" y="476" type="curve" smooth="yes"/>
      <point x="106" y="434" type="line"/>
      <point x="37" y="403" type="line"/>
      <point x="37" y="381" type="line"/>
      <point x="106" y="385" type="line"/>
      <point x="106" y="102" type="line" smooth="yes"/>
      <point x="106" y="39"/>
      <point x="103" y="32"/>
      <point x="69" y="30" type="curve" smooth="yes"/>
      <point x="23" y="27" type="line"/>
      <point x="23" y="-3" type="line"/>
      <point x="123" y="0"/>
      <point x="123" y="0"/>
      <point x="148" y="0" type="curve" smooth="yes"/>
      <point x="173" y="0"/>
      <point x="173" y="0"/>
      <point x="273" y="-3" type="curve"/>
      <point x="273" y="27" type="line"/>
      <point x="227" y="30" type="line" smooth="yes"/>
      <point x="193" y="32"/>
      <point x="190" y="39"/>
      <point x="190" y="102" type="curve" smooth="yes"/>
      <point x="190" y="385" type="line"/>
      <point x="314" y="385" type="line"/>
      <point x="321" y="438" type="line"/>
      <point x="190" y="434" type="line"/>
      <point x="190" y="519" type="line" smooth="yes"/>
      <point x="190" y="634"/>
      <point x="203" y="662"/>
      <point x="260" y="662" type="curve" smooth="yes"/>
      <point x="287" y="662"/>
      <point x="305" y="655"/>
      <point x="329" y="634" type="curve"/>
      <point x="341" y="640" type="line"/>
    </contour>
  </outline>
</glyph>
<glyph name="j" format="1">
  <advance width="234"/>
  <unicode hex="006A"/>
  <outline>
    <contour>
      <point x="159" y="465" type="line"/>
      <point x="150" y="469" type="line"/>
      <point x="99" y="448"/>
      <point x="47" y="434"/>
      <point x="-6" y="428" type="curve"/>
      <point x="-6" y="400" type="line"/>
      <point x="31" y="400" type="line" smooth="yes"/>
      <point x="71" y="400"/>
      <point x="75" y="393"/>
      <point x="75" y="327" type="curve" smooth="yes"/>
      <point x="75" y="-7" type="line" smooth="yes"/>
      <point x="75" y="-106"/>
      <point x="65" y="-177"/>
      <point x="46" y="-210" type="curve" smooth="yes"/>
      <point x="34" y="-233"/>
      <point x="11" y="-248"/>
      <point x="-10" y="-248" type="curve" smooth="yes"/>
      <point x="-16" y="-248"/>
      <point x="-32" y="-246"/>
      <point x="-40" y="-245" type="curve"/>
      <point x="-28" y="-283" type="line"/>
      <point x="30" y="-279"/>
      <point x="68" y="-258"/>
      <point x="106" y="-208" type="curve" smooth="yes"/>
      <point x="141" y="-162"/>
      <point x="159" y="-98"/>
      <point x="159" y="-19" type="curve" smooth="yes"/>
    </contour>
    <contour>
      <point x="112" y="688" type="curve" smooth="yes"/>
      <point x="83" y="688"/>
      <point x="56" y="661"/>
      <point x="56" y="633" type="curve" smooth="yes"/>
      <point x="56" y="604"/>
      <point x="83" y="577"/>
      <point x="111" y="577" type="curve" smooth="yes"/>
      <point x="141" y="577"/>
      <point x="167" y="603"/>
      <point x="167" y="633" type="curve" smooth="yes"/>
      <point x="167" y="662"/>
      <point x="141" y="688"/>
    </contour>
  </outline>
</glyph>
<glyph name="k" format="1">
  <advance width="556"/>
  <unicode hex="006B"/>
  <outline>
    <contour>
      <point x="23" y="661" type="line"/>
      <point x="79" y="661" type="line" smooth="yes"/>
      <point x="97" y="661"/>
      <point x="104" y="650"/>
      <point x="104" y="620" type="curve" smooth="yes"/>
      <point x="104" y="102" type="line" smooth="yes"/>
      <point x="104" y="39"/>
      <point x="101" y="32"/>
      <point x="67" y="30" type="curve" smooth="yes"/>
      <point x="21" y="27" type="line"/>
      <point x="21" y="-3" type="line"/>
      <point x="121" y="0"/>
      <point x="121" y="0"/>
      <point x="147" y="0" type="curve" smooth="yes"/>
      <point x="175" y="0"/>
      <point x="180" y="0"/>
      <point x="269" y="-3" type="curve"/>
      <point x="269" y="27" type="line"/>
      <point x="225" y="30" type="line" smooth="yes"/>
      <point x="191" y="32"/>
      <point x="188" y="39"/>
      <point x="188" y="102" type="curve" smooth="yes"/>
      <point x="188" y="240" type="line"/>
      <point x="453" y="-12" type="line"/>
      <point x="549" y="17" type="line"/>
      <point x="549" y="40" type="line"/>
      <point x="525" y="40"/>
      <point x="496" y="57"/>
      <point x="464" y="88" type="curve" smooth="yes"/>
      <point x="338" y="213" type="line" smooth="yes"/>
      <point x="302" y="248"/>
      <point x="291" y="261"/>
      <point x="274" y="281" type="curve"/>
      <point x="403" y="382" type="line" smooth="yes"/>
      <point x="450" y="418"/>
      <point x="477" y="430"/>
      <point x="511" y="429" type="curve"/>
      <point x="511" y="459" type="line"/>
      <point x="411" y="459" type="line"/>
      <point x="347" y="395"/>
      <point x="300" y="351"/>
      <point x="261" y="320" type="curve" smooth="yes"/>
      <point x="188" y="261" type="line"/>
      <point x="188" y="718" type="line"/>
      <point x="179" y="726" type="line"/>
      <point x="135" y="709"/>
      <point x="102" y="701"/>
      <point x="23" y="689" type="curve"/>
    </contour>
  </outline>
</glyph>
<glyph name="m" format="1">
  <advance width="883"/>
  <unicode hex="006D"/>
  <outline>
    <contour>
      <point x="18" y="400" type="line"/>
      <point x="55" y="400" type="line" smooth="yes"/>
      <point x="95" y="400"/>
      <point x="99" y="393"/>
      <point x="99" y="327" type="curve" smooth="yes"/>
      <point x="99" y="102" type="line" smooth="yes"/>
      <point x="99" y="39"/>
      <point x="96" y="32"/>
      <point x="62" y="30" type="curve" smooth="yes"/>
      <point x="16" y="27" type="line"/>
      <point x="16" y="-3" type="line"/>
      <point x="112" y="0"/>
      <point x="115" y="0"/>
      <point x="143" y="0" type="curve" smooth="yes"/>
      <point x="171" y="0"/>
      <point x="197" y="-1"/>
      <point x="262" y="-3" type="curve"/>
      <point x="262" y="27" type="line"/>
      <point x="220" y="30" type="line" smooth="yes"/>
      <point x="186" y="32"/>
      <point x="183" y="39"/>
      <point x="183" y="102" type="curve" smooth="yes"/>
      <point x="183" y="314" type="line" smooth="yes"/>
      <point x="183" y="359"/>
      <point x="249" y="408"/>
      <point x="309" y="408" type="curve" smooth="yes"/>
      <point x="363" y="408"/>
      <point x="400" y="357"/>
      <point x="400" y="281" type="curve" smooth="yes"/>
      <point x="400" y="102" type="line" smooth="yes"/>
      <point x="400" y="39"/>
      <point x="397" y="32"/>
      <point x="363" y="30" type="curve" smooth="yes"/>
      <point x="317" y="27" type="line"/>
      <point x="317" y="-3" type="line"/>
      <point x="417" y="0"/>
      <point x="417" y="0"/>
      <point x="442" y="0" type="curve" smooth="yes"/>
      <point x="467" y="0"/>
      <point x="467" y="0"/>
      <point x="567" y="-3" type="curve"/>
      <point x="567" y="27" type="line"/>
      <point x="521" y="30" type="line" smooth="yes"/>
      <point x="487" y="32"/>
      <point x="484" y="39"/>
      <point x="484" y="102" type="curve" smooth="yes"/>
      <point x="484" y="314" type="line" smooth="yes"/>
      <point x="484" y="359"/>
      <point x="550" y="408"/>
      <point x="610" y="408" type="curve" smooth="yes"/>
      <point x="664" y="408"/>
      <point x="701" y="357"/>
      <point x="701" y="281" type="curve" smooth="yes"/>
      <point x="701" y="-3" type="line"/>
      <point x="762" y="0"/>
      <point x="763" y="0"/>
      <point x="780" y="0" type="curve" smooth="yes"/>
      <point x="793" y="0"/>
      <point x="793" y="0"/>
      <point x="869" y="-3" type="curve"/>
      <point x="869" y="27" type="line"/>
      <point x="822" y="30" type="line" smooth="yes"/>
      <point x="788" y="32"/>
      <point x="785" y="39"/>
      <point x="785" y="102" type="curve" smooth="yes"/>
      <point x="785" y="308" type="line" smooth="yes"/>
      <point x="785" y="407"/>
      <point x="727" y="469"/>
      <point x="635" y="469" type="curve" smooth="yes"/>
      <point x="600" y="469"/>
      <point x="571" y="460"/>
      <point x="553" y="444" type="curve" smooth="yes"/>
      <point x="477" y="376" type="line"/>
      <point x="445" y="442"/>
      <point x="404" y="469"/>
      <point x="335" y="469" type="curve" smooth="yes"/>
      <point x="298" y="469"/>
      <point x="270" y="460"/>
      <point x="252" y="444" type="curve" smooth="yes"/>
      <point x="183" y="380" type="line"/>
      <point x="183" y="465" type="line"/>
      <point x="174" y="469" type="line"/>
      <point x="123" y="448"/>
      <point x="71" y="434"/>
      <point x="18" y="428" type="curve"/>
    </contour>
  </outline>
</glyph>
<glyph name="q" format="1">
  <advance width="560"/>
  <unicode hex="0071"/>
  <outline>
    <contour>
      <point x="393" y="66" type="line"/>
      <point x="393" y="-176" type="line" smooth="yes"/>
      <point x="393" y="-239"/>
      <point x="389" y="-246"/>
      <point x="356" y="-248" type="curve" smooth="yes"/>
      <point x="298" y="-251" type="line"/>
      <point x="298" y="-281" type="line"/>
      <point x="414" y="-278"/>
      <point x="414" y="-278"/>
      <point x="437" y="-278" type="curve" smooth="yes"/>
      <point x="461" y="-278"/>
      <point x="489" y="-279"/>
      <point x="560" y="-281" type="curve"/>
      <point x="560" y="-251" type="line"/>
      <point x="514" y="-248" type="line" smooth="yes"/>
      <point x="480" y="-246"/>
      <point x="477" y="-239"/>
      <point x="477" y="-176" type="curve" smooth="yes"/>
      <point x="477" y="318" type="line" smooth="yes"/>
      <point x="477" y="380"/>
      <point x="483" y="418"/>
      <point x="500" y="456" type="curve"/>
      <point x="481" y="467" type="line"/>
      <point x="432" y="436" type="line"/>
      <point x="381" y="459"/>
      <point x="338" y="469"/>
      <point x="295" y="469" type="curve" smooth="yes"/>
      <point x="266" y="469"/>
      <point x="231" y="461"/>
      <point x="216" y="452" type="curve" smooth="yes"/>
      <point x="132" y="398" type="line" smooth="yes"/>
      <point x="68" y="357"/>
      <point x="35" y="291"/>
      <point x="35" y="204" type="curve" smooth="yes"/>
      <point x="35" y="73"/>
      <point x="114" y="-12"/>
      <point x="238" y="-12" type="curve" smooth="yes"/>
      <point x="259" y="-12"/>
      <point x="276" y="-8"/>
      <point x="289" y="0" type="curve" smooth="yes"/>
    </contour>
    <contour>
      <point x="393" y="120" type="line" smooth="yes"/>
      <point x="393" y="106"/>
      <point x="369" y="80"/>
      <point x="342" y="65" type="curve" smooth="yes"/>
      <point x="318" y="52"/>
      <point x="295" y="45"/>
      <point x="271" y="45" type="curve" smooth="yes"/>
      <point x="183" y="45"/>
      <point x="122" y="127"/>
      <point x="122" y="248" type="curve" smooth="yes"/>
      <point x="122" y="358"/>
      <point x="178" y="422"/>
      <point x="274" y="422" type="curve" smooth="yes"/>
      <point x="323" y="422"/>
      <point x="358" y="410"/>
      <point x="393" y="381" type="curve"/>
    </contour>
  </outline>
</glyph>
<glyph name="w" format="1">
  <advance width="834"/>
  <unicode hex="0077"/>
  <outline>
    <contour>
      <point x="413" y="469" type="line"/>
      <point x="254" y="104" type="line"/>
      <point x="170" y="380" type="line" smooth="yes"/>
      <point x="167" y="389"/>
      <point x="166" y="397"/>
      <point x="166" y="405" type="curve" smooth="yes"/>
      <point x="166" y="420"/>
      <point x="179" y="428"/>
      <point x="204" y="429" type="curve" smooth="yes"/>
      <point x="244" y="431" type="line"/>
      <point x="244" y="459" type="line"/>
      <point x="145" y="456"/>
      <point x="145" y="456"/>
      <point x="125" y="456" type="curve" smooth="yes"/>
      <point x="105" y="456"/>
      <point x="105" y="456"/>
      <point x="6" y="459" type="curve"/>
      <point x="6" y="431" type="line"/>
      <point x="34" y="429" type="line" smooth="yes"/>
      <point x="62" y="427"/>
      <point x="75" y="407"/>
      <point x="100" y="329" type="curve" smooth="yes"/>
      <point x="202" y="-7" type="line"/>
      <point x="249" y="-7" type="line"/>
      <point x="347" y="223" type="line" smooth="yes"/>
      <point x="352" y="235"/>
      <point x="363" y="259"/>
      <point x="379" y="293" type="curve" smooth="yes"/>
      <point x="399" y="335" type="line"/>
      <point x="535" y="-7" type="line"/>
      <point x="581" y="-7" type="line"/>
      <point x="604" y="59" type="line" smooth="yes"/>
      <point x="624" y="118"/>
      <point x="646" y="180"/>
      <point x="650" y="186" type="curve"/>
      <point x="718" y="342" type="line" smooth="yes"/>
      <point x="748" y="409"/>
      <point x="760" y="426"/>
      <point x="782" y="429" type="curve"/>
      <point x="808" y="431" type="line"/>
      <point x="808" y="459" type="line"/>
      <point x="726" y="456"/>
      <point x="726" y="456"/>
      <point x="710" y="456" type="curve" smooth="yes"/>
      <point x="694" y="456"/>
      <point x="694" y="456"/>
      <point x="612" y="459" type="curve"/>
      <point x="612" y="431" type="line"/>
      <point x="646" y="429" type="line" smooth="yes"/>
      <point x="671" y="428"/>
      <point x="685" y="416"/>
      <point x="685" y="398" type="curve" smooth="yes"/>
      <point x="685" y="387"/>
      <point x="683" y="375"/>
      <point x="678" y="362" type="curve" smooth="yes"/>
      <point x="628" y="222" type="line" smooth="yes"/>
      <point x="620" y="200"/>
      <point x="612" y="180"/>
      <point x="580" y="98" type="curve"/>
      <point x="465" y="388" type="line" smooth="yes"/>
      <point x="451" y="422"/>
      <point x="444" y="442"/>
      <point x="436" y="469" type="curve"/>
    </contour>
  </outline>
</glyph>
<glyph name="braceleft" format="1">
  <advance width="333"/>
  <unicode hex="007B"/>
  <outline>
    <contour>
      <point x="206" y="595" type="line" smooth="yes"/>
      <point x="206" y="674"/>
      <point x="226" y="705"/>
      <point x="289" y="726" type="curve"/>
      <point x="228" y="725"/>
      <point x="198" y="718"/>
      <point x="175" y="700" type="curve" smooth="yes"/>
      <point x="147" y="677"/>
      <point x="134" y="639"/>
      <point x="134" y="578" type="curve" smooth="yes"/>
      <point x="134" y="392" type="line" smooth="yes"/>
      <point x="134" y="320"/>
      <point x="117" y="293"/>
      <point x="58" y="273" type="curve"/>
      <point x="120" y="253"/>
      <point x="134" y="231"/>
      <point x="134" y="151" type="curve" smooth="yes"/>
      <point x="134" y="-17" type="line" smooth="yes"/>
      <point x="134" y="-86"/>
      <point x="146" y="-125"/>
      <point x="172" y="-148" type="curve" smooth="yes"/>
      <point x="194" y="-167"/>
      <point x="224" y="-174"/>
      <point x="289" y="-175" type="curve"/>
      <point x="228" y="-158"/>
      <point x="206" y="-124"/>
      <point x="206" y="-45" type="curve" smooth="yes"/>
      <point x="206" y="128" type="line" smooth="yes"/>
      <point x="206" y="225"/>
      <point x="190" y="252"/>
      <point x="122" y="273" type="curve"/>
      <point x="188" y="293"/>
      <point x="206" y="321"/>
      <point x="206" y="409" type="curve" smooth="yes"/>
    </contour>
  </outline>
</glyph>
<glyph name="braceright" format="1">
  <advance width="333"/>
  <unicode hex="007D"/>
  <outline>
    <contour>
      <point x="199" y="151" type="line" smooth="yes"/>
      <point x="199" y="231"/>
      <point x="213" y="253"/>
      <point x="275" y="273" type="curve"/>
      <point x="216" y="293"/>
      <point x="199" y="320"/>
      <point x="199" y="392" type="curve" smooth="yes"/>
      <point x="199" y="578" type="line" smooth="yes"/>
      <point x="199" y="637"/>
      <point x="187" y="675"/>
      <point x="161" y="698" type="curve"/>
      <point x="137" y="717"/>
      <point x="107" y="725"/>
      <point x="44" y="726" type="curve"/>
      <point x="107" y="705"/>
      <point x="127" y="673"/>
      <point x="127" y="595" type="curve" smooth="yes"/>
      <point x="127" y="409" type="line" smooth="yes"/>
      <point x="127" y="321"/>
      <point x="145" y="293"/>
      <point x="211" y="273" type="curve"/>
      <point x="143" y="252"/>
      <point x="127" y="225"/>
      <point x="127" y="128" type="curve" smooth="yes"/>
      <point x="127" y="-45" type="line" smooth="yes"/>
      <point x="127" y="-124"/>
      <point x="105" y="-158"/>
      <point x="44" y="-175" type="curve"/>
      <point x="107" y="-174"/>
      <point x="137" y="-168"/>
      <point x="158" y="-150" type="curve"/>
      <point x="187" y="-128"/>
      <point x="199" y="-87"/>
      <point x="199" y="-17" type="curve" smooth="yes"/>
    </contour>
  </outline>
</glyph>
<glyph name="asciitilde" format="1">
  <advance width="606"/>
  <unicode hex="007E"/>
  <outline>
    <contour>
      <point x="521" y="341" type="line"/>
      <point x="490" y="286"/>
      <point x="453" y="257"/>
      <point x="416" y="257" type="curve" smooth="yes"/>
      <point x="397" y="257"/>
      <point x="379" y="263"/>
      <point x="318" y="290" type="curve" smooth="yes"/>
      <point x="247" y="321"/>
      <point x="220" y="329"/>
      <point x="190" y="329" type="curve" smooth="yes"/>
      <point x="139" y="329"/>
      <point x="100" y="296"/>
      <point x="51" y="209" type="curve"/>
      <point x="85" y="182" type="line"/>
      <point x="125" y="250"/>
      <point x="151" y="272"/>
      <point x="191" y="272" type="curve" smooth="yes"/>
      <point x="215" y="272"/>
      <point x="224" y="269"/>
      <point x="287" y="242" type="curve" smooth="yes"/>
      <point x="363" y="210"/>
      <point x="391" y="201"/>
      <point x="417" y="201" type="curve" smooth="yes"/>
      <point x="468" y="201"/>
      <point x="512" y="236"/>
      <point x="555" y="314" type="curve"/>
    </contour>
  </outline>
</glyph>
<glyph name="exclamdown" format="1">
  <advance width="278"/>
  <unicode hex="00A1"/>
  <outline>
    <contour>
      <point x="115" y="-225" type="line"/>
      <point x="190" y="-187" type="line"/>
      <point x="187" y="-137"/>
      <point x="185" y="-109"/>
      <point x="183" y="-81" type="curve" smooth="yes"/>
      <point x="157" y="224" type="line" smooth="yes"/>
      <point x="155" y="249"/>
      <point x="155" y="251"/>
      <point x="155" y="264" type="curve"/>
      <point x="145" y="269" type="line"/>
      <point x="117" y="246" type="line"/>
      <point x="117" y="221" type="line"/>
      <point x="93" y="-57" type="line" smooth="yes"/>
      <point x="92" y="-68"/>
      <point x="91" y="-79"/>
      <point x="88" y="-105" type="curve" smooth="yes"/>
      <point x="83" y="-153"/>
      <point x="81" y="-176"/>
      <point x="81" y="-200" type="curve" smooth="yes"/>
      <point x="81" y="-225" type="line"/>
    </contour>
    <contour>
      <point x="138" y="469" type="curve" smooth="yes"/>
      <point x="108" y="469"/>
      <point x="81" y="441"/>
      <point x="81" y="411" type="curve" smooth="yes"/>
      <point x="81" y="381"/>
      <point x="108" y="353"/>
      <point x="137" y="353" type="curve" smooth="yes"/>
      <point x="169" y="353"/>
      <point x="197" y="380"/>
      <point x="197" y="410" type="curve" smooth="yes"/>
      <point x="197" y="441"/>
      <point x="169" y="469"/>
    </contour>
  </outline>
</glyph>
<glyph name="cent" format="1">
  <advance width="500"/>
  <unicode hex="00A2"/>
  <outline>
    <contour>
      <point x="347" y="411" type="line"/>
      <point x="372" y="401"/>
      <point x="384" y="394"/>
      <point x="397" y="380" type="curve"/>
      <point x="406" y="314" type="line"/>
      <point x="434" y="314" type="line"/>
      <point x="434" y="360"/>
      <point x="437" y="395"/>
      <point x="445" y="444" type="curve"/>
      <point x="418" y="460"/>
      <point x="391" y="469"/>
      <point x="365" y="470" type="curve"/>
      <point x="392" y="562" type="line"/>
      <point x="352" y="562" type="line"/>
      <point x="325" y="470" type="line"/>
      <point x="287" y="470"/>
      <point x="261" y="465"/>
      <point x="243" y="456" type="curve" smooth="yes"/>
      <point x="163" y="416" type="line" smooth="yes"/>
      <point x="95" y="382"/>
      <point x="61" y="317"/>
      <point x="61" y="222" type="curve" smooth="yes"/>
      <point x="61" y="163"/>
      <point x="75" y="111"/>
      <point x="100" y="74" type="curve" smooth="yes"/>
      <point x="122" y="42"/>
      <point x="142" y="25"/>
      <point x="184" y="3" type="curve"/>
      <point x="152" y="-101" type="line"/>
      <point x="193" y="-101" type="line"/>
      <point x="221" y="-9" type="line"/>
      <point x="246" y="-13"/>
      <point x="261" y="-14"/>
      <point x="283" y="-14" type="curve" smooth="yes"/>
      <point x="336" y="-14"/>
      <point x="377" y="-4"/>
      <point x="428" y="20" type="curve"/>
      <point x="448" y="53" type="line"/>
      <point x="439" y="64" type="line"/>
      <point x="390" y="44"/>
      <point x="360" y="36"/>
      <point x="326" y="36" type="curve" smooth="yes"/>
      <point x="294" y="36"/>
      <point x="271" y="42"/>
      <point x="241" y="58" type="curve"/>
    </contour>
    <contour>
      <point x="208" y="84" type="line"/>
      <point x="183" y="110"/>
      <point x="174" y="124"/>
      <point x="164" y="156" type="curve" smooth="yes"/>
      <point x="155" y="185"/>
      <point x="150" y="217"/>
      <point x="150" y="251" type="curve" smooth="yes"/>
      <point x="150" y="360"/>
      <point x="194" y="424"/>
      <point x="270" y="424" type="curve" smooth="yes"/>
      <point x="277" y="424"/>
      <point x="284" y="423"/>
      <point x="309" y="419" type="curve"/>
    </contour>
  </outline>
</glyph>
<glyph name="sterling" format="1">
  <advance width="500"/>
  <unicode hex="00A3"/>
  <outline>
    <contour>
      <point x="374" y="360" type="line"/>
      <point x="192" y="354" type="line"/>
      <point x="192" y="443" type="line" smooth="yes"/>
      <point x="192" y="494"/>
      <point x="200" y="539"/>
      <point x="216" y="573" type="curve" smooth="yes"/>
      <point x="241" y="624"/>
      <point x="278" y="647"/>
      <point x="338" y="647" type="curve" smooth="yes"/>
      <point x="367" y="647"/>
      <point x="392" y="640"/>
      <point x="409" y="627" type="curve" smooth="yes"/>
      <point x="429" y="611"/>
      <point x="435" y="590"/>
      <point x="436" y="532" type="curve"/>
      <point x="469" y="532" type="line"/>
      <point x="468" y="547"/>
      <point x="468" y="558"/>
      <point x="468" y="566" type="curve" smooth="yes"/>
      <point x="468" y="598"/>
      <point x="471" y="633"/>
      <point x="478" y="668" type="curve"/>
      <point x="444" y="688"/>
      <point x="421" y="694"/>
      <point x="380" y="694" type="curve" smooth="yes"/>
      <point x="323" y="694"/>
      <point x="270" y="674"/>
      <point x="207" y="629" type="curve" smooth="yes"/>
      <point x="141" y="581"/>
      <point x="108" y="526"/>
      <point x="108" y="461" type="curve" smooth="yes"/>
      <point x="108" y="355" type="line"/>
      <point x="69" y="357"/>
      <point x="63" y="357"/>
      <point x="20" y="358" type="curve"/>
      <point x="12" y="313" type="line"/>
      <point x="108" y="316" type="line"/>
      <point x="108" y="286" type="line" smooth="yes"/>
      <point x="108" y="207"/>
      <point x="94" y="126"/>
      <point x="74" y="86" type="curve" smooth="yes"/>
      <point x="67" y="72"/>
      <point x="65" y="70"/>
      <point x="50" y="63" type="curve"/>
      <point x="35" y="55"/>
      <point x="21" y="45"/>
      <point x="12" y="36" type="curve"/>
      <point x="12" y="-13" type="line"/>
      <point x="34" y="-13" type="line"/>
      <point x="79" y="32" type="line"/>
      <point x="144" y="28"/>
      <point x="185" y="22"/>
      <point x="241" y="9" type="curve" smooth="yes"/>
      <point x="297" y="-3"/>
      <point x="360" y="-10"/>
      <point x="420" y="-10" type="curve" smooth="yes"/>
      <point x="441" y="-10"/>
      <point x="449" y="-7"/>
      <point x="470" y="10" type="curve"/>
      <point x="470" y="158" type="line"/>
      <point x="444" y="158" type="line"/>
      <point x="437" y="106" type="line" smooth="yes"/>
      <point x="433" y="77"/>
      <point x="427" y="69"/>
      <point x="408" y="69" type="curve" smooth="yes"/>
      <point x="402" y="69"/>
      <point x="395" y="69"/>
      <point x="385" y="70" type="curve"/>
      <point x="359" y="71"/>
      <point x="243" y="76"/>
      <point x="228" y="76" type="curve" smooth="yes"/>
      <point x="172" y="76"/>
      <point x="132" y="74"/>
      <point x="95" y="69" type="curve"/>
      <point x="157" y="158"/>
      <point x="184" y="230"/>
      <point x="189" y="317" type="curve"/>
      <point x="257" y="316"/>
      <point x="274" y="315"/>
      <point x="370" y="312" type="curve"/>
    </contour>
  </outline>
</glyph>
<glyph name="currency" format="1">
  <advance width="500"/>
  <unicode hex="00A4"/>
  <outline>
    <contour>
      <point x="77" y="531" type="line"/>
      <point x="30" y="484" type="line"/>
      <point x="79" y="435" type="line"/>
      <point x="49" y="401"/>
      <point x="37" y="365"/>
      <point x="37" y="313" type="curve" smooth="yes"/>
      <point x="37" y="263"/>
      <point x="49" y="228"/>
      <point x="79" y="190" type="curve"/>
      <point x="30" y="141" type="line"/>
      <point x="75" y="96" type="line"/>
      <point x="123" y="144" type="line"/>
      <point x="160" y="114"/>
      <point x="197" y="102"/>
      <point x="250" y="102" type="curve" smooth="yes"/>
      <point x="303" y="102"/>
      <point x="340" y="114"/>
      <point x="377" y="144" type="curve"/>
      <point x="425" y="96" type="line"/>
      <point x="470" y="141" type="line"/>
      <point x="421" y="190" type="line"/>
      <point x="451" y="228"/>
      <point x="463" y="263"/>
      <point x="463" y="313" type="curve" smooth="yes"/>
      <point x="463" y="365"/>
      <point x="451" y="401"/>
      <point x="421" y="435" type="curve"/>
      <point x="470" y="484" type="line"/>
      <point x="423" y="531" type="line"/>
      <point x="375" y="483" type="line"/>
      <point x="337" y="511"/>
      <point x="298" y="524"/>
      <point x="250" y="524" type="curve" smooth="yes"/>
      <point x="202" y="524"/>
      <point x="162" y="511"/>
      <point x="125" y="483" type="curve"/>
    </contour>
    <contour>
      <point x="253" y="465" type="curve" smooth="yes"/>
      <point x="334" y="465"/>
      <point x="404" y="395"/>
      <point x="404" y="313" type="curve" smooth="yes"/>
      <point x="404" y="229"/>
      <point x="335" y="161"/>
      <point x="250" y="161" type="curve" smooth="yes"/>
      <point x="165" y="161"/>
      <point x="96" y="229"/>
      <point x="96" y="314" type="curve" smooth="yes"/>
      <point x="96" y="397"/>
      <point x="166" y="465"/>
    </contour>
  </outline>
</glyph>
<glyph name="yen" format="1">
  <advance width="500"/>
  <unicode hex="00A5"/>
  <outline>
    <contour>
      <point x="334" y="382" type="line"/>
      <point x="366" y="450" type="line" smooth="yes"/>
      <point x="410" y="543"/>
      <point x="453" y="619"/>
      <point x="496" y="679" type="curve"/>
      <point x="496" y="694" type="line"/>
      <point x="426" y="694" type="line"/>
      <point x="391" y="602"/>
      <point x="387" y="593"/>
      <point x="349" y="504" type="curve" smooth="yes"/>
      <point x="279" y="341" type="line"/>
      <point x="175" y="602" type="line"/>
      <point x="174" y="605"/>
      <point x="172" y="609"/>
      <point x="167" y="625" type="curve" smooth="yes"/>
      <point x="146" y="684"/>
      <point x="133" y="701"/>
      <point x="107" y="701" type="curve" smooth="yes"/>
      <point x="103" y="701"/>
      <point x="100" y="701"/>
      <point x="97" y="700" type="curve"/>
      <point x="5" y="679" type="line"/>
      <point x="5" y="650" type="line"/>
      <point x="47" y="652"/>
      <point x="65" y="633"/>
      <point x="107" y="542" type="curve" smooth="yes"/>
      <point x="182" y="382" type="line"/>
      <point x="71" y="382" type="line"/>
      <point x="71" y="343" type="line"/>
      <point x="200" y="343" type="line"/>
      <point x="221" y="293" type="line" smooth="yes"/>
      <point x="226" y="281"/>
      <point x="227" y="276"/>
      <point x="227" y="262" type="curve" smooth="yes"/>
      <point x="227" y="246" type="line"/>
      <point x="71" y="246" type="line"/>
      <point x="71" y="207" type="line"/>
      <point x="227" y="207" type="line"/>
      <point x="227" y="120" type="line" smooth="yes"/>
      <point x="227" y="42"/>
      <point x="223" y="33"/>
      <point x="183" y="30" type="curve" smooth="yes"/>
      <point x="142" y="27" type="line"/>
      <point x="142" y="-3" type="line"/>
      <point x="183" y="-1"/>
      <point x="209" y="0"/>
      <point x="255" y="0" type="curve" smooth="yes"/>
      <point x="303" y="0"/>
      <point x="334" y="-1"/>
      <point x="385" y="-3" type="curve"/>
      <point x="385" y="27" type="line"/>
      <point x="344" y="30" type="line" smooth="yes"/>
      <point x="304" y="33"/>
      <point x="300" y="42"/>
      <point x="300" y="120" type="curve" smooth="yes"/>
      <point x="300" y="207" type="line"/>
      <point x="456" y="207" type="line"/>
      <point x="456" y="246" type="line"/>
      <point x="300" y="246" type="line"/>
      <point x="300" y="278" type="line" smooth="yes"/>
      <point x="300" y="297"/>
      <point x="304" y="314"/>
      <point x="317" y="343" type="curve"/>
      <point x="456" y="343" type="line"/>
      <point x="456" y="382" type="line"/>
    </contour>
  </outline>
</glyph>
<glyph name="brokenbar" format="1">
  <advance width="606"/>
  <unicode hex="00A6"/>
  <outline>
    <contour>
      <point x="275" y="0" type="line"/>
      <point x="331" y="0" type="line"/>
      <point x="331" y="292" type="line"/>
      <point x="275" y="292" type="line"/>
    </contour>
    <contour>
      <point x="275" y="726" type="line"/>
      <point x="275" y="439" type="line"/>
      <point x="331" y="439" type="line"/>
      <point x="331" y="726" type="line"/>
    </contour>
  </outline>
</glyph>
<glyph name="section" format="1">
  <advance width="500"/>
  <unicode hex="00A7"/>
  <outline>
    <contour>
      <point x="403" y="521" type="line"/>
      <point x="405" y="578"/>
      <point x="408" y="616"/>
      <point x="416" y="673" type="curve"/>
      <point x="371" y="698"/>
      <point x="332" y="709"/>
      <point x="283" y="709" type="curve" smooth="yes"/>
      <point x="158" y="709"/>
      <point x="51" y="606"/>
      <point x="51" y="485" type="curve" smooth="yes"/>
      <point x="51" y="446"/>
      <point x="70" y="411"/>
      <point x="109" y="382" type="curve"/>
      <point x="53" y="341"/>
      <point x="26" y="296"/>
      <point x="26" y="243" type="curve" smooth="yes"/>
      <point x="26" y="210"/>
      <point x="40" y="178"/>
      <point x="62" y="159" type="curve" smooth="yes"/>
      <point x="94" y="131"/>
      <point x="124" y="116"/>
      <point x="205" y="90" type="curve" smooth="yes"/>
      <point x="288" y="63"/>
      <point x="314" y="53"/>
      <point x="338" y="36" type="curve" smooth="yes"/>
      <point x="369" y="14"/>
      <point x="384" y="-12"/>
      <point x="384" y="-47" type="curve" smooth="yes"/>
      <point x="384" y="-120"/>
      <point x="324" y="-167"/>
      <point x="231" y="-167" type="curve" smooth="yes"/>
      <point x="169" y="-167"/>
      <point x="134" y="-152"/>
      <point x="93" y="-108" type="curve"/>
      <point x="88" y="-18" type="line"/>
      <point x="56" y="-18" type="line"/>
      <point x="54" y="-74"/>
      <point x="51" y="-111"/>
      <point x="44" y="-175" type="curve"/>
      <point x="96" y="-204"/>
      <point x="149" y="-219"/>
      <point x="201" y="-219" type="curve" smooth="yes"/>
      <point x="326" y="-219"/>
      <point x="447" y="-107"/>
      <point x="447" y="7" type="curve" smooth="yes"/>
      <point x="447" y="57"/>
      <point x="429" y="88"/>
      <point x="387" y="111" type="curve"/>
      <point x="442" y="158"/>
      <point x="465" y="200"/>
      <point x="465" y="253" type="curve" smooth="yes"/>
      <point x="465" y="327"/>
      <point x="420" y="367"/>
      <point x="287" y="410" type="curve" smooth="yes"/>
      <point x="196" y="439"/>
      <point x="173" y="448"/>
      <point x="150" y="465" type="curve"/>
      <point x="121" y="484"/>
      <point x="109" y="506"/>
      <point x="109" y="537" type="curve" smooth="yes"/>
      <point x="109" y="607"/>
      <point x="166" y="657"/>
      <point x="246" y="657" type="curve" smooth="yes"/>
      <point x="293" y="657"/>
      <point x="325" y="644"/>
      <point x="367" y="608" type="curve"/>
      <point x="372" y="521" type="line"/>
    </contour>
    <contour>
      <point x="135" y="369" type="curve"/>
      <point x="163" y="358"/>
      <point x="173" y="354"/>
      <point x="225" y="339" type="curve" smooth="yes"/>
      <point x="294" y="319"/>
      <point x="324" y="308"/>
      <point x="353" y="290" type="curve" smooth="yes"/>
      <point x="383" y="271"/>
      <point x="399" y="244"/>
      <point x="399" y="213" type="curve" smooth="yes"/>
      <point x="399" y="186"/>
      <point x="390" y="162"/>
      <point x="365" y="123" type="curve"/>
      <point x="340" y="134"/>
      <point x="329" y="138"/>
      <point x="281" y="153" type="curve" smooth="yes"/>
      <point x="141" y="195"/>
      <point x="92" y="229"/>
      <point x="92" y="282" type="curve" smooth="yes"/>
      <point x="92" y="316"/>
      <point x="104" y="341"/>
    </contour>
  </outline>
</glyph>
<glyph name="dieresis" format="1">
  <advance width="333"/>
  <unicode hex="00A8"/>
  <outline>
    <contour>
      <point x="68" y="637" type="curve" smooth="yes"/>
      <point x="37" y="637"/>
      <point x="17" y="617"/>
      <point x="17" y="587" type="curve" smooth="yes"/>
      <point x="17" y="557"/>
      <point x="37" y="537"/>
      <point x="67" y="537" type="curve" smooth="yes"/>
      <point x="97" y="537"/>
      <point x="117" y="557"/>
      <point x="117" y="587" type="curve" smooth="yes"/>
      <point x="117" y="616"/>
      <point x="97" y="637"/>
    </contour>
    <contour>
      <point x="267" y="637" type="curve" smooth="yes"/>
      <point x="236" y="637"/>
      <point x="216" y="617"/>
      <point x="216" y="587" type="curve" smooth="yes"/>
      <point x="216" y="557"/>
      <point x="236" y="537"/>
      <point x="266" y="537" type="curve" smooth="yes"/>
      <point x="296" y="537"/>
      <point x="316" y="557"/>
      <point x="316" y="587" type="curve" smooth="yes"/>
      <point x="316" y="616"/>
      <point x="296" y="637"/>
    </contour>
  </outline>
</glyph>
<glyph name="copyright" format="1">
  <advance width="747"/>
  <unicode hex="00A9"/>
  <outline>
    <contour>
      <point x="527" y="522" type="line"/>
      <point x="466" y="542"/>
      <point x="430" y="548"/>
      <point x="383" y="548" type="curve" smooth="yes"/>
      <point x="261" y="548"/>
      <point x="178" y="464"/>
      <point x="178" y="341" type="curve" smooth="yes"/>
      <point x="178" y="220"/>
      <point x="258" y="135"/>
      <point x="372" y="135" type="curve" smooth="yes"/>
      <point x="425" y="135"/>
      <point x="474" y="154"/>
      <point x="507" y="188" type="curve" smooth="yes"/>
      <point x="520" y="201"/>
      <point x="526" y="211"/>
      <point x="537" y="234" type="curve"/>
      <point x="516" y="243" type="line"/>
      <point x="488" y="191"/>
      <point x="449" y="166"/>
      <point x="395" y="166" type="curve" smooth="yes"/>
      <point x="309" y="166"/>
      <point x="246" y="244"/>
      <point x="246" y="350" type="curve" smooth="yes"/>
      <point x="246" y="453"/>
      <point x="305" y="522"/>
      <point x="393" y="522" type="curve" smooth="yes"/>
      <point x="462" y="522"/>
      <point x="497" y="488"/>
      <point x="501" y="415" type="curve"/>
      <point x="527" y="415" type="line"/>
    </contour>
    <contour>
      <point x="377" y="706" type="curve" smooth="yes"/>
      <point x="173" y="706"/>
      <point x="11" y="545"/>
      <point x="11" y="342" type="curve" smooth="yes"/>
      <point x="11" y="144"/>
      <point x="174" y="-18"/>
      <point x="373" y="-18" type="curve" smooth="yes"/>
      <point x="573" y="-18"/>
      <point x="736" y="145"/>
      <point x="736" y="345" type="curve" smooth="yes"/>
      <point x="736" y="542"/>
      <point x="572" y="706"/>
    </contour>
    <contour>
      <point x="377" y="662" type="curve" smooth="yes"/>
      <point x="548" y="662"/>
      <point x="692" y="517"/>
      <point x="692" y="344" type="curve" smooth="yes"/>
      <point x="692" y="169"/>
      <point x="548" y="26"/>
      <point x="373" y="26" type="curve" smooth="yes"/>
      <point x="198" y="26"/>
      <point x="55" y="169"/>
      <point x="55" y="343" type="curve" smooth="yes"/>
      <point x="55" y="521"/>
      <point x="197" y="662"/>
    </contour>
  </outline>
</glyph>
<glyph name="ordfeminine" format="1">
  <advance width="333"/>
  <unicode hex="00AA"/>
  <outline>
    <contour>
      <point x="214" y="477" type="line"/>
      <point x="211" y="426" type="line"/>
      <point x="217" y="427" type="line"/>
      <point x="219" y="427"/>
      <point x="225" y="427"/>
      <point x="234" y="428" type="curve"/>
      <point x="234" y="428"/>
      <point x="261" y="429"/>
      <point x="261" y="429" type="curve"/>
      <point x="264" y="429"/>
      <point x="273" y="429"/>
      <point x="285" y="428" type="curve"/>
      <point x="288" y="427"/>
      <point x="299" y="427"/>
      <point x="310" y="426" type="curve"/>
      <point x="310" y="444" type="line"/>
      <point x="290" y="444" type="line" smooth="yes"/>
      <point x="269" y="444"/>
      <point x="266" y="450"/>
      <point x="266" y="488" type="curve" smooth="yes"/>
      <point x="266" y="590" type="line" smooth="yes"/>
      <point x="266" y="642"/>
      <point x="264" y="655"/>
      <point x="253" y="670" type="curve"/>
      <point x="236" y="696"/>
      <point x="205" y="709"/>
      <point x="161" y="709" type="curve" smooth="yes"/>
      <point x="134" y="709"/>
      <point x="108" y="702"/>
      <point x="85" y="689" type="curve" smooth="yes"/>
      <point x="50" y="669" type="line"/>
      <point x="50" y="630" type="line"/>
      <point x="67" y="626" type="line"/>
      <point x="76" y="645" type="line"/>
      <point x="79" y="651" type="line"/>
      <point x="82" y="656" type="line" smooth="yes"/>
      <point x="92" y="674"/>
      <point x="98" y="677"/>
      <point x="126" y="677" type="curve" smooth="yes"/>
      <point x="187" y="677"/>
      <point x="213" y="654"/>
      <point x="214" y="600" type="curve"/>
      <point x="150" y="590" type="line" smooth="yes"/>
      <point x="63" y="576"/>
      <point x="24" y="546"/>
      <point x="24" y="493" type="curve" smooth="yes"/>
      <point x="24" y="449"/>
      <point x="54" y="422"/>
      <point x="101" y="422" type="curve" smooth="yes"/>
      <point x="111" y="422"/>
      <point x="119" y="423"/>
      <point x="133" y="425" type="curve"/>
    </contour>
    <contour>
      <point x="214" y="502" type="line"/>
      <point x="193" y="482" type="line" smooth="yes"/>
      <point x="180" y="469"/>
      <point x="148" y="456"/>
      <point x="130" y="456" type="curve" smooth="yes"/>
      <point x="102" y="456"/>
      <point x="80" y="476"/>
      <point x="80" y="503" type="curve" smooth="yes"/>
      <point x="80" y="548"/>
      <point x="115" y="569"/>
      <point x="214" y="581" type="curve"/>
    </contour>
  </outline>
</glyph>
<glyph name="guillemotleft" format="1">
  <advance width="500"/>
  <unicode hex="00AB"/>
  <outline>
    <contour>
      <point x="130" y="248" type="line"/>
      <point x="249" y="415" type="line"/>
      <point x="226" y="428" type="line"/>
      <point x="50" y="254" type="line"/>
      <point x="50" y="242" type="line"/>
      <point x="226" y="71" type="line"/>
      <point x="249" y="86" type="line"/>
    </contour>
    <contour>
      <point x="331" y="248" type="line"/>
      <point x="450" y="415" type="line"/>
      <point x="427" y="428" type="line"/>
      <point x="251" y="254" type="line"/>
      <point x="251" y="242" type="line"/>
      <point x="427" y="71" type="line"/>
      <point x="450" y="86" type="line"/>
    </contour>
  </outline>
</glyph>
<glyph name="logicalnot" format="1">
  <advance width="606"/>
  <unicode hex="00AC"/>
  <outline>
    <contour>
      <point x="495" y="120" type="line"/>
      <point x="551" y="120" type="line"/>
      <point x="551" y="386" type="line"/>
      <point x="51" y="386" type="line"/>
      <point x="51" y="330" type="line"/>
      <point x="495" y="330" type="line"/>
    </contour>
  </outline>
</glyph>
<glyph name="registered" format="1">
  <advance width="747"/>
  <unicode hex="00AE"/>
  <outline>
    <contour>
      <point x="205" y="554" type="line"/>
      <point x="205" y="537" type="line"/>
      <point x="222" y="537" type="line" smooth="yes"/>
      <point x="243" y="537"/>
      <point x="254" y="527"/>
      <point x="254" y="507" type="curve" smooth="yes"/>
      <point x="254" y="204" type="line" smooth="yes"/>
      <point x="254" y="179"/>
      <point x="248" y="173"/>
      <point x="222" y="173" type="curve" smooth="yes"/>
      <point x="206" y="173" type="line"/>
      <point x="206" y="157" type="line"/>
      <point x="358" y="157" type="line"/>
      <point x="358" y="174" type="line"/>
      <point x="337" y="174" type="line" smooth="yes"/>
      <point x="315" y="174"/>
      <point x="309" y="182"/>
      <point x="309" y="211" type="curve" smooth="yes"/>
      <point x="309" y="340" type="line"/>
      <point x="350" y="340" type="line" smooth="yes"/>
      <point x="387" y="340"/>
      <point x="405" y="321"/>
      <point x="428" y="256" type="curve" smooth="yes"/>
      <point x="454" y="182"/>
      <point x="475" y="157"/>
      <point x="510" y="157" type="curve" smooth="yes"/>
      <point x="563" y="157" type="line"/>
      <point x="563" y="173" type="line"/>
      <point x="529" y="174"/>
      <point x="519" y="183"/>
      <point x="497" y="235" type="curve" smooth="yes"/>
      <point x="465" y="315"/>
      <point x="441" y="344"/>
      <point x="401" y="350" type="curve"/>
      <point x="479" y="363"/>
      <point x="516" y="398"/>
      <point x="516" y="456" type="curve" smooth="yes"/>
      <point x="516" y="524"/>
      <point x="468" y="554"/>
      <point x="361" y="554" type="curve" smooth="yes"/>
    </contour>
    <contour>
      <point x="309" y="360" type="line"/>
      <point x="309" y="506" type="line" smooth="yes"/>
      <point x="309" y="527"/>
      <point x="317" y="535"/>
      <point x="337" y="535" type="curve" smooth="yes"/>
      <point x="366" y="535" type="line" smooth="yes"/>
      <point x="426" y="535"/>
      <point x="460" y="504"/>
      <point x="460" y="451" type="curve" smooth="yes"/>
      <point x="460" y="388"/>
      <point x="421" y="360"/>
      <point x="336" y="360" type="curve" smooth="yes"/>
    </contour>
    <contour>
      <point x="377" y="706" type="curve" smooth="yes"/>
      <point x="173" y="706"/>
      <point x="11" y="545"/>
      <point x="11" y="342" type="curve" smooth="yes"/>
      <point x="11" y="144"/>
      <point x="174" y="-18"/>
      <point x="373" y="-18" type="curve" smooth="yes"/>
      <point x="573" y="-18"/>
      <point x="736" y="145"/>
      <point x="736" y="345" type="curve" smooth="yes"/>
      <point x="736" y="542"/>
      <point x="572" y="706"/>
    </contour>
    <contour>
      <point x="377" y="662" type="curve" smooth="yes"/>
      <point x="548" y="662"/>
      <point x="692" y="517"/>
      <point x="692" y="344" type="curve" smooth="yes"/>
      <point x="692" y="169"/>
      <point x="548" y="26"/>
      <point x="373" y="26" type="curve" smooth="yes"/>
      <point x="198" y="26"/>
      <point x="55" y="169"/>
      <point x="55" y="343" type="curve" smooth="yes"/>
      <point x="55" y="521"/>
      <point x="197" y="662"/>
    </contour>
  </outline>
</glyph>
<glyph name="macron" format="1">
  <advance width="333"/>
  <unicode hex="00AF"/>
  <outline>
    <contour>
      <point x="323" y="538" type="line"/>
      <point x="323" y="591" type="line"/>
      <point x="11" y="591" type="line"/>
      <point x="11" y="538" type="line"/>
    </contour>
  </outline>
</glyph>
<glyph name="degree" format="1">
  <advance width="400"/>
  <unicode hex="00B0"/>
  <outline>
    <contour>
      <point x="199" y="689" type="curve" smooth="yes"/>
      <point x="117" y="689"/>
      <point x="50" y="622"/>
      <point x="50" y="539" type="curve" smooth="yes"/>
      <point x="50" y="456"/>
      <point x="117" y="389"/>
      <point x="200" y="389" type="curve" smooth="yes"/>
      <point x="281" y="389"/>
      <point x="350" y="457"/>
      <point x="350" y="537" type="curve" smooth="yes"/>
      <point x="350" y="621"/>
      <point x="283" y="689"/>
    </contour>
    <contour>
      <point x="199" y="649" type="curve" smooth="yes"/>
      <point x="260" y="649"/>
      <point x="310" y="599"/>
      <point x="310" y="537" type="curve" smooth="yes"/>
      <point x="310" y="479"/>
      <point x="260" y="429"/>
      <point x="200" y="429" type="curve" smooth="yes"/>
      <point x="139" y="429"/>
      <point x="90" y="478"/>
      <point x="90" y="539" type="curve" smooth="yes"/>
      <point x="90" y="600"/>
      <point x="139" y="649"/>
    </contour>
  </outline>
</glyph>
<glyph name="acute" format="1">
  <advance width="333"/>
  <unicode hex="00B4"/>
  <outline>
    <contour>
      <point x="78" y="506" type="line"/>
      <point x="118" y="506" type="line"/>
      <point x="262" y="596" type="line" smooth="yes"/>
      <point x="295" y="617"/>
      <point x="302" y="625"/>
      <point x="302" y="643" type="curve" smooth="yes"/>
      <point x="302" y="662"/>
      <point x="288" y="677"/>
      <point x="271" y="677" type="curve" smooth="yes"/>
      <point x="256" y="677"/>
      <point x="238" y="666"/>
      <point x="216" y="644" type="curve" smooth="yes"/>
    </contour>
  </outline>
</glyph>
<glyph name="paragraph" format="1">
  <advance width="628"/>
  <unicode hex="00B6"/>
  <outline>
    <contour>
      <point x="589" y="-120" type="line"/>
      <point x="547" y="-117" type="line" smooth="yes"/>
      <point x="502" y="-114"/>
      <point x="494" y="-101"/>
      <point x="494" y="-27" type="curve" smooth="yes"/>
      <point x="494" y="574" type="line" smooth="yes"/>
      <point x="494" y="641"/>
      <point x="505" y="656"/>
      <point x="557" y="661" type="curve" smooth="yes"/>
      <point x="589" y="664" type="line"/>
      <point x="589" y="694" type="line"/>
      <point x="518" y="690"/>
      <point x="476" y="689"/>
      <point x="421" y="689" type="curve" smooth="yes"/>
      <point x="375" y="689"/>
      <point x="309" y="691"/>
      <point x="276" y="693" type="curve" smooth="yes"/>
      <point x="249" y="694"/>
      <point x="228" y="695"/>
      <point x="217" y="695" type="curve" smooth="yes"/>
      <point x="112" y="695"/>
      <point x="39" y="632"/>
      <point x="39" y="542" type="curve" smooth="yes"/>
      <point x="39" y="487"/>
      <point x="65" y="439"/>
      <point x="114" y="402" type="curve" smooth="yes"/>
      <point x="163" y="365"/>
      <point x="207" y="350"/>
      <point x="280" y="345" type="curve"/>
      <point x="280" y="-27" type="line" smooth="yes"/>
      <point x="280" y="-101"/>
      <point x="272" y="-114"/>
      <point x="227" y="-117" type="curve" smooth="yes"/>
      <point x="185" y="-120" type="line"/>
      <point x="185" y="-150" type="line"/>
      <point x="288" y="-148"/>
      <point x="335" y="-147"/>
      <point x="387" y="-147" type="curve" smooth="yes"/>
      <point x="439" y="-147"/>
      <point x="486" y="-148"/>
      <point x="589" y="-150" type="curve"/>
    </contour>
    <contour>
      <point x="280" y="382" type="line"/>
      <point x="196" y="401"/>
      <point x="150" y="452"/>
      <point x="150" y="526" type="curve" smooth="yes"/>
      <point x="150" y="601"/>
      <point x="199" y="656"/>
      <point x="265" y="656" type="curve" smooth="yes"/>
      <point x="268" y="656"/>
      <point x="274" y="656"/>
      <point x="280" y="655" type="curve"/>
    </contour>
    <contour>
      <point x="421" y="655" type="line"/>
      <point x="421" y="-120" type="line"/>
      <point x="353" y="-120" type="line"/>
      <point x="353" y="655" type="line"/>
    </contour>
  </outline>
</glyph>
<glyph name="periodcentered" format="1">
  <advance width="250"/>
  <unicode hex="00B7"/>
  <outline>
    <contour>
      <point x="124" y="319" type="curve" smooth="yes"/>
      <point x="94" y="319"/>
      <point x="67" y="291"/>
      <point x="67" y="261" type="curve" smooth="yes"/>
      <point x="67" y="231"/>
      <point x="94" y="203"/>
      <point x="123" y="203" type="curve" smooth="yes"/>
      <point x="155" y="203"/>
      <point x="183" y="230"/>
      <point x="183" y="260" type="curve" smooth="yes"/>
      <point x="183" y="291"/>
      <point x="155" y="319"/>
    </contour>
  </outline>
</glyph>
<glyph name="cedilla" format="1">
  <advance width="333"/>
  <unicode hex="00B8"/>
  <outline>
    <contour>
      <point x="141" y="-108" type="line"/>
      <point x="148" y="-114" type="line"/>
      <point x="167" y="-109"/>
      <point x="176" y="-107"/>
      <point x="189" y="-107" type="curve" smooth="yes"/>
      <point x="213" y="-107"/>
      <point x="229" y="-123"/>
      <point x="229" y="-146" type="curve" smooth="yes"/>
      <point x="229" y="-174"/>
      <point x="210" y="-189"/>
      <point x="175" y="-189" type="curve" smooth="yes"/>
      <point x="157" y="-189"/>
      <point x="143" y="-187"/>
      <point x="110" y="-178" type="curve"/>
      <point x="96" y="-209" type="line"/>
      <point x="139" y="-222"/>
      <point x="153" y="-225"/>
      <point x="180" y="-225" type="curve" smooth="yes"/>
      <point x="256" y="-225"/>
      <point x="304" y="-193"/>
      <point x="304" y="-141" type="curve" smooth="yes"/>
      <point x="304" y="-98"/>
      <point x="271" y="-71"/>
      <point x="219" y="-71" type="curve" smooth="yes"/>
      <point x="209" y="-71"/>
      <point x="202" y="-72"/>
      <point x="192" y="-75" type="curve"/>
      <point x="217" y="-10" type="line"/>
      <point x="183" y="-10" type="line"/>
    </contour>
  </outline>
</glyph>
<glyph name="ordmasculine" format="1">
  <advance width="333"/>
  <unicode hex="00BA"/>
  <outline>
    <contour>
      <point x="173" y="709" type="curve" smooth="yes"/>
      <point x="76" y="709"/>
      <point x="10" y="647"/>
      <point x="10" y="558" type="curve" smooth="yes"/>
      <point x="10" y="473"/>
      <point x="69" y="416"/>
      <point x="157" y="416" type="curve" smooth="yes"/>
      <point x="250" y="416"/>
      <point x="323" y="483"/>
      <point x="323" y="567" type="curve" smooth="yes"/>
      <point x="323" y="650"/>
      <point x="261" y="709"/>
    </contour>
    <contour>
      <point x="159" y="689" type="curve" smooth="yes"/>
      <point x="218" y="689"/>
      <point x="263" y="629"/>
      <point x="263" y="551" type="curve" smooth="yes"/>
      <point x="263" y="482"/>
      <point x="227" y="436"/>
      <point x="173" y="436" type="curve" smooth="yes"/>
      <point x="112" y="436"/>
      <point x="70" y="495"/>
      <point x="70" y="579" type="curve" smooth="yes"/>
      <point x="70" y="650"/>
      <point x="102" y="689"/>
    </contour>
  </outline>
</glyph>
<glyph name="guillemotright" format="1">
  <advance width="500"/>
  <unicode hex="00BB"/>
  <outline>
    <contour>
      <point x="251" y="86" type="line"/>
      <point x="274" y="71" type="line"/>
      <point x="450" y="242" type="line"/>
      <point x="450" y="254" type="line"/>
      <point x="274" y="428" type="line"/>
      <point x="251" y="415" type="line"/>
      <point x="370" y="248" type="line"/>
    </contour>
    <contour>
      <point x="50" y="86" type="line"/>
      <point x="73" y="71" type="line"/>
      <point x="249" y="242" type="line"/>
      <point x="249" y="254" type="line"/>
      <point x="73" y="428" type="line"/>
      <point x="50" y="415" type="line"/>
      <point x="169" y="248" type="line"/>
    </contour>
  </outline>
</glyph>
<glyph name="onequarter" format="1">
  <advance width="750"/>
  <unicode hex="00BC"/>
  <outline>
    <contour>
      <point x="595" y="107" type="line"/>
      <point x="595" y="71" type="line" smooth="yes"/>
      <point x="595" y="34"/>
      <point x="580" y="22"/>
      <point x="536" y="22" type="curve" smooth="yes"/>
      <point x="515" y="22" type="line"/>
      <point x="515" y="-3" type="line"/>
      <point x="569" y="-1"/>
      <point x="595" y="0"/>
      <point x="622" y="0" type="curve" smooth="yes"/>
      <point x="655" y="0"/>
      <point x="678" y="-1"/>
      <point x="722" y="-3" type="curve"/>
      <point x="722" y="22" type="line"/>
      <point x="701" y="22" type="line" smooth="yes"/>
      <point x="671" y="22"/>
      <point x="657" y="38"/>
      <point x="657" y="71" type="curve" smooth="yes"/>
      <point x="657" y="107" type="line"/>
      <point x="696" y="107"/>
      <point x="709" y="106"/>
      <point x="727" y="104" type="curve"/>
      <point x="727" y="155" type="line"/>
      <point x="696" y="152"/>
      <point x="683" y="152"/>
      <point x="674" y="153" type="curve"/>
      <point x="672" y="153" type="line"/>
      <point x="655" y="153" type="line"/>
      <point x="655" y="230" type="line" smooth="yes"/>
      <point x="655" y="299"/>
      <point x="656" y="341"/>
      <point x="660" y="413" type="curve"/>
      <point x="651" y="416" type="line"/>
      <point x="602" y="400" type="line"/>
      <point x="444" y="172" type="line"/>
      <point x="429" y="146"/>
      <point x="426" y="140"/>
      <point x="417" y="122" type="curve"/>
      <point x="422" y="107" type="line"/>
    </contour>
    <contour>
      <point x="595" y="153" type="line"/>
      <point x="466" y="153" type="line"/>
      <point x="595" y="345" type="line"/>
    </contour>
    <contour>
      <point x="208" y="0" type="line"/>
      <point x="659" y="689" type="line"/>
      <point x="607" y="689" type="line"/>
      <point x="156" y="0" type="line"/>
    </contour>
    <contour>
      <point x="50" y="299" type="line"/>
      <point x="50" y="273" type="line"/>
      <point x="78" y="274"/>
      <point x="102" y="274"/>
      <point x="111" y="275" type="curve"/>
      <point x="133" y="276"/>
      <point x="148" y="276"/>
      <point x="156" y="276" type="curve" smooth="yes"/>
      <point x="163" y="276"/>
      <point x="178" y="276"/>
      <point x="200" y="275" type="curve"/>
      <point x="209" y="274"/>
      <point x="237" y="274"/>
      <point x="268" y="273" type="curve"/>
      <point x="268" y="299" type="line"/>
      <point x="235" y="299" type="line" smooth="yes"/>
      <point x="199" y="299"/>
      <point x="193" y="311"/>
      <point x="193" y="379" type="curve" smooth="yes"/>
      <point x="193" y="485" type="line" smooth="yes"/>
      <point x="193" y="550"/>
      <point x="195" y="599"/>
      <point x="201" y="689" type="curve"/>
      <point x="191" y="692" type="line"/>
      <point x="30" y="634" type="line"/>
      <point x="34" y="602" type="line"/>
      <point x="41" y="602" type="line"/>
      <point x="121" y="636" type="line"/>
      <point x="124" y="636" type="line"/>
      <point x="128" y="635"/>
      <point x="129" y="631"/>
      <point x="129" y="617" type="curve" smooth="yes"/>
      <point x="129" y="379" type="line" smooth="yes"/>
      <point x="129" y="312"/>
      <point x="122" y="299"/>
      <point x="86" y="299" type="curve" smooth="yes"/>
    </contour>
  </outline>
</glyph>
<glyph name="onehalf" format="1">
  <advance width="750"/>
  <unicode hex="00BD"/>
  <outline>
    <contour>
      <point x="174" y="0" type="line"/>
      <point x="625" y="689" type="line"/>
      <point x="573" y="689" type="line"/>
      <point x="122" y="0" type="line"/>
    </contour>
    <contour>
      <point x="35" y="299" type="line"/>
      <point x="35" y="273" type="line"/>
      <point x="63" y="274"/>
      <point x="87" y="274"/>
      <point x="96" y="275" type="curve"/>
      <point x="118" y="276"/>
      <point x="133" y="276"/>
      <point x="141" y="276" type="curve" smooth="yes"/>
      <point x="148" y="276"/>
      <point x="163" y="276"/>
      <point x="185" y="275" type="curve"/>
      <point x="194" y="274"/>
      <point x="222" y="274"/>
      <point x="253" y="273" type="curve"/>
      <point x="253" y="299" type="line"/>
      <point x="220" y="299" type="line" smooth="yes"/>
      <point x="184" y="299"/>
      <point x="178" y="311"/>
      <point x="178" y="379" type="curve" smooth="yes"/>
      <point x="178" y="485" type="line" smooth="yes"/>
      <point x="178" y="550"/>
      <point x="180" y="599"/>
      <point x="186" y="689" type="curve"/>
      <point x="176" y="692" type="line"/>
      <point x="15" y="634" type="line"/>
      <point x="19" y="602" type="line"/>
      <point x="26" y="602" type="line"/>
      <point x="106" y="636" type="line"/>
      <point x="109" y="636" type="line"/>
      <point x="113" y="635"/>
      <point x="114" y="631"/>
      <point x="114" y="617" type="curve" smooth="yes"/>
      <point x="114" y="379" type="line" smooth="yes"/>
      <point x="114" y="312"/>
      <point x="107" y="299"/>
      <point x="71" y="299" type="curve" smooth="yes"/>
    </contour>
    <contour>
      <point x="449" y="282" type="line"/>
      <point x="473" y="282" type="line"/>
      <point x="486" y="317" type="line" smooth="yes"/>
      <point x="498" y="349"/>
      <point x="520" y="364"/>
      <point x="557" y="364" type="curve" smooth="yes"/>
      <point x="611" y="364"/>
      <point x="642" y="334"/>
      <point x="642" y="281" type="curve" smooth="yes"/>
      <point x="642" y="234"/>
      <point x="616" y="192"/>
      <point x="542" y="121" type="curve" smooth="yes"/>
      <point x="434" y="17" type="line"/>
      <point x="434" y="-3" type="line"/>
      <point x="555" y="0"/>
      <point x="555" y="0"/>
      <point x="578" y="0" type="curve" smooth="yes"/>
      <point x="600" y="0"/>
      <point x="640" y="-1"/>
      <point x="735" y="-3" type="curve"/>
      <point x="733" y="9"/>
      <point x="733" y="15"/>
      <point x="733" y="25" type="curve" smooth="yes"/>
      <point x="733" y="34"/>
      <point x="733" y="42"/>
      <point x="735" y="58" type="curve"/>
      <point x="701" y="54"/>
      <point x="678" y="53"/>
      <point x="641" y="53" type="curve" smooth="yes"/>
      <point x="519" y="53" type="line"/>
      <point x="634" y="162" type="line" smooth="yes"/>
      <point x="686" y="212"/>
      <point x="710" y="255"/>
      <point x="710" y="301" type="curve" smooth="yes"/>
      <point x="710" y="368"/>
      <point x="655" y="413"/>
      <point x="572" y="413" type="curve" smooth="yes"/>
      <point x="524" y="413"/>
      <point x="493" y="401"/>
      <point x="461" y="371" type="curve"/>
    </contour>
  </outline>
</glyph>
<glyph name="threequarters" format="1">
  <advance width="750"/>
  <unicode hex="00BE"/>
  <outline>
    <contour>
      <point x="41" y="578" type="line"/>
      <point x="66" y="578" type="line"/>
      <point x="76" y="618"/>
      <point x="108" y="643"/>
      <point x="151" y="643" type="curve" smooth="yes"/>
      <point x="192" y="643"/>
      <point x="225" y="615"/>
      <point x="225" y="580" type="curve" smooth="yes"/>
      <point x="225" y="540"/>
      <point x="188" y="504"/>
      <point x="145" y="504" type="curve" smooth="yes"/>
      <point x="131" y="504" type="line"/>
      <point x="129" y="505"/>
      <point x="121" y="505"/>
      <point x="113" y="505" type="curve"/>
      <point x="103" y="462" type="line"/>
      <point x="113" y="458" type="line"/>
      <point x="128" y="467"/>
      <point x="142" y="471"/>
      <point x="162" y="471" type="curve" smooth="yes"/>
      <point x="217" y="471"/>
      <point x="247" y="443"/>
      <point x="247" y="391" type="curve" smooth="yes"/>
      <point x="247" y="335"/>
      <point x="209" y="298"/>
      <point x="152" y="298" type="curve" smooth="yes"/>
      <point x="97" y="298"/>
      <point x="67" y="322"/>
      <point x="46" y="384" type="curve"/>
      <point x="15" y="376" type="line"/>
      <point x="19" y="362"/>
      <point x="21" y="356"/>
      <point x="24" y="347" type="curve" smooth="yes"/>
      <point x="36" y="310"/>
      <point x="39" y="300"/>
      <point x="41" y="282" type="curve"/>
      <point x="84" y="270"/>
      <point x="108" y="266"/>
      <point x="137" y="266" type="curve" smooth="yes"/>
      <point x="232" y="266"/>
      <point x="313" y="332"/>
      <point x="313" y="410" type="curve" smooth="yes"/>
      <point x="313" y="463"/>
      <point x="283" y="490"/>
      <point x="213" y="501" type="curve"/>
      <point x="265" y="538"/>
      <point x="285" y="565"/>
      <point x="285" y="600" type="curve" smooth="yes"/>
      <point x="285" y="654"/>
      <point x="237" y="689"/>
      <point x="164" y="689" type="curve" smooth="yes"/>
      <point x="120" y="689"/>
      <point x="91" y="678"/>
      <point x="60" y="649" type="curve"/>
    </contour>
    <contour>
      <point x="217" y="0" type="line"/>
      <point x="668" y="689" type="line"/>
      <point x="616" y="689" type="line"/>
      <point x="165" y="0" type="line"/>
    </contour>
    <contour>
      <point x="603" y="107" type="line"/>
      <point x="603" y="71" type="line" smooth="yes"/>
      <point x="603" y="34"/>
      <point x="588" y="22"/>
      <point x="544" y="22" type="curve" smooth="yes"/>
      <point x="523" y="22" type="line"/>
      <point x="523" y="-3" type="line"/>
      <point x="577" y="-1"/>
      <point x="603" y="0"/>
      <point x="630" y="0" type="curve" smooth="yes"/>
      <point x="663" y="0"/>
      <point x="686" y="-1"/>
      <point x="730" y="-3" type="curve"/>
      <point x="730" y="22" type="line"/>
      <point x="709" y="22" type="line" smooth="yes"/>
      <point x="679" y="22"/>
      <point x="665" y="38"/>
      <point x="665" y="71" type="curve" smooth="yes"/>
      <point x="665" y="107" type="line"/>
      <point x="704" y="107"/>
      <point x="717" y="106"/>
      <point x="735" y="104" type="curve"/>
      <point x="735" y="155" type="line"/>
      <point x="704" y="152"/>
      <point x="691" y="152"/>
      <point x="682" y="153" type="curve"/>
      <point x="680" y="153" type="line"/>
      <point x="663" y="153" type="line"/>
      <point x="663" y="230" type="line" smooth="yes"/>
      <point x="663" y="299"/>
      <point x="664" y="341"/>
      <point x="668" y="413" type="curve"/>
      <point x="659" y="416" type="line"/>
      <point x="610" y="400" type="line"/>
      <point x="452" y="172" type="line"/>
      <point x="437" y="146"/>
      <point x="434" y="140"/>
      <point x="425" y="122" type="curve"/>
      <point x="430" y="107" type="line"/>
    </contour>
    <contour>
      <point x="603" y="153" type="line"/>
      <point x="474" y="153" type="line"/>
      <point x="603" y="345" type="line"/>
    </contour>
  </outline>
</glyph>
<glyph name="questiondown" format="1">
  <advance width="444"/>
  <unicode hex="00BF"/>
  <outline>
    <contour>
      <point x="395" y="-83" type="line"/>
      <point x="366" y="-75" type="line"/>
      <point x="346" y="-123" type="line" smooth="yes"/>
      <point x="335" y="-150"/>
      <point x="303" y="-165"/>
      <point x="259" y="-165" type="curve" smooth="yes"/>
      <point x="187" y="-165"/>
      <point x="136" y="-120"/>
      <point x="136" y="-56" type="curve" smooth="yes"/>
      <point x="136" y="-16"/>
      <point x="154" y="16"/>
      <point x="213" y="81" type="curve" smooth="yes"/>
      <point x="273" y="147"/>
      <point x="290" y="175"/>
      <point x="290" y="209" type="curve" smooth="yes"/>
      <point x="290" y="238"/>
      <point x="276" y="263"/>
      <point x="246" y="282" type="curve"/>
      <point x="225" y="268" type="line"/>
      <point x="241" y="248"/>
      <point x="247" y="236"/>
      <point x="247" y="220" type="curve" smooth="yes"/>
      <point x="247" y="187"/>
      <point x="234" y="169"/>
      <point x="153" y="96" type="curve" smooth="yes"/>
      <point x="67" y="18"/>
      <point x="43" y="-20"/>
      <point x="43" y="-77" type="curve" smooth="yes"/>
      <point x="43" y="-164"/>
      <point x="121" y="-231"/>
      <point x="224" y="-231" type="curve" smooth="yes"/>
      <point x="269" y="-231"/>
      <point x="304" y="-222"/>
      <point x="357" y="-196" type="curve"/>
    </contour>
    <contour>
      <point x="241" y="469" type="curve" smooth="yes"/>
      <point x="211" y="469"/>
      <point x="184" y="441"/>
      <point x="184" y="411" type="curve" smooth="yes"/>
      <point x="184" y="381"/>
      <point x="211" y="353"/>
      <point x="240" y="353" type="curve" smooth="yes"/>
      <point x="272" y="353"/>
      <point x="300" y="380"/>
      <point x="300" y="410" type="curve" smooth="yes"/>
      <point x="300" y="441"/>
      <point x="272" y="469"/>
    </contour>
  </outline>
</glyph>
<glyph name="Agrave" format="1">
  <advance width="778"/>
  <unicode hex="00C0"/>
  <outline>
    <contour>
      <point x="408" y="700" type="line"/>
      <point x="376" y="700" type="line"/>
      <point x="337" y="605" type="line"/>
      <point x="284" y="484" type="line"/>
      <point x="106" y="79" type="line" smooth="yes"/>
      <point x="94" y="50"/>
      <point x="74" y="32"/>
      <point x="52" y="30" type="curve" smooth="yes"/>
      <point x="15" y="27" type="line"/>
      <point x="15" y="-3" type="line"/>
      <point x="108" y="0"/>
      <point x="108" y="0"/>
      <point x="124" y="0" type="curve" smooth="yes"/>
      <point x="137" y="0"/>
      <point x="137" y="0"/>
      <point x="245" y="-3" type="curve"/>
      <point x="245" y="27" type="line"/>
      <point x="208" y="30" type="line" smooth="yes"/>
      <point x="173" y="33"/>
      <point x="160" y="40"/>
      <point x="160" y="56" type="curve" smooth="yes"/>
      <point x="160" y="69"/>
      <point x="174" y="112"/>
      <point x="195" y="162" type="curve" smooth="yes"/>
      <point x="223" y="229" type="line"/>
      <point x="511" y="229" type="line"/>
      <point x="557" y="114" type="line" smooth="yes"/>
      <point x="574" y="72"/>
      <point x="578" y="59"/>
      <point x="578" y="50" type="curve" smooth="yes"/>
      <point x="578" y="39"/>
      <point x="562" y="32"/>
      <point x="537" y="30" type="curve" smooth="yes"/>
      <point x="490" y="27" type="line"/>
      <point x="490" y="-3" type="line"/>
      <point x="613" y="0"/>
      <point x="613" y="0"/>
      <point x="629" y="0" type="curve" smooth="yes"/>
      <point x="648" y="0"/>
      <point x="648" y="0"/>
      <point x="756" y="-3" type="curve"/>
      <point x="756" y="27" type="line"/>
      <point x="722" y="30" type="line"/>
      <point x="696" y="34"/>
      <point x="685" y="51"/>
      <point x="650" y="132" type="curve" smooth="yes"/>
    </contour>
    <contour>
      <point x="240" y="269" type="line"/>
      <point x="367" y="567" type="line"/>
      <point x="493" y="269" type="line"/>
    </contour>
    <contour>
      <point x="430" y="737" type="line"/>
      <point x="470" y="737" type="line"/>
      <point x="332" y="875" type="line" smooth="yes"/>
      <point x="311" y="896"/>
      <point x="291" y="908"/>
      <point x="277" y="908" type="curve" smooth="yes"/>
      <point x="260" y="908"/>
      <point x="246" y="893"/>
      <point x="246" y="874" type="curve" smooth="yes"/>
      <point x="246" y="856"/>
      <point x="253" y="848"/>
      <point x="286" y="827" type="curve" smooth="yes"/>
    </contour>
  </outline>
</glyph>
<glyph name="Aacute" format="1">
  <advance width="778"/>
  <unicode hex="00C1"/>
  <outline>
    <contour>
      <point x="408" y="700" type="line"/>
      <point x="376" y="700" type="line"/>
      <point x="337" y="605" type="line"/>
      <point x="284" y="484" type="line"/>
      <point x="106" y="79" type="line" smooth="yes"/>
      <point x="94" y="50"/>
      <point x="74" y="32"/>
      <point x="52" y="30" type="curve" smooth="yes"/>
      <point x="15" y="27" type="line"/>
      <point x="15" y="-3" type="line"/>
      <point x="108" y="0"/>
      <point x="108" y="0"/>
      <point x="124" y="0" type="curve" smooth="yes"/>
      <point x="137" y="0"/>
      <point x="137" y="0"/>
      <point x="245" y="-3" type="curve"/>
      <point x="245" y="27" type="line"/>
      <point x="208" y="30" type="line" smooth="yes"/>
      <point x="173" y="33"/>
      <point x="160" y="40"/>
      <point x="160" y="56" type="curve" smooth="yes"/>
      <point x="160" y="69"/>
      <point x="174" y="112"/>
      <point x="195" y="162" type="curve" smooth="yes"/>
      <point x="223" y="229" type="line"/>
      <point x="511" y="229" type="line"/>
      <point x="557" y="114" type="line" smooth="yes"/>
      <point x="574" y="72"/>
      <point x="578" y="59"/>
      <point x="578" y="50" type="curve" smooth="yes"/>
      <point x="578" y="39"/>
      <point x="562" y="32"/>
      <point x="537" y="30" type="curve" smooth="yes"/>
      <point x="490" y="27" type="line"/>
      <point x="490" y="-3" type="line"/>
      <point x="613" y="0"/>
      <point x="613" y="0"/>
      <point x="629" y="0" type="curve" smooth="yes"/>
      <point x="648" y="0"/>
      <point x="648" y="0"/>
      <point x="756" y="-3" type="curve"/>
      <point x="756" y="27" type="line"/>
      <point x="722" y="30" type="line"/>
      <point x="696" y="34"/>
      <point x="685" y="51"/>
      <point x="650" y="132" type="curve" smooth="yes"/>
    </contour>
    <contour>
      <point x="240" y="269" type="line"/>
      <point x="367" y="567" type="line"/>
      <point x="493" y="269" type="line"/>
    </contour>
    <contour>
      <point x="307" y="737" type="line"/>
      <point x="347" y="737" type="line"/>
      <point x="491" y="827" type="line" smooth="yes"/>
      <point x="524" y="848"/>
      <point x="531" y="856"/>
      <point x="531" y="874" type="curve" smooth="yes"/>
      <point x="531" y="893"/>
      <point x="517" y="908"/>
      <point x="500" y="908" type="curve" smooth="yes"/>
      <point x="485" y="908"/>
      <point x="467" y="897"/>
      <point x="445" y="875" type="curve" smooth="yes"/>
    </contour>
  </outline>
</glyph>
<glyph name="Atilde" format="1">
  <advance width="778"/>
  <unicode hex="00C3"/>
  <outline>
    <contour>
      <point x="408" y="700" type="line"/>
      <point x="376" y="700" type="line"/>
      <point x="337" y="605" type="line"/>
      <point x="284" y="484" type="line"/>
      <point x="106" y="79" type="line" smooth="yes"/>
      <point x="94" y="50"/>
      <point x="74" y="32"/>
      <point x="52" y="30" type="curve" smooth="yes"/>
      <point x="15" y="27" type="line"/>
      <point x="15" y="-3" type="line"/>
      <point x="108" y="0"/>
      <point x="108" y="0"/>
      <point x="124" y="0" type="curve" smooth="yes"/>
      <point x="137" y="0"/>
      <point x="137" y="0"/>
      <point x="245" y="-3" type="curve"/>
      <point x="245" y="27" type="line"/>
      <point x="208" y="30" type="line" smooth="yes"/>
      <point x="173" y="33"/>
      <point x="160" y="40"/>
      <point x="160" y="56" type="curve" smooth="yes"/>
      <point x="160" y="69"/>
      <point x="174" y="112"/>
      <point x="195" y="162" type="curve" smooth="yes"/>
      <point x="223" y="229" type="line"/>
      <point x="511" y="229" type="line"/>
      <point x="557" y="114" type="line" smooth="yes"/>
      <point x="574" y="72"/>
      <point x="578" y="59"/>
      <point x="578" y="50" type="curve" smooth="yes"/>
      <point x="578" y="39"/>
      <point x="562" y="32"/>
      <point x="537" y="30" type="curve" smooth="yes"/>
      <point x="490" y="27" type="line"/>
      <point x="490" y="-3" type="line"/>
      <point x="613" y="0"/>
      <point x="613" y="0"/>
      <point x="629" y="0" type="curve" smooth="yes"/>
      <point x="648" y="0"/>
      <point x="648" y="0"/>
      <point x="756" y="-3" type="curve"/>
      <point x="756" y="27" type="line"/>
      <point x="722" y="30" type="line"/>
      <point x="696" y="34"/>
      <point x="685" y="51"/>
      <point x="650" y="132" type="curve" smooth="yes"/>
    </contour>
    <contour>
      <point x="240" y="269" type="line"/>
      <point x="367" y="567" type="line"/>
      <point x="493" y="269" type="line"/>
    </contour>
    <contour>
      <point x="526" y="871" type="line"/>
      <point x="511" y="834"/>
      <point x="495" y="821"/>
      <point x="467" y="821" type="curve" smooth="yes"/>
      <point x="455" y="821"/>
      <point x="444" y="825"/>
      <point x="420" y="836" type="curve" smooth="yes"/>
      <point x="367" y="862"/>
      <point x="355" y="866"/>
      <point x="331" y="866" type="curve" smooth="yes"/>
      <point x="276" y="866"/>
      <point x="239" y="831"/>
      <point x="225" y="766" type="curve"/>
      <point x="254" y="766" type="line"/>
      <point x="267" y="797"/>
      <point x="283" y="811"/>
      <point x="307" y="811" type="curve" smooth="yes"/>
      <point x="321" y="811"/>
      <point x="341" y="804"/>
      <point x="378" y="785" type="curve" smooth="yes"/>
      <point x="408" y="771"/>
      <point x="424" y="766"/>
      <point x="446" y="766" type="curve" smooth="yes"/>
      <point x="503" y="766"/>
      <point x="551" y="813"/>
      <point x="555" y="871" type="curve"/>
    </contour>
  </outline>
</glyph>
<glyph name="Adieresis" format="1">
  <advance width="778"/>
  <unicode hex="00C4"/>
  <outline>
    <contour>
      <point x="408" y="700" type="line"/>
      <point x="376" y="700" type="line"/>
      <point x="337" y="605" type="line"/>
      <point x="284" y="484" type="line"/>
      <point x="106" y="79" type="line" smooth="yes"/>
      <point x="94" y="50"/>
      <point x="74" y="32"/>
      <point x="52" y="30" type="curve" smooth="yes"/>
      <point x="15" y="27" type="line"/>
      <point x="15" y="-3" type="line"/>
      <point x="108" y="0"/>
      <point x="108" y="0"/>
      <point x="124" y="0" type="curve" smooth="yes"/>
      <point x="137" y="0"/>
      <point x="137" y="0"/>
      <point x="245" y="-3" type="curve"/>
      <point x="245" y="27" type="line"/>
      <point x="208" y="30" type="line" smooth="yes"/>
      <point x="173" y="33"/>
      <point x="160" y="40"/>
      <point x="160" y="56" type="curve" smooth="yes"/>
      <point x="160" y="69"/>
      <point x="174" y="112"/>
      <point x="195" y="162" type="curve" smooth="yes"/>
      <point x="223" y="229" type="line"/>
      <point x="511" y="229" type="line"/>
      <point x="557" y="114" type="line" smooth="yes"/>
      <point x="574" y="72"/>
      <point x="578" y="59"/>
      <point x="578" y="50" type="curve" smooth="yes"/>
      <point x="578" y="39"/>
      <point x="562" y="32"/>
      <point x="537" y="30" type="curve" smooth="yes"/>
      <point x="490" y="27" type="line"/>
      <point x="490" y="-3" type="line"/>
      <point x="613" y="0"/>
      <point x="613" y="0"/>
      <point x="629" y="0" type="curve" smooth="yes"/>
      <point x="648" y="0"/>
      <point x="648" y="0"/>
      <point x="756" y="-3" type="curve"/>
      <point x="756" y="27" type="line"/>
      <point x="722" y="30" type="line"/>
      <point x="696" y="34"/>
      <point x="685" y="51"/>
      <point x="650" y="132" type="curve" smooth="yes"/>
    </contour>
    <contour>
      <point x="240" y="269" type="line"/>
      <point x="367" y="567" type="line"/>
      <point x="493" y="269" type="line"/>
    </contour>
    <contour>
      <point x="291" y="868" type="curve" smooth="yes"/>
      <point x="260" y="868"/>
      <point x="240" y="848"/>
      <point x="240" y="818" type="curve" smooth="yes"/>
      <point x="240" y="788"/>
      <point x="260" y="768"/>
      <point x="290" y="768" type="curve" smooth="yes"/>
      <point x="320" y="768"/>
      <point x="340" y="788"/>
      <point x="340" y="818" type="curve" smooth="yes"/>
      <point x="340" y="847"/>
      <point x="320" y="868"/>
    </contour>
    <contour>
      <point x="490" y="868" type="curve" smooth="yes"/>
      <point x="459" y="868"/>
      <point x="439" y="848"/>
      <point x="439" y="818" type="curve" smooth="yes"/>
      <point x="439" y="788"/>
      <point x="459" y="768"/>
      <point x="489" y="768" type="curve" smooth="yes"/>
      <point x="519" y="768"/>
      <point x="539" y="788"/>
      <point x="539" y="818" type="curve" smooth="yes"/>
      <point x="539" y="847"/>
      <point x="519" y="868"/>
    </contour>
  </outline>
</glyph>
<glyph name="Aring" format="1">
  <advance width="778"/>
  <unicode hex="00C5"/>
  <outline>
    <contour>
      <point x="408" y="700" type="line"/>
      <point x="376" y="700" type="line"/>
      <point x="337" y="605" type="line"/>
      <point x="284" y="484" type="line"/>
      <point x="106" y="79" type="line" smooth="yes"/>
      <point x="94" y="50"/>
      <point x="74" y="32"/>
      <point x="52" y="30" type="curve" smooth="yes"/>
      <point x="15" y="27" type="line"/>
      <point x="15" y="-3" type="line"/>
      <point x="108" y="0"/>
      <point x="108" y="0"/>
      <point x="124" y="0" type="curve" smooth="yes"/>
      <point x="137" y="0"/>
      <point x="137" y="0"/>
      <point x="245" y="-3" type="curve"/>
      <point x="245" y="27" type="line"/>
      <point x="208" y="30" type="line" smooth="yes"/>
      <point x="173" y="33"/>
      <point x="160" y="40"/>
      <point x="160" y="56" type="curve" smooth="yes"/>
      <point x="160" y="69"/>
      <point x="174" y="112"/>
      <point x="195" y="162" type="curve" smooth="yes"/>
      <point x="223" y="229" type="line"/>
      <point x="511" y="229" type="line"/>
      <point x="557" y="114" type="line" smooth="yes"/>
      <point x="574" y="72"/>
      <point x="578" y="59"/>
      <point x="578" y="50" type="curve" smooth="yes"/>
      <point x="578" y="39"/>
      <point x="562" y="32"/>
      <point x="537" y="30" type="curve" smooth="yes"/>
      <point x="490" y="27" type="line"/>
      <point x="490" y="-3" type="line"/>
      <point x="613" y="0"/>
      <point x="613" y="0"/>
      <point x="629" y="0" type="curve" smooth="yes"/>
      <point x="648" y="0"/>
      <point x="648" y="0"/>
      <point x="756" y="-3" type="curve"/>
      <point x="756" y="27" type="line"/>
      <point x="722" y="30" type="line"/>
      <point x="696" y="34"/>
      <point x="685" y="51"/>
      <point x="650" y="132" type="curve" smooth="yes"/>
    </contour>
    <contour>
      <point x="240" y="269" type="line"/>
      <point x="367" y="567" type="line"/>
      <point x="493" y="269" type="line"/>
    </contour>
    <contour>
      <point x="392" y="943" type="curve" smooth="yes"/>
      <point x="335" y="943"/>
      <point x="290" y="899"/>
      <point x="290" y="844" type="curve" smooth="yes"/>
      <point x="290" y="787"/>
      <point x="334" y="743"/>
      <point x="390" y="743" type="curve" smooth="yes"/>
      <point x="445" y="743"/>
      <point x="490" y="787"/>
      <point x="490" y="843" type="curve" smooth="yes"/>
      <point x="490" y="898"/>
      <point x="445" y="943"/>
    </contour>
    <contour>
      <point x="391" y="907" type="curve" smooth="yes"/>
      <point x="427" y="907"/>
      <point x="452" y="881"/>
      <point x="452" y="843" type="curve" smooth="yes"/>
      <point x="452" y="805"/>
      <point x="427" y="779"/>
      <point x="390" y="779" type="curve" smooth="yes"/>
      <point x="352" y="779"/>
      <point x="328" y="804"/>
      <point x="328" y="844" type="curve" smooth="yes"/>
      <point x="328" y="882"/>
      <point x="353" y="907"/>
    </contour>
  </outline>
</glyph>
<glyph name="AE" format="1">
  <advance width="944"/>
  <unicode hex="00C6"/>
  <outline>
    <contour>
      <point x="-10" y="27" type="line"/>
      <point x="-10" y="-3" type="line"/>
      <point x="104" y="0"/>
      <point x="104" y="0"/>
      <point x="117" y="0" type="curve" smooth="yes"/>
      <point x="137" y="0"/>
      <point x="138" y="0"/>
      <point x="215" y="-3" type="curve"/>
      <point x="215" y="27" type="line"/>
      <point x="179" y="30" type="line" smooth="yes"/>
      <point x="144" y="33"/>
      <point x="126" y="43"/>
      <point x="126" y="59" type="curve" smooth="yes"/>
      <point x="126" y="75"/>
      <point x="131" y="86"/>
      <point x="154" y="128" type="curve" smooth="yes"/>
      <point x="218" y="242" type="line"/>
      <point x="323" y="245"/>
      <point x="323" y="245"/>
      <point x="339" y="245" type="curve" smooth="yes"/>
      <point x="356" y="245"/>
      <point x="383" y="244"/>
      <point x="462" y="242" type="curve"/>
      <point x="462" y="120" type="line" smooth="yes"/>
      <point x="462" y="68"/>
      <point x="455" y="47"/>
      <point x="436" y="36" type="curve" smooth="yes"/>
      <point x="408" y="20" type="line"/>
      <point x="408" y="-3" type="line"/>
      <point x="477" y="0" type="line"/>
      <point x="612" y="-1" type="line" smooth="yes"/>
      <point x="669" y="-2"/>
      <point x="710" y="-3"/>
      <point x="724" y="-3" type="curve" smooth="yes"/>
      <point x="755" y="-3"/>
      <point x="755" y="-3"/>
      <point x="892" y="0" type="curve"/>
      <point x="892" y="58"/>
      <point x="898" y="112"/>
      <point x="908" y="164" type="curve"/>
      <point x="873" y="164" type="line"/>
      <point x="871" y="148"/>
      <point x="869" y="134"/>
      <point x="868" y="130" type="curve"/>
      <point x="862" y="87"/>
      <point x="849" y="56"/>
      <point x="835" y="51" type="curve" smooth="yes"/>
      <point x="814" y="44"/>
      <point x="741" y="39"/>
      <point x="651" y="39" type="curve" smooth="yes"/>
      <point x="599" y="39"/>
      <point x="581" y="41"/>
      <point x="552" y="47" type="curve"/>
      <point x="552" y="327" type="line"/>
      <point x="580" y="329"/>
      <point x="610" y="330"/>
      <point x="655" y="330" type="curve" smooth="yes"/>
      <point x="729" y="330"/>
      <point x="756" y="327"/>
      <point x="774" y="318" type="curve"/>
      <point x="782" y="293" type="line"/>
      <point x="787" y="234" type="line"/>
      <point x="817" y="234" type="line"/>
      <point x="814" y="327"/>
      <point x="814" y="327"/>
      <point x="814" y="345" type="curve" smooth="yes"/>
      <point x="814" y="361"/>
      <point x="814" y="361"/>
      <point x="817" y="461" type="curve"/>
      <point x="787" y="461" type="line"/>
      <point x="782" y="409" type="line" smooth="yes"/>
      <point x="781" y="400"/>
      <point x="778" y="391"/>
      <point x="774" y="383" type="curve"/>
      <point x="756" y="375"/>
      <point x="728" y="372"/>
      <point x="662" y="372" type="curve" smooth="yes"/>
      <point x="620" y="372"/>
      <point x="586" y="373"/>
      <point x="552" y="375" type="curve"/>
      <point x="552" y="642" type="line"/>
      <point x="583" y="649"/>
      <point x="600" y="650"/>
      <point x="669" y="650" type="curve" smooth="yes"/>
      <point x="726" y="650"/>
      <point x="782" y="645"/>
      <point x="814" y="636" type="curve" smooth="yes"/>
      <point x="838" y="630"/>
      <point x="841" y="625"/>
      <point x="841" y="602" type="curve" smooth="yes"/>
      <point x="841" y="537" type="line"/>
      <point x="876" y="537" type="line"/>
      <point x="876" y="597"/>
      <point x="881" y="645"/>
      <point x="892" y="689" type="curve"/>
      <point x="842" y="691"/>
      <point x="814" y="692"/>
      <point x="769" y="692" type="curve" smooth="yes"/>
      <point x="729" y="692" type="line" smooth="yes"/>
      <point x="577" y="689"/>
      <point x="560" y="689"/>
      <point x="543" y="689" type="curve"/>
      <point x="543" y="689"/>
      <point x="286" y="692"/>
      <point x="286" y="692" type="curve"/>
      <point x="286" y="662" type="line"/>
      <point x="330" y="659" type="line" smooth="yes"/>
      <point x="371" y="656"/>
      <point x="384" y="653"/>
      <point x="384" y="646" type="curve" smooth="yes"/>
      <point x="384" y="638"/>
      <point x="377" y="620"/>
      <point x="365" y="599" type="curve" smooth="yes"/>
      <point x="76" y="87" type="line" smooth="yes"/>
      <point x="56" y="53"/>
      <point x="38" y="34"/>
      <point x="24" y="32" type="curve" smooth="yes"/>
    </contour>
    <contour>
      <point x="450" y="655" type="line"/>
      <point x="462" y="655" type="line"/>
      <point x="462" y="283" type="line"/>
      <point x="242" y="283" type="line"/>
    </contour>
  </outline>
</glyph>
<glyph name="Ccedilla" format="1">
  <advance width="709"/>
  <unicode hex="00C7"/>
  <outline>
    <contour>
      <point x="401" y="-20" type="line"/>
      <point x="416" y="-20" type="line" smooth="yes"/>
      <point x="498" y="-20"/>
      <point x="573" y="-2"/>
      <point x="642" y="34" type="curve"/>
      <point x="670" y="84" type="line"/>
      <point x="661" y="94" type="line"/>
      <point x="599" y="54"/>
      <point x="530" y="34"/>
      <point x="454" y="34" type="curve" smooth="yes"/>
      <point x="259" y="34"/>
      <point x="129" y="164"/>
      <point x="129" y="361" type="curve" smooth="yes"/>
      <point x="129" y="545"/>
      <point x="243" y="667"/>
      <point x="415" y="667" type="curve" smooth="yes"/>
      <point x="513" y="667"/>
      <point x="614" y="627"/>
      <point x="614" y="588" type="curve" smooth="yes"/>
      <point x="614" y="516" type="line"/>
      <point x="645" y="516" type="line"/>
      <point x="646" y="566"/>
      <point x="650" y="602"/>
      <point x="664" y="668" type="curve"/>
      <point x="579" y="696"/>
      <point x="506" y="709"/>
      <point x="433" y="709" type="curve" smooth="yes"/>
      <point x="346" y="709"/>
      <point x="263" y="688"/>
      <point x="196" y="649" type="curve" smooth="yes"/>
      <point x="82" y="582"/>
      <point x="22" y="476"/>
      <point x="22" y="342" type="curve" smooth="yes"/>
      <point x="22" y="140"/>
      <point x="150" y="6"/>
      <point x="368" y="-18" type="curve"/>
      <point x="329" y="-108" type="line"/>
      <point x="336" y="-114" type="line"/>
      <point x="355" y="-109"/>
      <point x="364" y="-107"/>
      <point x="377" y="-107" type="curve" smooth="yes"/>
      <point x="401" y="-107"/>
      <point x="417" y="-123"/>
      <point x="417" y="-146" type="curve" smooth="yes"/>
      <point x="417" y="-174"/>
      <point x="398" y="-189"/>
      <point x="363" y="-189" type="curve" smooth="yes"/>
      <point x="345" y="-189"/>
      <point x="331" y="-187"/>
      <point x="298" y="-178" type="curve"/>
      <point x="284" y="-209" type="line"/>
      <point x="327" y="-222"/>
      <point x="341" y="-225"/>
      <point x="368" y="-225" type="curve" smooth="yes"/>
      <point x="444" y="-225"/>
      <point x="492" y="-193"/>
      <point x="492" y="-141" type="curve" smooth="yes"/>
      <point x="492" y="-98"/>
      <point x="459" y="-71"/>
      <point x="407" y="-71" type="curve" smooth="yes"/>
      <point x="397" y="-71"/>
      <point x="390" y="-72"/>
      <point x="380" y="-75" type="curve"/>
    </contour>
  </outline>
</glyph>
<glyph name="Igrave" format="1">
  <advance width="337"/>
  <unicode hex="00CC"/>
  <outline>
    <contour>
      <point x="216" y="569" type="line" smooth="yes"/>
      <point x="216" y="648"/>
      <point x="221" y="656"/>
      <point x="267" y="659" type="curve" smooth="yes"/>
      <point x="315" y="662" type="line"/>
      <point x="315" y="692" type="line"/>
      <point x="242" y="689"/>
      <point x="220" y="689"/>
      <point x="168" y="689" type="curve" smooth="yes"/>
      <point x="118" y="689"/>
      <point x="94" y="690"/>
      <point x="22" y="692" type="curve"/>
      <point x="22" y="662" type="line"/>
      <point x="70" y="659" type="line" smooth="yes"/>
      <point x="116" y="656"/>
      <point x="121" y="648"/>
      <point x="121" y="569" type="curve" smooth="yes"/>
      <point x="121" y="120" type="line" smooth="yes"/>
      <point x="121" y="41"/>
      <point x="116" y="33"/>
      <point x="70" y="30" type="curve" smooth="yes"/>
      <point x="22" y="27" type="line"/>
      <point x="22" y="-3" type="line"/>
      <point x="81" y="-1"/>
      <point x="116" y="0"/>
      <point x="168" y="0" type="curve" smooth="yes"/>
      <point x="220" y="0"/>
      <point x="256" y="-1"/>
      <point x="315" y="-3" type="curve"/>
      <point x="315" y="27" type="line"/>
      <point x="267" y="30" type="line" smooth="yes"/>
      <point x="221" y="33"/>
      <point x="216" y="41"/>
      <point x="216" y="120" type="curve" smooth="yes"/>
    </contour>
    <contour>
      <point x="209" y="737" type="line"/>
      <point x="249" y="737" type="line"/>
      <point x="111" y="875" type="line" smooth="yes"/>
      <point x="90" y="896"/>
      <point x="70" y="908"/>
      <point x="56" y="908" type="curve" smooth="yes"/>
      <point x="39" y="908"/>
      <point x="25" y="893"/>
      <point x="25" y="874" type="curve" smooth="yes"/>
      <point x="25" y="856"/>
      <point x="32" y="848"/>
      <point x="65" y="827" type="curve" smooth="yes"/>
    </contour>
  </outline>
</glyph>
<glyph name="Icircumflex" format="1">
  <advance width="337"/>
  <unicode hex="00CE"/>
  <outline>
    <contour>
      <point x="216" y="569" type="line" smooth="yes"/>
      <point x="216" y="648"/>
      <point x="221" y="656"/>
      <point x="267" y="659" type="curve" smooth="yes"/>
      <point x="315" y="662" type="line"/>
      <point x="315" y="692" type="line"/>
      <point x="242" y="689"/>
      <point x="220" y="689"/>
      <point x="168" y="689" type="curve" smooth="yes"/>
      <point x="118" y="689"/>
      <point x="94" y="690"/>
      <point x="22" y="692" type="curve"/>
      <point x="22" y="662" type="line"/>
      <point x="70" y="659" type="line" smooth="yes"/>
      <point x="116" y="656"/>
      <point x="121" y="648"/>
      <point x="121" y="569" type="curve" smooth="yes"/>
      <point x="121" y="120" type="line" smooth="yes"/>
      <point x="121" y="41"/>
      <point x="116" y="33"/>
      <point x="70" y="30" type="curve" smooth="yes"/>
      <point x="22" y="27" type="line"/>
      <point x="22" y="-3" type="line"/>
      <point x="81" y="-1"/>
      <point x="116" y="0"/>
      <point x="168" y="0" type="curve" smooth="yes"/>
      <point x="220" y="0"/>
      <point x="256" y="-1"/>
      <point x="315" y="-3" type="curve"/>
      <point x="315" y="27" type="line"/>
      <point x="267" y="30" type="line" smooth="yes"/>
      <point x="221" y="33"/>
      <point x="216" y="41"/>
      <point x="216" y="120" type="curve" smooth="yes"/>
    </contour>
    <contour>
      <point x="138" y="908" type="line"/>
      <point x="13" y="741" type="line"/>
      <point x="48" y="741" type="line"/>
      <point x="169" y="844" type="line"/>
      <point x="290" y="741" type="line"/>
      <point x="325" y="741" type="line"/>
      <point x="200" y="908" type="line"/>
    </contour>
  </outline>
</glyph>
<glyph name="Ntilde" format="1">
  <advance width="831"/>
  <unicode hex="00D1"/>
  <outline>
    <contour>
      <point x="137" y="689" type="line"/>
      <point x="81" y="690"/>
      <point x="72" y="690"/>
      <point x="17" y="692" type="curve"/>
      <point x="17" y="662" type="line"/>
      <point x="61" y="659" type="line" smooth="yes"/>
      <point x="107" y="656"/>
      <point x="112" y="647"/>
      <point x="112" y="569" type="curve" smooth="yes"/>
      <point x="112" y="120" type="line" smooth="yes"/>
      <point x="112" y="42"/>
      <point x="107" y="33"/>
      <point x="61" y="30" type="curve" smooth="yes"/>
      <point x="17" y="27" type="line"/>
      <point x="17" y="-3" type="line"/>
      <point x="116" y="0"/>
      <point x="116" y="0"/>
      <point x="133" y="0" type="curve" smooth="yes"/>
      <point x="148" y="0"/>
      <point x="148" y="0"/>
      <point x="253" y="-3" type="curve"/>
      <point x="253" y="27" type="line"/>
      <point x="209" y="30" type="line" smooth="yes"/>
      <point x="163" y="33"/>
      <point x="158" y="42"/>
      <point x="158" y="120" type="curve" smooth="yes"/>
      <point x="158" y="583" type="line"/>
      <point x="631" y="-4" type="line"/>
      <point x="721" y="-20" type="line"/>
      <point x="721" y="-16"/>
      <point x="721" y="-15"/>
      <point x="720" y="-8" type="curve"/>
      <point x="719" y="3"/>
      <point x="718" y="11"/>
      <point x="718" y="17" type="curve" smooth="yes"/>
      <point x="718" y="569" type="line" smooth="yes"/>
      <point x="718" y="647"/>
      <point x="723" y="656"/>
      <point x="769" y="659" type="curve" smooth="yes"/>
      <point x="813" y="662" type="line"/>
      <point x="813" y="692" type="line"/>
      <point x="708" y="689"/>
      <point x="708" y="689"/>
      <point x="693" y="689" type="curve" smooth="yes"/>
      <point x="676" y="689"/>
      <point x="676" y="689"/>
      <point x="577" y="692" type="curve"/>
      <point x="577" y="662" type="line"/>
      <point x="621" y="659" type="line" smooth="yes"/>
      <point x="667" y="656"/>
      <point x="672" y="647"/>
      <point x="672" y="569" type="curve" smooth="yes"/>
      <point x="672" y="98" type="line"/>
      <point x="191" y="692" type="line"/>
    </contour>
    <contour>
      <point x="553" y="871" type="line"/>
      <point x="538" y="834"/>
      <point x="522" y="821"/>
      <point x="494" y="821" type="curve" smooth="yes"/>
      <point x="482" y="821"/>
      <point x="471" y="825"/>
      <point x="447" y="836" type="curve" smooth="yes"/>
      <point x="394" y="862"/>
      <point x="382" y="866"/>
      <point x="358" y="866" type="curve" smooth="yes"/>
      <point x="303" y="866"/>
      <point x="266" y="831"/>
      <point x="252" y="766" type="curve"/>
      <point x="281" y="766" type="line"/>
      <point x="294" y="797"/>
      <point x="310" y="811"/>
      <point x="334" y="811" type="curve" smooth="yes"/>
      <point x="348" y="811"/>
      <point x="368" y="804"/>
      <point x="405" y="785" type="curve" smooth="yes"/>
      <point x="435" y="771"/>
      <point x="451" y="766"/>
      <point x="473" y="766" type="curve" smooth="yes"/>
      <point x="530" y="766"/>
      <point x="578" y="813"/>
      <point x="582" y="871" type="curve"/>
    </contour>
  </outline>
</glyph>
<glyph name="Ograve" format="1">
  <advance width="786"/>
  <unicode hex="00D2"/>
  <outline>
    <contour>
      <point x="402" y="709" type="curve" smooth="yes"/>
      <point x="174" y="709"/>
      <point x="22" y="561"/>
      <point x="22" y="341" type="curve" smooth="yes"/>
      <point x="22" y="131"/>
      <point x="168" y="-20"/>
      <point x="370" y="-20" type="curve" smooth="yes"/>
      <point x="594" y="-20"/>
      <point x="764" y="147"/>
      <point x="764" y="367" type="curve" smooth="yes"/>
      <point x="764" y="577"/>
      <point x="624" y="709"/>
    </contour>
    <contour>
      <point x="385" y="667" type="curve" smooth="yes"/>
      <point x="556" y="667"/>
      <point x="657" y="545"/>
      <point x="657" y="337" type="curve" smooth="yes"/>
      <point x="657" y="139"/>
      <point x="565" y="22"/>
      <point x="410" y="22" type="curve" smooth="yes"/>
      <point x="242" y="22"/>
      <point x="129" y="164"/>
      <point x="129" y="378" type="curve" smooth="yes"/>
      <point x="129" y="563"/>
      <point x="221" y="667"/>
    </contour>
    <contour>
      <point x="434" y="737" type="line"/>
      <point x="474" y="737" type="line"/>
      <point x="336" y="875" type="line" smooth="yes"/>
      <point x="315" y="896"/>
      <point x="295" y="908"/>
      <point x="281" y="908" type="curve" smooth="yes"/>
      <point x="264" y="908"/>
      <point x="250" y="893"/>
      <point x="250" y="874" type="curve" smooth="yes"/>
      <point x="250" y="856"/>
      <point x="257" y="848"/>
      <point x="290" y="827" type="curve" smooth="yes"/>
    </contour>
  </outline>
</glyph>
<glyph name="Otilde" format="1">
  <advance width="786"/>
  <unicode hex="00D5"/>
  <outline>
    <contour>
      <point x="402" y="709" type="curve" smooth="yes"/>
      <point x="174" y="709"/>
      <point x="22" y="561"/>
      <point x="22" y="341" type="curve" smooth="yes"/>
      <point x="22" y="131"/>
      <point x="168" y="-20"/>
      <point x="370" y="-20" type="curve" smooth="yes"/>
      <point x="594" y="-20"/>
      <point x="764" y="147"/>
      <point x="764" y="367" type="curve" smooth="yes"/>
      <point x="764" y="577"/>
      <point x="624" y="709"/>
    </contour>
    <contour>
      <point x="385" y="667" type="curve" smooth="yes"/>
      <point x="556" y="667"/>
      <point x="657" y="545"/>
      <point x="657" y="337" type="curve" smooth="yes"/>
      <point x="657" y="139"/>
      <point x="565" y="22"/>
      <point x="410" y="22" type="curve" smooth="yes"/>
      <point x="242" y="22"/>
      <point x="129" y="164"/>
      <point x="129" y="378" type="curve" smooth="yes"/>
      <point x="129" y="563"/>
      <point x="221" y="667"/>
    </contour>
    <contour>
      <point x="530" y="871" type="line"/>
      <point x="515" y="834"/>
      <point x="499" y="821"/>
      <point x="471" y="821" type="curve" smooth="yes"/>
      <point x="459" y="821"/>
      <point x="448" y="825"/>
      <point x="424" y="836" type="curve" smooth="yes"/>
      <point x="371" y="862"/>
      <point x="359" y="866"/>
      <point x="335" y="866" type="curve" smooth="yes"/>
      <point x="280" y="866"/>
      <point x="243" y="831"/>
      <point x="229" y="766" type="curve"/>
      <point x="258" y="766" type="line"/>
      <point x="271" y="797"/>
      <point x="287" y="811"/>
      <point x="311" y="811" type="curve" smooth="yes"/>
      <point x="325" y="811"/>
      <point x="345" y="804"/>
      <point x="382" y="785" type="curve" smooth="yes"/>
      <point x="412" y="771"/>
      <point x="428" y="766"/>
      <point x="450" y="766" type="curve" smooth="yes"/>
      <point x="507" y="766"/>
      <point x="555" y="813"/>
      <point x="559" y="871" type="curve"/>
    </contour>
  </outline>
</glyph>
<glyph name="Odieresis" format="1">
  <advance width="786"/>
  <unicode hex="00D6"/>
  <outline>
    <contour>
      <point x="402" y="709" type="curve" smooth="yes"/>
      <point x="174" y="709"/>
      <point x="22" y="561"/>
      <point x="22" y="341" type="curve" smooth="yes"/>
      <point x="22" y="131"/>
      <point x="168" y="-20"/>
      <point x="370" y="-20" type="curve" smooth="yes"/>
      <point x="594" y="-20"/>
      <point x="764" y="147"/>
      <point x="764" y="367" type="curve" smooth="yes"/>
      <point x="764" y="577"/>
      <point x="624" y="709"/>
    </contour>
    <contour>
      <point x="385" y="667" type="curve" smooth="yes"/>
      <point x="556" y="667"/>
      <point x="657" y="545"/>
      <point x="657" y="337" type="curve" smooth="yes"/>
      <point x="657" y="139"/>
      <point x="565" y="22"/>
      <point x="410" y="22" type="curve" smooth="yes"/>
      <point x="242" y="22"/>
      <point x="129" y="164"/>
      <point x="129" y="378" type="curve" smooth="yes"/>
      <point x="129" y="563"/>
      <point x="221" y="667"/>
    </contour>
    <contour>
      <point x="295" y="868" type="curve" smooth="yes"/>
      <point x="264" y="868"/>
      <point x="244" y="848"/>
      <point x="244" y="818" type="curve" smooth="yes"/>
      <point x="244" y="788"/>
      <point x="264" y="768"/>
      <point x="294" y="768" type="curve" smooth="yes"/>
      <point x="324" y="768"/>
      <point x="344" y="788"/>
      <point x="344" y="818" type="curve" smooth="yes"/>
      <point x="344" y="847"/>
      <point x="324" y="868"/>
    </contour>
    <contour>
      <point x="494" y="868" type="curve" smooth="yes"/>
      <point x="463" y="868"/>
      <point x="443" y="848"/>
      <point x="443" y="818" type="curve" smooth="yes"/>
      <point x="443" y="788"/>
      <point x="463" y="768"/>
      <point x="493" y="768" type="curve" smooth="yes"/>
      <point x="523" y="768"/>
      <point x="543" y="788"/>
      <point x="543" y="818" type="curve" smooth="yes"/>
      <point x="543" y="847"/>
      <point x="523" y="868"/>
    </contour>
  </outline>
</glyph>
<glyph name="multiply" format="1">
  <advance width="606"/>
  <unicode hex="00D7"/>
  <outline>
    <contour>
      <point x="263" y="255" type="line"/>
      <point x="83" y="75" type="line"/>
      <point x="124" y="36" type="line"/>
      <point x="303" y="215" type="line"/>
      <point x="482" y="36" type="line"/>
      <point x="523" y="75" type="line"/>
      <point x="342" y="255" type="line"/>
      <point x="523" y="435" type="line"/>
      <point x="482" y="474" type="line"/>
      <point x="303" y="295" type="line"/>
      <point x="124" y="474" type="line"/>
      <point x="83" y="435" type="line"/>
    </contour>
  </outline>
</glyph>
<glyph name="Oslash" format="1">
  <advance width="833"/>
  <unicode hex="00D8"/>
  <outline>
    <contour>
      <point x="154" y="67" type="line"/>
      <point x="188" y="39"/>
      <point x="205" y="27"/>
      <point x="229" y="16" type="curve" smooth="yes"/>
      <point x="277" y="-7"/>
      <point x="336" y="-20"/>
      <point x="395" y="-20" type="curve" smooth="yes"/>
      <point x="618" y="-20"/>
      <point x="787" y="148"/>
      <point x="787" y="370" type="curve" smooth="yes"/>
      <point x="787" y="461"/>
      <point x="764" y="526"/>
      <point x="709" y="596" type="curve"/>
      <point x="797" y="679" type="line"/>
      <point x="765" y="709" type="line"/>
      <point x="679" y="626" type="line"/>
      <point x="645" y="652"/>
      <point x="628" y="662"/>
      <point x="604" y="673" type="curve" smooth="yes"/>
      <point x="553" y="696"/>
      <point x="488" y="709"/>
      <point x="424" y="709" type="curve" smooth="yes"/>
      <point x="196" y="709"/>
      <point x="45" y="563"/>
      <point x="45" y="342" type="curve" smooth="yes"/>
      <point x="45" y="288"/>
      <point x="55" y="232"/>
      <point x="73" y="186" type="curve" smooth="yes"/>
      <point x="85" y="154"/>
      <point x="95" y="137"/>
      <point x="124" y="99" type="curve"/>
      <point x="30" y="11" type="line"/>
      <point x="63" y="-18" type="line"/>
    </contour>
    <contour>
      <point x="641" y="531" type="line"/>
      <point x="670" y="469"/>
      <point x="680" y="420"/>
      <point x="680" y="340" type="curve" smooth="yes"/>
      <point x="680" y="138"/>
      <point x="589" y="22"/>
      <point x="431" y="22" type="curve" smooth="yes"/>
      <point x="340" y="22"/>
      <point x="278" y="54"/>
      <point x="219" y="131" type="curve"/>
    </contour>
    <contour>
      <point x="196" y="167" type="line"/>
      <point x="164" y="233"/>
      <point x="152" y="292"/>
      <point x="152" y="375" type="curve" smooth="yes"/>
      <point x="152" y="561"/>
      <point x="243" y="667"/>
      <point x="403" y="667" type="curve" smooth="yes"/>
      <point x="439" y="667"/>
      <point x="473" y="661"/>
      <point x="507" y="648" type="curve" smooth="yes"/>
      <point x="554" y="631"/>
      <point x="577" y="614"/>
      <point x="616" y="570" type="curve"/>
    </contour>
  </outline>
</glyph>
<glyph name="Udieresis" format="1">
  <advance width="778"/>
  <unicode hex="00DC"/>
  <outline>
    <contour>
      <point x="664" y="569" type="line" smooth="yes"/>
      <point x="664" y="647"/>
      <point x="669" y="656"/>
      <point x="715" y="659" type="curve" smooth="yes"/>
      <point x="759" y="662" type="line"/>
      <point x="759" y="692" type="line"/>
      <point x="654" y="689"/>
      <point x="654" y="689"/>
      <point x="639" y="689" type="curve" smooth="yes"/>
      <point x="622" y="689"/>
      <point x="622" y="689"/>
      <point x="523" y="692" type="curve"/>
      <point x="523" y="662" type="line"/>
      <point x="567" y="659" type="line" smooth="yes"/>
      <point x="613" y="656"/>
      <point x="618" y="647"/>
      <point x="618" y="569" type="curve" smooth="yes"/>
      <point x="618" y="249" type="line" smooth="yes"/>
      <point x="618" y="108"/>
      <point x="550" y="42"/>
      <point x="405" y="42" type="curve" smooth="yes"/>
      <point x="266" y="42"/>
      <point x="206" y="97"/>
      <point x="206" y="225" type="curve" smooth="yes"/>
      <point x="206" y="569" type="line" smooth="yes"/>
      <point x="206" y="648"/>
      <point x="211" y="656"/>
      <point x="257" y="659" type="curve" smooth="yes"/>
      <point x="305" y="662" type="line"/>
      <point x="305" y="692" type="line"/>
      <point x="232" y="689"/>
      <point x="210" y="689"/>
      <point x="158" y="689" type="curve" smooth="yes"/>
      <point x="108" y="689"/>
      <point x="84" y="690"/>
      <point x="12" y="692" type="curve"/>
      <point x="12" y="662" type="line"/>
      <point x="60" y="659" type="line" smooth="yes"/>
      <point x="106" y="656"/>
      <point x="111" y="648"/>
      <point x="111" y="569" type="curve" smooth="yes"/>
      <point x="111" y="214" type="line" smooth="yes"/>
      <point x="111" y="136"/>
      <point x="129" y="81"/>
      <point x="167" y="42" type="curve" smooth="yes"/>
      <point x="207" y="1"/>
      <point x="278" y="-20"/>
      <point x="378" y="-20" type="curve" smooth="yes"/>
      <point x="481" y="-20"/>
      <point x="550" y="1"/>
      <point x="595" y="47" type="curve" smooth="yes"/>
      <point x="642" y="94"/>
      <point x="664" y="169"/>
      <point x="664" y="280" type="curve" smooth="yes"/>
    </contour>
    <contour>
      <point x="305" y="868" type="curve" smooth="yes"/>
      <point x="274" y="868"/>
      <point x="254" y="848"/>
      <point x="254" y="818" type="curve" smooth="yes"/>
      <point x="254" y="788"/>
      <point x="274" y="768"/>
      <point x="304" y="768" type="curve" smooth="yes"/>
      <point x="334" y="768"/>
      <point x="354" y="788"/>
      <point x="354" y="818" type="curve" smooth="yes"/>
      <point x="354" y="847"/>
      <point x="334" y="868"/>
    </contour>
    <contour>
      <point x="504" y="868" type="curve" smooth="yes"/>
      <point x="473" y="868"/>
      <point x="453" y="848"/>
      <point x="453" y="818" type="curve" smooth="yes"/>
      <point x="453" y="788"/>
      <point x="473" y="768"/>
      <point x="503" y="768" type="curve" smooth="yes"/>
      <point x="533" y="768"/>
      <point x="553" y="788"/>
      <point x="553" y="818" type="curve" smooth="yes"/>
      <point x="553" y="847"/>
      <point x="533" y="868"/>
    </contour>
  </outline>
</glyph>
<glyph name="Thorn" format="1">
  <advance width="604"/>
  <unicode hex="00DE"/>
  <outline>
    <contour>
      <point x="226" y="491" type="line"/>
      <point x="252" y="497"/>
      <point x="274" y="500"/>
      <point x="304" y="500" type="curve" smooth="yes"/>
      <point x="418" y="500"/>
      <point x="474" y="453"/>
      <point x="474" y="357" type="curve" smooth="yes"/>
      <point x="474" y="275"/>
      <point x="418" y="210"/>
      <point x="347" y="210" type="curve" smooth="yes"/>
      <point x="329" y="210"/>
      <point x="307" y="213"/>
      <point x="285" y="219" type="curve"/>
      <point x="296" y="182" type="line"/>
      <point x="311" y="178"/>
      <point x="333" y="176"/>
      <point x="354" y="176" type="curve" smooth="yes"/>
      <point x="476" y="176"/>
      <point x="574" y="270"/>
      <point x="574" y="387" type="curve" smooth="yes"/>
      <point x="574" y="481"/>
      <point x="495" y="541"/>
      <point x="371" y="541" type="curve" smooth="yes"/>
      <point x="353" y="541" type="line" smooth="yes"/>
      <point x="326" y="540"/>
      <point x="294" y="540"/>
      <point x="272" y="540" type="curve" smooth="yes"/>
      <point x="250" y="540"/>
      <point x="243" y="540"/>
      <point x="226" y="542" type="curve"/>
      <point x="226" y="569" type="line" smooth="yes"/>
      <point x="226" y="648"/>
      <point x="231" y="656"/>
      <point x="277" y="659" type="curve" smooth="yes"/>
      <point x="325" y="662" type="line"/>
      <point x="325" y="692" type="line"/>
      <point x="252" y="689"/>
      <point x="230" y="689"/>
      <point x="178" y="689" type="curve" smooth="yes"/>
      <point x="128" y="689"/>
      <point x="104" y="690"/>
      <point x="32" y="692" type="curve"/>
      <point x="32" y="662" type="line"/>
      <point x="80" y="659" type="line" smooth="yes"/>
      <point x="126" y="656"/>
      <point x="131" y="648"/>
      <point x="131" y="569" type="curve" smooth="yes"/>
      <point x="131" y="120" type="line" smooth="yes"/>
      <point x="131" y="41"/>
      <point x="126" y="33"/>
      <point x="80" y="30" type="curve" smooth="yes"/>
      <point x="32" y="27" type="line"/>
      <point x="32" y="-3" type="line"/>
      <point x="91" y="-1"/>
      <point x="126" y="0"/>
      <point x="178" y="0" type="curve" smooth="yes"/>
      <point x="230" y="0"/>
      <point x="266" y="-1"/>
      <point x="325" y="-3" type="curve"/>
      <point x="325" y="27" type="line"/>
      <point x="277" y="30" type="line" smooth="yes"/>
      <point x="231" y="33"/>
      <point x="226" y="41"/>
      <point x="226" y="120" type="curve" smooth="yes"/>
    </contour>
  </outline>
</glyph>
<glyph name="germandbls" format="1">
  <advance width="556"/>
  <unicode hex="00DF"/>
  <outline>
    <contour>
      <point x="96" y="385" type="line"/>
      <point x="96" y="102" type="line" smooth="yes"/>
      <point x="96" y="39"/>
      <point x="93" y="33"/>
      <point x="59" y="30" type="curve" smooth="yes"/>
      <point x="23" y="27" type="line"/>
      <point x="23" y="-3" type="line"/>
      <point x="23" y="-3"/>
      <point x="137" y="0"/>
      <point x="137" y="0" type="curve"/>
      <point x="148" y="0"/>
      <point x="155" y="0"/>
      <point x="252" y="-3" type="curve"/>
      <point x="252" y="11" type="line"/>
      <point x="284" y="-3"/>
      <point x="313" y="-9"/>
      <point x="345" y="-9" type="curve" smooth="yes"/>
      <point x="373" y="-9"/>
      <point x="401" y="0"/>
      <point x="424" y="18" type="curve" smooth="yes"/>
      <point x="482" y="62" type="line" smooth="yes"/>
      <point x="503" y="78"/>
      <point x="519" y="122"/>
      <point x="519" y="163" type="curve" smooth="yes"/>
      <point x="519" y="215"/>
      <point x="488" y="252"/>
      <point x="414" y="289" type="curve" smooth="yes"/>
      <point x="351" y="321"/>
      <point x="328" y="343"/>
      <point x="328" y="371" type="curve" smooth="yes"/>
      <point x="328" y="397"/>
      <point x="349" y="414"/>
      <point x="381" y="414" type="curve" smooth="yes"/>
      <point x="405" y="414"/>
      <point x="422" y="408"/>
      <point x="452" y="391" type="curve"/>
      <point x="483" y="471"/>
      <point x="496" y="530"/>
      <point x="496" y="587" type="curve" smooth="yes"/>
      <point x="496" y="672"/>
      <point x="434" y="731"/>
      <point x="345" y="731" type="curve" smooth="yes"/>
      <point x="272" y="731"/>
      <point x="192" y="686"/>
      <point x="142" y="618" type="curve" smooth="yes"/>
      <point x="108" y="571"/>
      <point x="96" y="539"/>
      <point x="96" y="500" type="curve" smooth="yes"/>
      <point x="96" y="434" type="line"/>
      <point x="27" y="399" type="line"/>
      <point x="27" y="385" type="line"/>
    </contour>
    <contour>
      <point x="287" y="383" type="line" smooth="yes"/>
      <point x="274" y="369"/>
      <point x="268" y="350"/>
      <point x="268" y="327" type="curve" smooth="yes"/>
      <point x="268" y="282"/>
      <point x="286" y="261"/>
      <point x="361" y="222" type="curve" smooth="yes"/>
      <point x="429" y="186"/>
      <point x="454" y="157"/>
      <point x="454" y="110" type="curve" smooth="yes"/>
      <point x="454" y="66"/>
      <point x="419" y="34"/>
      <point x="373" y="34" type="curve" smooth="yes"/>
      <point x="346" y="34"/>
      <point x="329" y="42"/>
      <point x="302" y="66" type="curve"/>
      <point x="302" y="112" type="line"/>
      <point x="275" y="112" type="line"/>
      <point x="254" y="27" type="line"/>
      <point x="226" y="27" type="line" smooth="yes"/>
      <point x="192" y="27"/>
      <point x="180" y="48"/>
      <point x="180" y="107" type="curve" smooth="yes"/>
      <point x="180" y="466" type="line" smooth="yes"/>
      <point x="180" y="625"/>
      <point x="216" y="686"/>
      <point x="309" y="686" type="curve" smooth="yes"/>
      <point x="390" y="686"/>
      <point x="440" y="631"/>
      <point x="440" y="543" type="curve" smooth="yes"/>
      <point x="440" y="524"/>
      <point x="437" y="501"/>
      <point x="431" y="470" type="curve" smooth="yes"/>
      <point x="430" y="465"/>
      <point x="430" y="465"/>
      <point x="429" y="461" type="curve"/>
      <point x="383" y="461"/>
      <point x="346" y="448"/>
      <point x="326" y="426" type="curve" smooth="yes"/>
    </contour>
  </outline>
</glyph>
<glyph name="ae" format="1">
  <advance width="758"/>
  <unicode hex="00E6"/>
  <outline>
    <contour>
      <point x="69" y="399" type="line"/>
      <point x="69" y="337" type="line"/>
      <point x="95" y="331" type="line"/>
      <point x="102" y="357"/>
      <point x="113" y="381"/>
      <point x="120" y="389" type="curve" smooth="yes"/>
      <point x="132" y="403"/>
      <point x="177" y="416"/>
      <point x="211" y="416" type="curve" smooth="yes"/>
      <point x="246" y="416"/>
      <point x="278" y="400"/>
      <point x="297" y="374" type="curve" smooth="yes"/>
      <point x="315" y="347"/>
      <point x="321" y="323"/>
      <point x="324" y="265" type="curve"/>
      <point x="268" y="259" type="line" smooth="yes"/>
      <point x="184" y="250"/>
      <point x="101" y="227"/>
      <point x="71" y="205" type="curve" smooth="yes"/>
      <point x="44" y="184"/>
      <point x="30" y="151"/>
      <point x="30" y="107" type="curve" smooth="yes"/>
      <point x="30" y="30"/>
      <point x="83" y="-20"/>
      <point x="166" y="-20" type="curve" smooth="yes"/>
      <point x="190" y="-20"/>
      <point x="211" y="-15"/>
      <point x="221" y="-7" type="curve" smooth="yes"/>
      <point x="344" y="89" type="line"/>
      <point x="361" y="60"/>
      <point x="371" y="47"/>
      <point x="388" y="33" type="curve"/>
      <point x="425" y="-1"/>
      <point x="480" y="-20"/>
      <point x="536" y="-20" type="curve" smooth="yes"/>
      <point x="573" y="-20"/>
      <point x="613" y="-11"/>
      <point x="654" y="7" type="curve" smooth="yes"/>
      <point x="680" y="18"/>
      <point x="700" y="30"/>
      <point x="704" y="36" type="curve"/>
      <point x="724" y="70" type="line"/>
      <point x="710" y="80" type="line"/>
      <point x="650" y="43"/>
      <point x="623" y="33"/>
      <point x="579" y="33" type="curve" smooth="yes"/>
      <point x="513" y="33"/>
      <point x="459" y="61"/>
      <point x="430" y="111" type="curve" smooth="yes"/>
      <point x="412" y="144"/>
      <point x="405" y="172"/>
      <point x="403" y="230" type="curve"/>
      <point x="549" y="230" type="line" smooth="yes"/>
      <point x="618" y="230"/>
      <point x="661" y="233"/>
      <point x="730" y="244" type="curve"/>
      <point x="731" y="258"/>
      <point x="732" y="266"/>
      <point x="732" y="278" type="curve" smooth="yes"/>
      <point x="732" y="318"/>
      <point x="723" y="356"/>
      <point x="708" y="382" type="curve" smooth="yes"/>
      <point x="676" y="436"/>
      <point x="615" y="469"/>
      <point x="545" y="469" type="curve" smooth="yes"/>
      <point x="488" y="469"/>
      <point x="449" y="452"/>
      <point x="384" y="398" type="curve"/>
      <point x="345" y="448"/>
      <point x="303" y="469"/>
      <point x="238" y="469" type="curve" smooth="yes"/>
      <point x="210" y="469"/>
      <point x="189" y="464"/>
      <point x="167" y="452" type="curve" smooth="yes"/>
    </contour>
    <contour>
      <point x="324" y="117" type="line"/>
      <point x="280" y="64"/>
      <point x="247" y="45"/>
      <point x="200" y="45" type="curve" smooth="yes"/>
      <point x="147" y="45"/>
      <point x="116" y="74"/>
      <point x="116" y="122" type="curve" smooth="yes"/>
      <point x="116" y="144"/>
      <point x="123" y="165"/>
      <point x="134" y="181" type="curve" smooth="yes"/>
      <point x="143" y="193"/>
      <point x="157" y="200"/>
      <point x="190" y="210" type="curve" smooth="yes"/>
      <point x="233" y="222"/>
      <point x="243" y="224"/>
      <point x="324" y="233" type="curve"/>
    </contour>
    <contour>
      <point x="649" y="267" type="curve"/>
      <point x="594" y="265"/>
      <point x="568" y="264"/>
      <point x="532" y="264" type="curve" smooth="yes"/>
      <point x="485" y="264"/>
      <point x="459" y="265"/>
      <point x="405" y="270" type="curve"/>
      <point x="407" y="327"/>
      <point x="415" y="357"/>
      <point x="435" y="385" type="curve" smooth="yes"/>
      <point x="458" y="416"/>
      <point x="498" y="436"/>
      <point x="539" y="436" type="curve" smooth="yes"/>
      <point x="577" y="436"/>
      <point x="604" y="418"/>
      <point x="626" y="377" type="curve" smooth="yes"/>
      <point x="643" y="345"/>
      <point x="649" y="319"/>
    </contour>
  </outline>
</glyph>
<glyph name="ccedilla" format="1">
  <advance width="444"/>
  <unicode hex="00E7"/>
  <outline>
    <contour>
      <point x="269" y="-20" type="line"/>
      <point x="313" y="-19"/>
      <point x="380" y="0"/>
      <point x="392" y="14" type="curve"/>
      <point x="413" y="46" type="line"/>
      <point x="403" y="61" type="line"/>
      <point x="366" y="41"/>
      <point x="334" y="32"/>
      <point x="298" y="32" type="curve" smooth="yes"/>
      <point x="187" y="32"/>
      <point x="114" y="118"/>
      <point x="114" y="250" type="curve" smooth="yes"/>
      <point x="114" y="357"/>
      <point x="164" y="417"/>
      <point x="254" y="417" type="curve" smooth="yes"/>
      <point x="298" y="417"/>
      <point x="346" y="397"/>
      <point x="364" y="372" type="curve"/>
      <point x="371" y="311" type="line"/>
      <point x="399" y="311" type="line"/>
      <point x="399" y="357"/>
      <point x="404" y="398"/>
      <point x="413" y="434" type="curve"/>
      <point x="373" y="458"/>
      <point x="338" y="469"/>
      <point x="297" y="469" type="curve" smooth="yes"/>
      <point x="249" y="469"/>
      <point x="193" y="450"/>
      <point x="133" y="412" type="curve" smooth="yes"/>
      <point x="63" y="368"/>
      <point x="26" y="298"/>
      <point x="26" y="210" type="curve" smooth="yes"/>
      <point x="26" y="82"/>
      <point x="110" y="-9"/>
      <point x="235" y="-19" type="curve"/>
      <point x="197" y="-108" type="line"/>
      <point x="204" y="-114" type="line"/>
      <point x="223" y="-109"/>
      <point x="232" y="-107"/>
      <point x="245" y="-107" type="curve" smooth="yes"/>
      <point x="269" y="-107"/>
      <point x="285" y="-123"/>
      <point x="285" y="-146" type="curve" smooth="yes"/>
      <point x="285" y="-174"/>
      <point x="266" y="-189"/>
      <point x="231" y="-189" type="curve" smooth="yes"/>
      <point x="213" y="-189"/>
      <point x="199" y="-187"/>
      <point x="166" y="-178" type="curve"/>
      <point x="152" y="-209" type="line"/>
      <point x="195" y="-222"/>
      <point x="209" y="-225"/>
      <point x="236" y="-225" type="curve" smooth="yes"/>
      <point x="312" y="-225"/>
      <point x="360" y="-193"/>
      <point x="360" y="-141" type="curve" smooth="yes"/>
      <point x="360" y="-98"/>
      <point x="327" y="-71"/>
      <point x="275" y="-71" type="curve" smooth="yes"/>
      <point x="265" y="-71"/>
      <point x="258" y="-72"/>
      <point x="248" y="-75" type="curve"/>
    </contour>
  </outline>
</glyph>
